<svg xmlns="http://www.w3.org/2000/svg" viewBox="0 0 1024 1024" fill="none"><path d="M800 780Q843 780 879 758.5Q915 737 936.5 700.5Q958 664 958 621L958 147Q958 104 936.5 67.5Q915 31 879 10Q843 -11 800 -11L272 -11Q229 -11 193 10Q157 31 135.5 67.5Q114 104 114 147L114 621Q114 664 135.5 700.5Q157 737 193 758.5Q229 780 272 780ZM800 711L272 711Q235 711 209 685Q183 659 183 621L183 147Q183 110 209 83.5Q235 57 272 57L800 57Q837 57 863 83.5Q889 110 889 147L889 621Q889 659 863 685Q837 711 800 711ZM148 569L924 569L924 500L148 500ZM278 215ZM312 215L492 215Q526 215 526 180L526 180Q526 146 492 146L312 146Q278 146 278 180L278 180Q278 215 312 215Z" transform="translate(0 896) scale(1 -1)" fill="currentColor" /></svg>