<svg xmlns="http://www.w3.org/2000/svg" viewBox="0 0 1024 1024" fill="none"><path d="M801 753Q844 753 880.5 732Q917 711 938.5 674.5Q960 638 960 595L960 120Q960 77 938.5 41Q917 5 880.5 -16.5Q844 -38 801 -38L274 -38Q231 -38 194.5 -16.5Q158 5 137 41Q116 77 116 120L116 595Q116 638 137 674.5Q158 711 194.5 732Q231 753 274 753ZM801 685L274 685Q237 685 210.5 658.5Q184 632 184 595L184 120Q184 83 210.5 57Q237 31 274 31L801 31Q839 31 865 57Q891 83 891 120L891 595Q891 632 865 658.5Q839 685 801 685ZM151 558L928 558L928 489L151 489ZM353 806ZM387 806L387 806Q422 806 422 772L422 666Q422 632 387 632L387 632Q353 632 353 666L353 772Q353 806 387 806ZM654 806ZM688 806L688 806Q722 806 722 772L722 666Q722 632 688 632L688 632Q654 632 654 666L654 772Q654 806 688 806ZM280 367ZM314 367L388 367Q422 367 422 333L422 333Q422 298 388 298L314 298Q280 298 280 333L280 333Q280 367 314 367ZM467 367ZM501 367L575 367Q609 367 609 333L609 333Q609 298 575 298L501 298Q467 298 467 333L467 333Q467 367 501 367ZM280 241ZM314 241L388 241Q422 241 422 207L422 207Q422 172 388 172L314 172Q280 172 280 207L280 207Q280 241 314 241ZM467 241ZM501 241L575 241Q609 241 609 207L609 207Q609 172 575 172L501 172Q467 172 467 207L467 207Q467 241 501 241ZM653 367ZM688 367L761 367Q796 367 796 333L796 333Q796 298 761 298L688 298Q653 298 653 333L653 333Q653 367 688 367Z" transform="translate(0 896) scale(1 -1)" fill="currentColor" /></svg>