<svg xmlns="http://www.w3.org/2000/svg" viewBox="0 0 1024 1024" fill="none"><path d="M766 745Q783 745 798 736.5Q813 728 822 713L901 713Q909 713 916.5 708.5Q924 704 928.5 696.5Q933 689 933 680.5Q933 672 928.5 664.5Q924 657 916.5 652.5Q909 648 901 648L822 648Q813 634 798 625Q783 616 766 616Q749 616 734 625Q719 634 711 648L174 648Q166 648 158.5 652.5Q151 657 146.5 664.5Q142 672 142 680.5Q142 689 146.5 696.5Q151 704 158.5 708.5Q166 713 174 713L711 713Q719 728 734 736.5Q749 745 766 745ZM537 448Q555 448 569.5 439.5Q584 431 593 416L901 416Q909 416 916.5 412Q924 408 928.5 400.5Q933 393 933 384Q933 375 928.5 367.5Q924 360 916.5 356Q909 352 901 352L593 352Q584 337 569.5 328.5Q555 320 537.5 320Q520 320 505 328.5Q490 337 482 352L174 352Q165 352 158 356Q151 360 146.5 367.5Q142 375 142 384Q142 393 146.5 400.5Q151 408 158 412Q165 416 174 416L482 416Q490 431 505 439.5Q520 448 537 448ZM301 152Q318 152 333 143Q348 134 357 120L901 120Q909 120 916.5 115.5Q924 111 928.5 103.5Q933 96 933 87.5Q933 79 928.5 71.5Q924 64 916.5 59.5Q909 55 901 55L357 55Q348 40 333 31.5Q318 23 301 23Q284 23 269 31.5Q254 40 245 55L174 55Q166 55 158.5 59.5Q151 64 146.5 71.5Q142 79 142 87.5Q142 96 146.5 103.5Q151 111 158.5 115.5Q166 120 174 120L245 120Q254 134 269 143Q284 152 301 152Z" transform="translate(0 896) scale(1 -1)" fill="currentColor" /></svg>