<svg xmlns="http://www.w3.org/2000/svg" viewBox="0 0 1024 1024" fill="none"><path d="M809 780Q828 780 846.5 772Q865 764 878.5 750.5Q892 737 900 718.5Q908 700 908 681L908 532Q908 505 894.5 482.5Q881 460 858 446.5Q835 433 809 433L215 433Q196 433 177.5 440.5Q159 448 145.5 462Q132 476 124 494.5Q116 513 116 532L116 681Q116 700 124 718.5Q132 737 145.5 750.5Q159 764 177.5 772Q196 780 215 780ZM809 715L215 715Q201 715 191 705Q181 695 181 681L181 532Q181 518 191 508Q201 498 215 498L809 498Q823 498 833 508Q843 518 843 532L843 681Q843 695 833 705Q823 715 809 715ZM215 631ZM240 631L586 631Q611 631 611 606L611 606Q611 582 586 582L240 582Q215 582 215 606L215 606Q215 631 240 631ZM660 631ZM685 631L784 631Q809 631 809 606L809 606Q809 582 784 582L685 582Q660 582 660 606L660 606Q660 631 685 631ZM759 681ZM759 656L759 557Q759 532 734 532L734 532Q710 532 710 557L710 656Q710 681 734 681L734 681Q759 681 759 656ZM809 335Q835 335 858 321.5Q881 308 894.5 285.5Q908 263 908 236L908 87Q908 68 900 49.5Q892 31 878.5 17.5Q865 4 846.5 -4Q828 -12 809 -12L215 -12Q196 -12 177.5 -4Q159 4 145.5 17.5Q132 31 124 49.5Q116 68 116 87L116 236Q116 255 124 273.5Q132 292 145.5 306Q159 320 177.5 327.5Q196 335 215 335ZM809 270L215 270Q201 270 191 260Q181 250 181 236L181 87Q181 73 191 63Q201 53 215 53L809 53Q823 53 833 63Q843 73 843 87L843 236Q843 250 833 260Q823 270 809 270ZM215 186ZM240 186L586 186Q611 186 611 162L611 162Q611 137 586 137L240 137Q215 137 215 162L215 162Q215 186 240 186ZM660 186ZM685 186L784 186Q809 186 809 162L809 162Q809 137 784 137L685 137Q660 137 660 162L660 162Q660 186 685 186Z" transform="translate(0 896) scale(1 -1)" fill="currentColor" /></svg>