<svg xmlns="http://www.w3.org/2000/svg" viewBox="0 0 1024 1024" fill="none"><path d="M375 753Q396 753 411.5 737.5Q427 722 427 701L427 68Q427 46 411.5 30.5Q396 15 375 15L190 15Q168 15 152.5 30.5Q137 46 137 68L137 701Q137 722 152.5 737.5Q168 753 190 753ZM359 685L206 685L206 84L359 84ZM928 753Q950 753 965.5 737.5Q981 722 981 701L981 68Q981 46 965.5 30.5Q950 15 928 15L743 15Q722 15 706.5 30.5Q691 46 691 68L691 701Q691 722 706.5 737.5Q722 753 743 753ZM912 685L759 685L759 84L912 84ZM609 619Q612 619 613 618L675 556Q677 554 677 552Q677 550 675 548L613 487Q611 484 607.5 485.5Q604 487 604 490L604 526L452 526Q448 526 444.5 529Q441 532 441 536L441 568Q441 572 444.5 575.5Q448 579 452 579L604 579L604 614Q604 616 605.5 617.5Q607 619 609 619ZM509 283Q507 283 505 282L443 220Q442 218 442 216Q442 214 443 212L505 150Q507 148 510.5 149.5Q514 151 514 154L514 190L666 190Q670 190 673.5 193Q677 196 677 200L677 232Q677 236 673.5 239Q670 242 666 242L514 242L514 278Q514 280 512.5 281.5Q511 283 509 283Z" transform="translate(0 896) scale(1 -1)" fill="currentColor" /></svg>