<svg xmlns="http://www.w3.org/2000/svg" viewBox="0 0 1024 1024" fill="none"><path d="M523 800Q629 800 721.5 747Q814 694 867 601.5Q920 509 920 403Q920 297 867 204.5Q814 112 721.5 59Q629 6 522 6Q415 6 323 60Q233 113 180 203Q126 295 126 403Q126 511 180 603Q233 693 323 746Q415 800 523 800ZM523 736Q433 736 355 690Q280 646 236 571Q190 493 190 403Q190 313 236 235Q280 160 355 116Q433 71 523 71Q613 71 691 116Q766 160 810 235Q855 313 855 403Q855 493 810 571Q766 646 691 690Q613 736 523 736ZM330 435ZM362 435L684 435Q716 435 716 403L716 403Q716 371 684 371L362 371Q330 371 330 403L330 403Q330 435 362 435ZM555 596ZM555 564L555 242Q555 210 523 210L523 210Q491 210 491 242L491 564Q491 596 523 596L523 596Q555 596 555 564Z" transform="translate(0 896) scale(1 -1)" fill="currentColor" /></svg>