<svg xmlns="http://www.w3.org/2000/svg" viewBox="0 0 1024 1024" fill="none"><path d="M154 483Q167 483 176.5 473.5Q186 464 186 451L186 121L353 211Q367 218 381 212L385 210L636 60L842 165L842 432Q842 444 850 453Q858 462 870 464L875 464Q888 464 897.5 455Q907 446 907 432L907 145Q907 136 902 128.5Q897 121 889 116L650 -5Q634 -13 618 -4L368 146L169 38Q155 30 140 37.5Q125 45 122 62L122 67L122 451Q122 464 131.5 473.5Q141 483 154 483ZM514 781Q471 781 430.5 764Q390 747 359.5 716.5Q329 686 312.5 645.5Q296 605 296 562Q296 507 318 454Q338 408 373 365Q401 331 437 299Q464 276 492 257L514 242L537 257Q565 276 591 299Q628 331 656 365Q691 409 710 454Q733 507 733 562Q733 605 716.5 645.5Q700 686 669 716.5Q638 747 598 764Q558 781 514 781ZM514 311Q459 349 418 399Q354 478 354 561Q354 606 375.5 644Q397 682 433.5 704Q470 726 514 726Q558 726 595 704Q632 682 653.5 644Q675 606 675 561Q675 478 611 399Q570 349 514 311ZM514 536ZM440 536Q440 505 461.5 483.5Q483 462 514 462Q545 462 567 483.5Q589 505 589 536Q589 567 567 589Q545 611 514 611Q483 611 461.5 589Q440 567 440 536Z" transform="translate(0 896) scale(1 -1)" fill="currentColor" /></svg>