<svg xmlns="http://www.w3.org/2000/svg" viewBox="0 0 1024 1024" fill="none"><path d="M759 780Q799 780 833.5 760Q868 740 888 705.5Q908 671 908 631L908 137Q908 97 888 62.5Q868 28 833.5 8Q799 -12 759 -12L265 -12Q225 -12 190.5 8Q156 28 136 62.5Q116 97 116 137L116 631Q116 671 136 705.5Q156 740 190.5 760Q225 780 265 780ZM759 715L265 715Q230 715 205.5 690.5Q181 666 181 631L181 137Q181 102 205.5 77.5Q230 53 265 53L759 53Q794 53 818.5 77.5Q843 102 843 137L843 631Q843 666 818.5 690.5Q794 715 759 715ZM587 599L642 585Q632 547 651.5 513Q671 479 708 468L710 467L695 412Q643 426 611 470L552 249Q541 220 518 199.5Q495 179 465 172Q435 165 405 173Q367 183 342 213Q317 243 314.5 282Q312 321 332 354.5Q352 388 388 403.5Q424 419 462 411Q500 403 526 374ZM374 308Q369 291 373.5 274Q378 257 390.5 244.5Q403 232 420 227.5Q437 223 454 227.5Q471 232 483 244.5Q495 257 500 274Q506 300 492.5 323Q479 346 453 353Q427 360 404 347Q381 334 374 308Z" transform="translate(0 896) scale(1 -1)" fill="currentColor" /></svg>