<svg xmlns="http://www.w3.org/2000/svg" viewBox="0 0 1024 1024" fill="none"><path d="M802 806Q845 806 881 784.5Q917 763 938.5 727Q960 691 960 648L960 120Q960 77 938.5 41Q917 5 881 -16.5Q845 -38 802 -38L274 -38Q231 -38 195 -16.5Q159 5 137.5 41Q116 77 116 120L116 648Q116 691 137.5 727Q159 763 195 784.5Q231 806 274 806ZM802 737L274 737Q237 737 211 711Q185 685 185 648L185 120Q185 83 211 57Q237 31 274 31L802 31Q839 31 865 57Q891 83 891 120L891 648Q891 685 865 711Q839 737 802 737ZM496 609L323 157L402 157L443 271L633 271L674 157L753 157L580 609ZM466 331L537 529L540 529L611 331Z" transform="translate(0 896) scale(1 -1)" fill="currentColor" /></svg>