<svg xmlns="http://www.w3.org/2000/svg" viewBox="0 0 1024 1024" fill="none"><path d="M512 806Q627 806 725 748Q820 692 876 597Q934 499 934 384Q934 269 876 171Q820 76 725 20Q627 -38 512 -38Q397 -38 299 20Q204 76 148 171Q90 269 90 384Q90 499 148 597Q204 692 299 748Q397 806 512 806ZM512 737Q417 737 335 690Q253 643 206 561Q159 479 159 384Q159 289 206 207Q253 125 335 78Q417 31 512.5 31Q608 31 690 79Q770 126 817 206Q865 288 865 384Q865 480 817 562Q770 642 690 689Q608 737 512 737ZM512 681Q555 681 591.5 659.5Q628 638 649 601.5Q670 565 670 522.5Q670 480 649 443.5Q628 407 591.5 385.5Q555 364 512 364Q469 364 432.5 385.5Q396 407 375 443.5Q354 480 354 522.5Q354 565 375 601.5Q396 638 432.5 659.5Q469 681 512 681ZM512 617Q473 617 445 589.5Q417 562 417 522.5Q417 483 445 455.5Q473 428 512 428Q551 428 579 455.5Q607 483 607 522.5Q607 562 579 589.5Q551 617 512 617ZM512 324Q615 325 706.5 277Q798 229 857 145L776 145Q725 201 656 231Q587 261 512 261Q437 261 368 231Q299 201 248 145L167 145Q226 229 317.5 277Q409 325 512 324Z" transform="translate(0 896) scale(1 -1)" fill="currentColor" /></svg>