<svg xmlns="http://www.w3.org/2000/svg" viewBox="0 0 1024 1024" fill="none"><path d="M759 740Q799 740 833.5 720Q868 700 888 666Q908 632 908 592L908 186Q908 146 888 112Q868 78 833.5 58Q799 38 759 38L265 38Q225 38 190.5 58Q156 78 136 112Q116 146 116 186L116 592Q116 632 136 666Q156 700 190.5 720Q225 740 265 740ZM759 676L265 676Q230 676 205.5 651Q181 626 181 592L181 186Q181 151 205.5 126.5Q230 102 265 102L759 102Q794 102 818.5 126.5Q843 151 843 186L843 592Q843 626 818.5 651Q794 676 759 676ZM275 582L393 582L393 186L275 186ZM432 582L512 582L512 186L432 186ZM551 582L600 582L600 186L551 186ZM630 582L680 582L680 186L630 186ZM676 582L750 582L750 186L676 186Z" transform="translate(0 896) scale(1 -1)" fill="currentColor" /></svg>