<svg xmlns="http://www.w3.org/2000/svg" viewBox="0 0 1024 1024" fill="none"><path d="M786 779Q829 779 865.5 757.5Q902 736 923.5 699.5Q945 663 945 620L945 143Q945 100 923.5 63.5Q902 27 865.5 6Q829 -15 786 -15L257 -15Q225 -15 196 -3Q167 9 144.5 31Q122 53 110 82.5Q98 112 98 143L98 620Q98 651 110 680.5Q122 710 144.5 732Q167 754 196 766.5Q225 779 257 779ZM786 710L257 710Q219 710 193 683.5Q167 657 167 620L167 143Q167 106 193 79.5Q219 53 257 53L786 53Q823 53 849.5 79.5Q876 106 876 143L876 620Q876 657 849.5 683.5Q823 710 786 710ZM134 583L913 583L913 514L134 514ZM336 832ZM371 832L371 832Q405 832 405 797L405 691Q405 657 371 657L371 657Q336 657 336 691L336 797Q336 832 371 832ZM638 832ZM672 832L672 832Q707 832 707 797L707 691Q707 657 672 657L672 657Q638 657 638 691L638 797Q638 832 672 832ZM399 452Q350 452 321.5 420.5Q293 389 292 338L338 338Q339 375 354 394Q369 413 396.5 413Q424 413 438 400Q452 387 452 361.5Q452 336 432 312Q420 300 388 278Q336 241 320 223Q305 206 297.5 185.5Q290 165 290 143L499 143L499 184L347 184Q357 209 406 241Q451 272 468 290Q498 323 498 362Q498 401 470.5 426.5Q443 452 399 452ZM645 452Q600 452 570 422.5Q540 393 540 348Q540 303 566 274.5Q592 246 637 246Q660 246 679.5 256Q699 266 711 285L713 285L713 280Q713 236 694.5 206Q676 176 645 176Q599 176 590 220L545 220Q557 137 645 137Q696 137 727 183.5Q758 230 758 303Q758 372 729 412Q700 452 645 452ZM647 414Q674 414 691 396Q708 378 708 348.5Q708 319 691.5 301.5Q675 284 646.5 284Q618 284 601.5 301Q585 318 585 347.5Q585 377 601.5 395.5Q618 414 647 414Z" transform="translate(0 896) scale(1 -1)" fill="currentColor" /></svg>