<svg xmlns="http://www.w3.org/2000/svg" viewBox="0 0 1024 1024" fill="none"><path d="M801 806Q844 806 880.5 784.5Q917 763 938.5 727Q960 691 960 648L960 120Q960 77 938.5 41Q917 5 880.5 -16.5Q844 -38 801 -38L274 -38Q231 -38 194.5 -16.5Q158 5 137 41Q116 77 116 120L116 648Q116 691 137 727Q158 763 194.5 784.5Q231 806 274 806ZM801 737L274 737Q237 737 210.5 711Q184 685 184 648L184 120Q184 83 210.5 57Q237 31 274 31L801 31Q839 31 865 57Q891 83 891 120L891 648Q891 685 865 711Q839 737 801 737ZM432 780L501 780L501 -12L432 -12ZM560 576ZM594 576L789 576Q823 576 823 542L823 542Q823 508 789 508L594 508Q560 508 560 542L560 542Q560 576 594 576ZM560 418ZM594 418L789 418Q823 418 823 384L823 384Q823 350 789 350L594 350Q560 350 560 384L560 384Q560 418 594 418ZM560 260ZM594 260L789 260Q823 260 823 226L823 226Q823 192 789 192L594 192Q560 192 560 226L560 226Q560 260 594 260ZM298 618L359 557Q365 551 365 542Q365 533 359 527L298 466Q293 462 286.5 460.5Q280 459 274.5 461.5Q269 464 265.5 469.5Q262 475 262 481L262 603Q262 610 265.5 615Q269 620 274.5 622.5Q280 625 286.5 624Q293 623 298 618Z" transform="translate(0 896) scale(1 -1)" fill="currentColor" /></svg>