<svg xmlns="http://www.w3.org/2000/svg" viewBox="0 0 1024 1024" fill="none"><path d="M483 354Q504 354 519.5 339Q535 324 535 302L535 15Q535 -7 519.5 -22.5Q504 -38 483 -38L182 -38Q160 -38 144.5 -22.5Q129 -7 129 15L129 302Q129 324 144.5 339Q160 354 182 354ZM467 286L198 286L198 31L467 31ZM636 806Q657 806 672.5 790.5Q688 775 688 753L688 466Q688 444 672.5 429Q657 414 636 414L182 414Q160 414 144.5 429Q129 444 129 466L129 753Q129 775 144.5 790.5Q160 806 182 806ZM620 737L198 737L198 482L620 482ZM920 806Q942 806 957.5 790.5Q973 775 973 753L973 466Q973 444 957.5 429Q942 414 920 414L787 414Q765 414 749.5 429Q734 444 734 466L734 753Q734 775 749.5 790.5Q765 806 787 806ZM905 737L803 737L803 482L905 482ZM920 354Q942 354 957.5 339Q973 324 973 302L973 15Q973 -7 957.5 -22.5Q942 -38 920 -38L633 -38Q612 -38 596.5 -22.5Q581 -7 581 15L581 302Q581 324 596.5 339Q612 354 633 354ZM905 286L649 286L649 31L905 31Z" transform="translate(0 896) scale(1 -1)" fill="currentColor" /></svg>