<svg xmlns="http://www.w3.org/2000/svg" viewBox="0 0 1024 1024" fill="none"><path d="M813 806Q856 806 892 784.5Q928 763 949.5 727Q971 691 971 648L971 120Q971 77 949.5 41Q928 5 892 -16.5Q856 -38 813 -38L285 -38Q242 -38 206 -16.5Q170 5 148.5 41Q127 77 127 120L127 648Q127 691 148.5 727Q170 763 206 784.5Q242 806 285 806ZM813 737L285 737Q248 737 222 711Q196 685 196 648L196 120Q196 83 222 57Q248 31 285 31L813 31Q850 31 876 57Q902 83 902 120L902 648Q902 685 876 711Q850 737 813 737ZM738 579Q747 589 761.5 590Q776 591 786.5 582Q797 573 798 559Q799 545 790 534L494 189Q484 177 467.5 177.5Q451 178 441 190L307 363Q301 370 300 379.5Q299 389 302 397.5Q305 406 312.5 411.5Q320 417 329 418Q338 419 346.5 416Q355 413 361 405L469 266Z" transform="translate(0 896) scale(1 -1)" fill="currentColor" /></svg>