<svg xmlns="http://www.w3.org/2000/svg" viewBox="0 0 1024 1024" fill="none"><path d="M520 -30Q483 -30 462 -26L459 -26Q410 -20 361 7Q321 29 284 63Q256 88 232 116Q215 136 212 142Q146 242 137 350Q129 447 168 538Q204 623 273 686Q342 749 429 777Q523 808 616 793Q720 776 810 703Q880 647 928 562Q953 517 971 466L973 460L973 457Q998 313 929 244Q884 201 805 195Q762 192 723 200Q694 205 672 183Q662 171 659.5 157Q657 143 662 132Q672 108 672.5 85.5Q673 63 665 48Q629 -30 520 -30ZM468 43L472 43Q587 24 616 91L616 101Q616 116 610 136Q602 158 607 184Q612 210 629 229Q660 269 722 264L725 264L742 262Q762 259 781 260Q809 260 831 267Q858 276 876 293Q924 341 905 451L905 452Q892 491 870 530Q828 605 767 653Q692 712 606 726Q528 738 450 712Q378 688 321.5 637Q265 586 235 519Q200 444 206 363Q212 270 269 181L284 162Q304 139 326 119Q356 91 389 73Q429 50 468 43ZM266 365Q266 345 280.5 330Q295 315 316.5 314.5Q338 314 353 329Q368 344 367.5 365Q367 386 352.5 401Q338 416 317 416.5Q296 417 281 402Q266 387 266 365ZM324 521Q324 501 339 485.5Q354 470 374.5 470.5Q395 471 410 485.5Q425 500 425 521Q425 542 410 556.5Q395 571 374.5 571Q354 571 339 556.5Q324 542 324 521ZM476 605Q476 585 491 570Q506 555 526.5 555Q547 555 562 570Q577 585 577.5 606Q578 627 563 641.5Q548 656 526.5 656Q505 656 490.5 641.5Q476 627 476 605ZM645 561Q645 541 660 526Q675 511 695.5 511Q716 511 731 526Q746 541 746.5 562Q747 583 732 598Q717 613 695.5 613Q674 613 659 598Q644 583 645 561ZM729 426Q729 406 744.5 391Q760 376 780.5 376Q801 376 815.5 391Q830 406 830 426.5Q830 447 815.5 461.5Q801 476 780 476Q759 476 744.5 461.5Q730 447 729 426Z" transform="translate(0 896) scale(1 -1)" fill="currentColor" /></svg>