<svg xmlns="http://www.w3.org/2000/svg" viewBox="0 0 1024 1024" fill="none"><path d="M141 709ZM188 709L280 709Q327 709 327 662L327 245Q327 199 280 199L188 199Q141 199 141 245L141 662Q141 709 188 709ZM141 129ZM176 129L292 129Q327 129 327 94L327 94Q327 59 292 59L176 59Q141 59 141 94L141 94Q141 129 176 129ZM419 709ZM466 709L558 709Q605 709 605 662L605 245Q605 199 558 199L466 199Q419 199 419 245L419 662Q419 709 466 709ZM419 129ZM454 129L570 129Q605 129 605 94L605 94Q605 59 570 59L454 59Q419 59 419 94L419 94Q419 129 454 129ZM697 709ZM744 709L836 709Q883 709 883 662L883 245Q883 199 836 199L744 199Q697 199 697 245L697 662Q697 709 744 709ZM697 129ZM732 129L848 129Q883 129 883 94L883 94Q883 59 848 59L732 59Q697 59 697 94L697 94Q697 129 732 129Z" transform="translate(0 896) scale(1 -1)" fill="currentColor" /></svg>