<svg xmlns="http://www.w3.org/2000/svg" viewBox="0 0 1024 1024" fill="none"><path d="M802 806Q845 806 881.5 784.5Q918 763 939.5 727Q961 691 961 648L961 120Q961 77 939.5 41Q918 5 881.5 -16.5Q845 -38 802 -38L275 -38Q232 -38 195.5 -16.5Q159 5 138 41Q117 77 117 120L117 648Q117 691 138 727Q159 763 195.5 784.5Q232 806 275 806ZM802 737L275 737Q238 737 211.5 711Q185 685 185 648L185 120Q185 83 211.5 57Q238 31 275 31L802 31Q839 31 865.5 57Q892 83 892 120L892 648Q892 685 865.5 711Q839 737 802 737ZM150 552L927 552L927 483L150 483ZM246 679ZM286 679L286 679Q325 679 325 640L325 640Q325 600 286 600L286 600Q246 600 246 640L246 640Q246 679 286 679ZM378 679ZM417 679L417 679Q457 679 457 640L457 640Q457 600 417 600L417 600Q378 600 378 640L378 640Q378 679 417 679ZM509 679ZM549 679L549 679Q588 679 588 640L588 640Q588 600 549 600L549 600Q509 600 509 640L509 640Q509 679 549 679ZM588 278ZM620 278L747 278Q778 278 778 247L778 247Q778 215 747 215L620 215Q588 215 588 247L588 247Q588 278 620 278ZM310 364Q319 374 332 375.5Q345 377 355 369L507 247L355 124Q348 119 339.5 117.5Q331 116 323.5 119.5Q316 123 310.5 129.5Q305 136 303.5 144.5Q302 153 305.5 160.5Q309 168 315 174L406 247L315 320Q306 327 304 338Q302 349 307 360Z" transform="translate(0 896) scale(1 -1)" fill="currentColor" /></svg>