<svg xmlns="http://www.w3.org/2000/svg" viewBox="0 0 1024 1024" fill="none"><path d="M113 708ZM146 708L528 708Q560 708 560 676L560 676Q560 644 528 644L146 644Q113 644 113 676L113 676Q113 708 146 708ZM716 708ZM748 708L875 708Q908 708 908 676L908 676Q908 644 875 644L748 644Q716 644 716 676L716 676Q716 708 748 708ZM461 441ZM493 441L875 441Q908 441 908 409L908 409Q908 377 875 377L493 377Q461 377 461 409L461 409Q461 441 493 441ZM461 174ZM493 174L875 174Q908 174 908 142L908 142Q908 109 875 109L493 109Q461 109 461 142L461 142Q461 174 493 174ZM684 800ZM716 800L716 800Q748 800 748 768L748 584Q748 552 716 552L716 552Q684 552 684 584L684 768Q684 800 716 800ZM113 441ZM146 441L273 441Q305 441 305 409L305 409Q305 377 273 377L146 377Q113 377 113 409L113 409Q113 441 146 441ZM273 533ZM305 533L305 533Q337 533 337 501L337 317Q337 285 305 285L305 285Q273 285 273 317L273 501Q273 533 305 533ZM113 174ZM146 174L314 174Q346 174 346 142L346 142Q346 109 314 109L146 109Q113 109 113 142L113 142Q113 174 146 174ZM461 266ZM493 266L493 266Q525 266 525 233L525 50Q525 18 493 18L493 18Q461 18 461 50L461 233Q461 266 493 266Z" transform="translate(0 896) scale(1 -1)" fill="currentColor" /></svg>