<svg xmlns="http://www.w3.org/2000/svg" viewBox="0 0 1024 1024" fill="none"><path d="M796 806Q839 806 875.5 784.5Q912 763 933 727Q954 691 954 648L954 120Q954 77 933 41Q912 5 875.5 -16.5Q839 -38 796 -38L269 -38Q226 -38 189.5 -16.5Q153 5 132 41Q111 77 111 120L111 648Q111 691 132 727Q153 763 189.5 784.5Q226 806 269 806ZM796 737L269 737Q232 737 205.5 711Q179 685 179 648L179 120Q179 83 205.5 57Q232 31 269 31L796 31Q833 31 859.5 57Q886 83 886 120L886 648Q886 685 859.5 711Q833 737 796 737ZM608 675Q644 675 667 648Q688 623 691 584Q692 576 689 568.5Q686 561 679 556Q672 551 664 550.5Q656 550 648.5 554Q641 558 636.5 565Q632 572 632 580Q632 592 625 604Q618 616 608 616Q595 616 583 594Q572 574 560 533L558 526Q552 505 547 484L547 483L600 483Q611 483 619 476Q627 469 629 458L629 453Q629 441 620.5 432Q612 423 600 423L532 423L468 163Q461 134 438.5 115Q416 96 388 95L384 93Q349 96 322.5 119Q296 142 288 176Q285 188 291 198.5Q297 209 308.5 212Q320 215 330.5 209.5Q341 204 344.5 193.5Q348 183 355 172Q368 152 385 152Q393 152 400 160Q407 168 411 179L471 424L404 423Q393 424 385.5 431Q378 438 376 448L376 453Q376 465 384 473.5Q392 482 404 483L485 483L500 540L503 550Q522 615 544 643Q568 675 608 675ZM616 375Q625 375 633.5 370.5Q642 366 647 358L680 314L714 358Q722 371 737 374L743 375Q756 376 765.5 367Q775 358 775 344.5Q775 331 766 322L720 268L767 213Q776 205 778 194L778 188Q779 174 769.5 165Q760 156 747 156L741 156Q725 159 716 173L679 221L643 173Q634 160 619 157L613 156Q600 155 590.5 164Q581 173 581 186.5Q581 200 590 209L639 267L595 318Q587 326 585 337L584 343Q584 357 593 366Q602 375 616 375Z" transform="translate(0 896) scale(1 -1)" fill="currentColor" /></svg>