<svg xmlns="http://www.w3.org/2000/svg" viewBox="0 0 1024 1024" fill="none"><path d="M589 707ZM619 707L863 707Q894 707 894 677L894 677Q894 646 863 646L619 646Q589 646 589 677L589 677Q589 707 619 707ZM652 526ZM682 526L863 526Q894 526 894 496L894 496Q894 466 863 466L682 466Q652 466 652 496L652 496Q652 526 682 526ZM723 346ZM753 346L863 346Q894 346 894 316L894 316Q894 285 863 285L753 285Q723 285 723 316L723 316Q723 346 753 346ZM789 165ZM819 165L863 165Q894 165 894 135L894 135Q894 105 863 105L819 105Q789 105 789 135L789 135Q789 165 819 165ZM435 759Q439 767 446.5 772Q454 777 463 777Q472 777 479.5 772Q487 767 490 759L765 76Q770 64 765.5 52.5Q761 41 749.5 36.5Q738 32 726.5 37Q715 42 710 53L463 668L212 53Q208 43 198 38Q188 33 177 35L173 37Q161 42 156.5 53.5Q152 65 157 76ZM268 351L646 351L646 290L268 290Z" transform="translate(0 896) scale(1 -1)" fill="currentColor" /></svg>