<svg xmlns="http://www.w3.org/2000/svg" viewBox="0 0 1024 1024" fill="none"><path d="M682 804Q723 804 757 784Q791 764 811 730Q831 696 831 655L831 456L767 456L767 655Q767 690 742 715Q717 740 682 740L285 740Q250 740 225.5 715Q201 690 201 655L201 159Q201 124 225.5 99.5Q250 75 285 75L466 75L466 10L285 10Q245 10 210.5 30Q176 50 156 84.5Q136 119 136 159L136 655Q136 696 156 730Q176 764 210.5 784Q245 804 285 804ZM268 629ZM300 629L633 629Q665 629 665 596L665 596Q665 564 633 564L300 564Q268 564 268 596L268 596Q268 629 300 629ZM268 453ZM300 453L509 453Q541 453 541 421L541 421Q541 389 509 389L300 389Q268 389 268 421L268 421Q268 453 300 453ZM268 277ZM300 277L395 277Q427 277 427 245L427 245Q427 213 395 213L300 213Q268 213 268 245L268 245Q268 277 300 277ZM637 415Q649 422 663.5 420.5Q678 419 688 409L690 407Q694 403 700 399Q711 391 717.5 391Q724 391 735 399Q741 403 745 407L747 409Q757 418 771.5 419.5Q786 421 798 415L838 392Q852 385 858 370Q864 355 859 340L858 338Q856 333 856 327Q856 314 865 304Q874 294 887 292L889 292Q904 290 914.5 279.5Q925 269 927 255L927 252Q930 235 930 218.5Q930 202 927 185L927 183Q925 168 914.5 158Q904 148 889 146L887 145Q874 144 865 133.5Q856 123 856 110Q856 105 858 99L859 97Q864 82 858 67Q852 52 838 45L798 22Q785 15 770.5 17Q756 19 745 30L744 31Q739 36 734 40Q722 48 715.5 48Q709 48 697 40Q692 36 687 31L686 30Q675 20 660.5 18Q646 16 633 23L595 45Q581 52 575 67Q569 82 574 97L575 99Q581 115 572 129.5Q563 144 546 145L544 146Q529 147 518.5 157.5Q508 168 506 183L506 185Q503 201 503 218.5Q503 236 506 252L506 254Q508 269 518.5 279.5Q529 290 544 291L546 292Q563 293 572 307.5Q581 322 575 337L574 340Q569 355 575 370Q581 385 595 393ZM662 363L626 343L626 342Q630 331 630 319Q630 291 611 269.5Q592 248 564 244L564 244L563 243Q561 231 561 219Q561 207 563 194L564 193L564 193Q592 189 611 168Q630 147 630 118Q630 106 626 95L626 94L659 75L660 76Q666 82 673 87Q696 104 715.5 104Q735 104 758 87Q765 82 772 75L772 75L807 94L807 95Q803 106 803 118Q803 146 821.5 167.5Q840 189 869 193L869 193L870 194Q872 206 872 218.5Q872 231 870 243L869 244L869 244Q840 248 821.5 269.5Q803 291 803 319Q803 331 807 342L807 343L772 362L772 362Q766 356 758 351Q737 336 717.5 336Q698 336 676 351Q669 356 662 362ZM716 293Q747 293 769 271Q791 249 791 218Q791 187 769 165.5Q747 144 716.5 144Q686 144 664 165.5Q642 187 642 218Q642 249 664 271Q686 293 716 293ZM716 243Q706 243 699 236Q692 229 692 218.5Q692 208 699 200.5Q706 193 716.5 193Q727 193 734 200.5Q741 208 741 218.5Q741 229 734 236Q727 243 716 243Z" transform="translate(0 896) scale(1 -1)" fill="currentColor" /></svg>