<svg xmlns="http://www.w3.org/2000/svg" viewBox="0 0 1024 1024" fill="none"><path d="M809 631Q835 631 858 618Q881 605 894.5 582Q908 559 908 532L908 87Q908 61 894.5 38Q881 15 858 1.5Q835 -12 809 -12L364 -12Q344 -12 326 -4Q308 4 294 17.5Q280 31 272.5 49.5Q265 68 265 87L265 532Q265 559 278 582Q291 605 314 618Q337 631 364 631ZM809 567L364 567Q349 567 339 557Q329 547 329 532L329 87Q329 73 339 63Q349 53 364 53L809 53Q823 53 833 63Q843 73 843 87L843 532Q843 547 833 557Q823 567 809 567ZM660 780Q680 780 698 772Q716 764 730 750.5Q744 737 751.5 718.5Q759 700 759 681L759 631L695 631L695 681Q695 695 685 705Q675 715 660 715L215 715Q201 715 191 705Q181 695 181 681L181 236Q181 221 191 211Q201 201 215 201L265 201L265 137L215 137Q196 137 177.5 144.5Q159 152 145.5 166Q132 180 124 198Q116 216 116 236L116 681Q116 700 124 718.5Q132 737 145.5 750.5Q159 764 177.5 772Q196 780 215 780ZM403 219ZM435 219L668 219Q700 219 700 187L700 187Q700 155 668 155L435 155Q403 155 403 187L403 187Q403 219 435 219ZM403 355ZM435 355L594 355Q626 355 626 323L626 323Q626 291 594 291L435 291Q403 291 403 323L403 323Q403 355 435 355ZM551 522ZM584 522L584 522Q616 522 616 490L616 490Q616 458 584 458L584 458Q551 458 551 490L551 490Q551 522 584 522ZM643 522ZM675 522L675 522Q707 522 707 490L707 490Q707 458 675 458L675 458Q643 458 643 490L643 490Q643 522 675 522ZM734 522ZM767 522L767 522Q799 522 799 490L799 490Q799 458 767 458L767 458Q734 458 734 490L734 490Q734 522 767 522Z" transform="translate(0 896) scale(1 -1)" fill="currentColor" /></svg>