<svg xmlns="http://www.w3.org/2000/svg" viewBox="0 0 1024 1024" fill="none"><path d="M780 753Q823 753 859.5 732Q896 711 917 674.5Q938 638 938 595L938 120Q938 77 917 41Q896 5 859.5 -16.5Q823 -38 780 -38L253 -38Q210 -38 173.5 -16.5Q137 5 116 41Q95 77 95 120L95 595Q95 638 116 674.5Q137 711 173.5 732Q210 753 253 753ZM780 685L253 685Q216 685 189.5 658.5Q163 632 163 595L163 120Q163 83 189.5 57Q216 31 253 31L780 31Q817 31 843.5 57Q870 83 870 120L870 595Q870 632 843.5 658.5Q817 685 780 685ZM130 558L907 558L907 489L130 489ZM332 806ZM366 806L366 806Q400 806 400 772L400 666Q400 632 366 632L366 632Q332 632 332 666L332 772Q332 806 366 806ZM632 806ZM667 806L667 806Q701 806 701 772L701 666Q701 632 667 632L667 632Q632 632 632 666L632 772Q632 806 667 806ZM610 374L710 273Q718 266 720 255Q722 244 717.5 234.5Q713 225 703.5 219.5Q694 214 683 215L350 215Q341 215 333 219.5Q325 224 320.5 232Q316 240 316 249Q316 258 320.5 266Q325 274 333 278.5Q341 283 350 283L603 283L561 326Q551 336 551 350Q551 364 561 374Q571 384 585.5 384Q600 384 610 374Z" transform="translate(0 896) scale(1 -1)" fill="currentColor" /></svg>