<svg xmlns="http://www.w3.org/2000/svg" viewBox="0 0 1024 1024" fill="none"><path d="M356 806ZM390 806L675 806Q709 806 709 772L709 772Q709 737 675 737L390 737Q356 737 356 772L356 772Q356 806 390 806ZM111 664ZM145 664L920 664Q954 664 954 630L954 630Q954 596 920 596L145 596Q111 596 111 630L111 630Q111 664 145 664ZM849 665L849 120Q849 77 827.5 41Q806 5 770 -16.5Q734 -38 691 -38L374 -38Q331 -38 295 -16.5Q259 5 237.5 41Q216 77 216 120L216 665ZM780 596L285 596L285 120Q285 85 308.5 59.5Q332 34 366 31L374 31L691 31Q728 31 754 57Q780 83 780 120ZM496 490ZM496 456L496 171Q496 137 462 137L462 137Q428 137 428 171L428 456Q428 490 462 490L462 490Q496 490 496 456ZM637 490ZM637 456L637 171Q637 137 603 137L603 137Q569 137 569 171L569 456Q569 490 603 490L603 490Q637 490 637 456Z" transform="translate(0 896) scale(1 -1)" fill="currentColor" /></svg>