<svg xmlns="http://www.w3.org/2000/svg" viewBox="0 0 1024 1024" fill="none"><path d="M526 779Q632 779 724 725.5Q816 672 869.5 580Q923 488 923 381.5Q923 275 869.5 183Q816 91 724 38Q632 -15 525 -15Q418 -15 325 39Q235 92 183 181Q129 274 129 382Q129 490 183 582Q235 672 325 725Q418 779 526 779ZM526 714Q435 714 358 669Q282 625 238 550Q193 472 193 381.5Q193 291 238 214Q282 139 358 95Q435 49 525.5 49Q616 49 693 95Q769 139 813 214Q858 291 858 381.5Q858 472 813 550Q769 625 693 669Q616 714 526 714ZM332 414ZM365 414L687 414Q719 414 719 382L719 382Q719 349 687 349L365 349Q332 349 332 382L332 382Q332 414 365 414Z" transform="translate(0 896) scale(1 -1)" fill="currentColor" /></svg>