<svg xmlns="http://www.w3.org/2000/svg" viewBox="0 0 1024 1024" fill="none"><path d="M803 806Q849 806 888 784.5Q927 763 949.5 727Q972 691 972 648L972 120Q972 77 949.5 41Q927 5 888 -16.5Q849 -38 803 -38L297 -38Q251 -38 212.5 -16.5Q174 5 151 41Q128 77 128 120L128 648Q128 691 151 727Q174 763 212.5 784.5Q251 806 297 806ZM807 737L294 737Q254 737 225.5 711Q197 685 197 648L197 120Q197 83 225.5 57Q254 31 294 31L807 31Q847 31 875.5 57Q904 83 904 120L904 648Q904 685 875.5 711Q847 737 807 737ZM162 552L933 552L933 483L162 483ZM258 679ZM297 679L297 679Q337 679 337 640L337 640Q337 600 297 600L297 600Q258 600 258 640L258 640Q258 679 297 679ZM389 679ZM429 679L429 679Q468 679 468 640L468 640Q468 600 429 600L429 600Q389 600 389 640L389 640Q389 679 429 679Z" transform="translate(0 896) scale(1 -1)" fill="currentColor" /></svg>