<svg xmlns="http://www.w3.org/2000/svg" viewBox="0 0 1024 1024" fill="none"><path d="M149 806ZM202 806L405 806Q458 806 458 753L458 344Q458 292 405 292L202 292Q149 292 149 344L149 753Q149 806 202 806ZM833 806Q855 806 870.5 790.5Q886 775 886 753L886 344Q886 323 870.5 307.5Q855 292 833 292L631 292Q609 292 593.5 307.5Q578 323 578 344L578 753Q578 775 593.5 790.5Q609 806 631 806ZM818 737L647 737L647 360L817 360L817 737ZM270 196Q272 193 272 190L272 116L920 116Q927 116 931.5 111Q936 106 936 100L936 63Q936 56 931.5 51.5Q927 47 920 47L272 47L272 -27Q272 -34 266 -36.5Q260 -39 255 -36L104 73Q100 76 100 81.5Q100 87 104 90L255 198Q259 201 263 200Q267 199 270 196Z" transform="translate(0 896) scale(1 -1)" fill="currentColor" /></svg>