<svg xmlns="http://www.w3.org/2000/svg" viewBox="0 0 1024 1024" fill="none"><path d="M116 713ZM149 713L875 713Q908 713 908 681L908 681Q908 649 875 649L149 649Q116 649 116 681L116 681Q116 713 149 713ZM116 416ZM149 416L282 416Q314 416 314 384L314 384Q314 352 282 352L149 352Q116 352 116 384L116 384Q116 416 149 416ZM413 416ZM445 416L579 416Q611 416 611 384L611 384Q611 352 579 352L445 352Q413 352 413 384L413 384Q413 416 445 416ZM710 416ZM742 416L875 416Q908 416 908 384L908 384Q908 352 875 352L742 352Q710 352 710 384L710 384Q710 416 742 416ZM116 120ZM149 120L875 120Q908 120 908 87L908 87Q908 55 875 55L149 55Q116 55 116 87L116 87Q116 120 149 120Z" transform="translate(0 896) scale(1 -1)" fill="currentColor" /></svg>