<svg xmlns="http://www.w3.org/2000/svg" viewBox="0 0 1024 1024" fill="none"><path d="M474 756Q487 755 496 745.5Q505 736 504.5 723Q504 710 495 701Q486 692 473 692L474 692L276 692Q241 692 216 667Q191 642 191 607L191 111Q191 76 216 51.5Q241 27 276 27L772 27Q807 27 831.5 51.5Q856 76 856 111L856 310Q857 318 861.5 325.5Q866 333 873.5 337Q881 341 889.5 341Q898 341 905.5 336.5Q913 332 917 324Q921 316 921 308L921 310L921 111Q921 71 901 36.5Q881 2 846.5 -18Q812 -38 772 -38L276 -38Q235 -38 201 -18Q167 2 147 36.5Q127 71 127 111L127 607Q127 648 147 682Q167 716 201 736Q235 756 276 756ZM890 770ZM913 747L913 747Q936 724 913 701L503 291Q480 268 457 291L457 291Q434 313 457 336L868 747Q890 770 913 747Z" transform="translate(0 896) scale(1 -1)" fill="currentColor" /></svg>