<svg xmlns="http://www.w3.org/2000/svg" viewBox="0 0 1024 1024" fill="none"><path d="M282 780Q295 780 304.5 770.5Q314 761 314 747.5Q314 734 304.5 724.5Q295 715 282 715L181 715L181 614Q181 605 176.5 597.5Q172 590 164.5 586Q157 582 148.5 582Q140 582 132.5 586Q125 590 120.5 597.5Q116 605 116 614L116 747Q116 759 124 768Q132 777 144 779L149 780ZM742 780Q729 780 719.5 770.5Q710 761 710 747.5Q710 734 719.5 724.5Q729 715 742 715L843 715L843 614Q843 601 852.5 591.5Q862 582 875.5 582Q889 582 898.5 591.5Q908 601 908 614L908 747Q908 759 900 768Q892 777 880 779L875 780ZM282 -12Q295 -12 304.5 -2.5Q314 7 314 20.5Q314 34 304.5 43.5Q295 53 282 53L181 53L181 154Q181 163 176.5 170.5Q172 178 164.5 182Q157 186 148.5 186Q140 186 132.5 182Q125 178 120.5 170.5Q116 163 116 154L116 21Q116 9 124 0Q132 -9 144 -11L149 -12ZM742 -12Q729 -12 719.5 -2.5Q710 7 710 20.5Q710 34 719.5 43.5Q729 53 742 53L843 53L843 154Q843 167 852.5 176.5Q862 186 875.5 186Q889 186 898.5 176.5Q908 167 908 154L908 21Q908 9 900 0Q892 -9 880 -11L875 -12ZM250 171ZM282 171L762 171Q794 171 794 139L794 139Q794 107 762 107L282 107Q250 107 250 139L250 139Q250 171 282 171ZM250 278ZM282 278L762 278Q794 278 794 246L794 246Q794 214 762 214L282 214Q250 214 250 246L250 246Q250 278 282 278ZM567 416ZM599 416L762 416Q794 416 794 384L794 384Q794 352 762 352L599 352Q567 352 567 384L567 384Q567 416 599 416ZM567 520ZM599 520L762 520Q794 520 794 488L794 488Q794 456 762 456L599 456Q567 456 567 488L567 488Q567 520 599 520ZM567 624ZM599 624L762 624Q794 624 794 592L794 592Q794 560 762 560L599 560Q567 560 567 592L567 592Q567 624 599 624ZM349 646L414 646L414 349L349 349ZM302 384ZM334 384L428 384Q461 384 461 352L461 352Q461 320 428 320L334 320Q302 320 302 352L302 352Q302 384 334 384ZM251 646ZM283 646L480 646Q512 646 512 614L512 614Q512 581 480 581L283 581Q251 581 251 614L251 614Q251 646 283 646ZM251 646ZM283 646L283 646Q315 646 315 614L315 574Q315 542 283 542L283 542Q251 542 251 574L251 614Q251 646 283 646ZM448 646ZM480 646L480 646Q512 646 512 614L512 574Q512 542 480 542L480 542Q448 542 448 574L448 614Q448 646 480 646Z" transform="translate(0 896) scale(1 -1)" fill="currentColor" /></svg>