<svg xmlns="http://www.w3.org/2000/svg" viewBox="0 0 1024 1024" fill="none"><path d="M759 780Q799 780 833.5 760Q868 740 888 705.5Q908 671 908 631L908 137Q908 97 888 62.5Q868 28 833.5 8Q799 -12 759 -12L364 -12Q309 -12 267.5 23.5Q226 59 217 112L283 112Q291 86 313.5 69.5Q336 53 364 53L759 53Q794 53 818.5 77.5Q843 102 843 137L843 631Q843 666 818.5 690.5Q794 715 759 715L364 715Q336 715 313.5 698.5Q291 682 283 656L217 656Q226 709 267.5 744.5Q309 780 364 780ZM512 606Q532 606 546.5 592Q561 578 561 557L561 211Q561 190 546.5 176Q532 162 512 162L166 162Q145 162 130.5 176Q116 190 116 211L116 557Q116 578 130.5 592Q145 606 166 606ZM325 497L240 497L303 371L240 271L296 271L328 321L353 271L438 271L375 397L438 497L381 497L350 447ZM597 543ZM612 543L770 543Q785 543 785 529L785 494Q785 479 770 479L612 479Q597 479 597 494L597 529Q597 543 612 543ZM597 416ZM612 416L770 416Q785 416 785 401L785 367Q785 352 770 352L612 352Q597 352 597 367L597 401Q597 416 612 416ZM597 289ZM612 289L770 289Q785 289 785 274L785 239Q785 225 770 225L612 225Q597 225 597 239L597 274Q597 289 612 289Z" transform="translate(0 896) scale(1 -1)" fill="currentColor" /></svg>