<svg xmlns="http://www.w3.org/2000/svg" viewBox="0 0 1024 1024" fill="none"><path d="M293 652L343 602Q275 558 232 497.5Q189 437 189 384Q189 341 219.5 291.5Q250 242 302 198.5Q354 155 415 129Q480 101 542 101Q598 101 657 124Q712 145 762 183L811 133Q753 87 687 61Q615 32 542 32Q460 32 380 68Q307 101 246 157Q188 210 154 271.5Q120 333 120 384Q120 447 167.5 521.5Q215 596 293 652ZM432 512L481 464Q463 450 452.5 429Q442 408 442 384Q442 357 455.5 334Q469 311 492 297.5Q515 284 542 284Q566 284 587 294.5Q608 305 622 323L670 274Q646 246 612.5 230.5Q579 215 542 215Q497 215 458 238Q419 261 396.5 299.5Q374 338 374 384Q374 422 389.5 455.5Q405 489 432 512ZM542 736Q626 736 706 700Q780 668 840 612Q898 559 931 497.5Q964 436 964 384Q964 323 918 251L869 299Q896 345 896 384Q896 428 865.5 478Q835 528 783.5 571Q732 614 672 640Q606 667 542 667Q524 667 504 665L445 723Q493 736 542 736ZM233 760Q243 770 257 770Q271 770 281 760L914 127Q920 121 922.5 112Q925 103 922.5 94Q920 85 913.5 78.5Q907 72 898.5 69.5Q890 67 881 69.5Q872 72 865 79L233 711Q223 721 223 735.5Q223 750 233 760Z" transform="translate(0 896) scale(1 -1)" fill="currentColor" /></svg>