<svg xmlns="http://www.w3.org/2000/svg" viewBox="0 0 1024 1024" fill="none"><path d="M781 806Q824 806 860 784.5Q896 763 917.5 727Q939 691 939 648L939 120Q939 77 917.5 41Q896 5 860 -16.5Q824 -38 781 -38L300 -38Q257 -38 221 -16.5Q185 5 163.5 41Q142 77 142 120L142 648Q142 691 163.5 727Q185 763 221 784.5Q257 806 300 806ZM664 242L364 242Q350 242 340 232Q330 222 330 207.5Q330 193 340 183Q350 173 364 173L664 173Q679 173 689 183Q699 193 699 207.5Q699 222 689 232Q679 242 664 242ZM580 430L364 430Q350 430 340 420Q330 410 330 396Q330 382 340 371.5Q350 361 364 361L580 361Q589 361 597 366Q605 371 609.5 379Q614 387 614 396Q614 405 609.5 413Q605 421 597 425.5Q589 430 580 430ZM717 618L364 618Q350 618 340 608Q330 598 330 584Q330 570 340 560Q350 550 364 550L717 550Q726 550 734 554.5Q742 559 746.5 567Q751 575 751 584Q751 593 746.5 601Q742 609 734 613.5Q726 618 717 618Z" transform="translate(0 896) scale(1 -1)" fill="currentColor" /></svg>