<svg xmlns="http://www.w3.org/2000/svg" viewBox="0 0 1024 1024" fill="none"><path d="M660 631Q687 631 710 618Q733 605 746 582Q759 559 759 532L759 87Q759 61 746 38Q733 15 710 1.5Q687 -12 660 -12L215 -12Q196 -12 177.5 -4Q159 4 145.5 17.5Q132 31 124 49.5Q116 68 116 87L116 532Q116 552 124 570Q132 588 145.5 602Q159 616 177.5 623.5Q196 631 215 631ZM660 567L215 567Q201 567 191 557Q181 547 181 532L181 87Q181 73 191 63Q201 53 215 53L660 53Q675 53 685 63Q695 73 695 87L695 532Q695 547 685 557Q675 567 660 567ZM280 234ZM312 234L544 234Q576 234 576 201L576 201Q576 169 544 169L312 169Q280 169 280 201L280 201Q280 234 312 234ZM280 357ZM312 357L470 357Q502 357 502 325L502 325Q502 292 470 292L312 292Q280 292 280 325L280 325Q280 357 312 357ZM280 480ZM312 480L406 480Q438 480 438 448L438 448Q438 416 406 416L312 416Q280 416 280 448L280 448Q280 480 312 480ZM809 780Q828 780 846.5 772Q865 764 878.5 750.5Q892 737 900 718.5Q908 700 908 681L908 483Q908 456 894.5 433.5Q881 411 858 397.5Q835 384 809 384L611 384Q591 384 573 391.5Q555 399 541 413Q527 427 519.5 445Q512 463 512 483L512 681Q512 707 525.5 730Q539 753 561.5 766.5Q584 780 611 780ZM809 715L611 715Q597 715 586.5 705Q576 695 576 681L576 483Q576 469 586.5 458.5Q597 448 611 448L809 448Q823 448 833 458.5Q843 469 843 483L843 681Q843 695 833 705Q823 715 809 715Z" transform="translate(0 896) scale(1 -1)" fill="currentColor" /></svg>