<svg xmlns="http://www.w3.org/2000/svg" viewBox="0 0 1024 1024" fill="none"><path d="M804 800Q847 800 883.5 778.5Q920 757 941.5 721Q963 685 963 642L963 120Q963 77 941.5 41Q920 5 883.5 -16.5Q847 -38 804 -38L277 -38Q234 -38 197.5 -16.5Q161 5 140 41Q119 77 119 120L119 642Q119 685 140 721Q161 757 197.5 778.5Q234 800 277 800ZM804 731L277 731Q240 731 213.5 705Q187 679 187 642L187 120Q187 83 213.5 57Q240 31 277 31L804 31Q842 31 868 57Q894 83 894 120L894 642Q894 679 868 705Q842 731 804 731ZM734 618Q767 618 790.5 595Q814 572 814 539L814 486Q814 454 790.5 430.5Q767 407 734 407L576 407Q543 407 520 430.5Q497 454 497 486L497 539Q497 572 520 595Q543 618 576 618ZM734 560L576 560Q568 560 561.5 554Q555 548 555 539L555 486Q555 478 561.5 471.5Q568 465 576 465L734 465Q743 465 749.5 471.5Q756 478 756 486L756 539Q756 548 749.5 554Q743 560 734 560ZM263 548ZM298 548L386 548Q421 548 421 513L421 513Q421 478 386 478L298 478Q263 478 263 513L263 513Q263 548 298 548ZM263 284ZM298 284L386 284Q421 284 421 249L421 249Q421 214 386 214L298 214Q263 214 263 249L263 249Q263 284 298 284ZM740 355Q772 355 795.5 331.5Q819 308 819 276L819 223Q819 190 795.5 167Q772 144 740 144L582 144Q549 144 525.5 167Q502 190 502 223L502 276Q502 308 525.5 331.5Q549 355 582 355ZM740 297L582 297Q573 297 566.5 290.5Q560 284 560 276L560 223Q560 214 566.5 208Q573 202 582 202L740 202Q748 202 754.5 208Q761 214 761 223L761 276Q761 284 754.5 290.5Q748 297 740 297Z" transform="translate(0 896) scale(1 -1)" fill="currentColor" /></svg>