<svg xmlns="http://www.w3.org/2000/svg" viewBox="0 0 1024 1024" fill="none"><path d="M934 149L934 120Q934 77 912.5 41Q891 5 855 -16.5Q819 -38 776 -38L248 -38Q205 -38 169 -16.5Q133 5 111.5 41Q90 77 90 120L90 149L159 149L159 120Q159 83 185 57Q211 31 248 31L776 31Q813 31 839 57Q865 83 865 120L865 149ZM776 806Q819 806 855 784.5Q891 763 912.5 727Q934 691 934 648L934 619L865 619L865 648Q865 685 839 711Q813 737 776 737L248 737Q211 737 185 711Q159 685 159 648L159 619L90 619L90 648Q90 691 111.5 727Q133 763 169 784.5Q205 806 248 806ZM234 500L234 415L148 415L148 500L96 500L96 279L148 279L148 372L234 372L234 279L286 279L286 500ZM310 457L367 457L367 279L420 279L420 457L477 457L477 500L310 500ZM592 279L653 279L691 461L694 461L694 279L744 279L744 500L653 500L622 338L592 500L501 500L501 279L551 279L551 461L554 461ZM782 500L782 279L924 279L924 321L834 321L834 500Z" transform="translate(0 896) scale(1 -1)" fill="currentColor" /></svg>