<svg xmlns="http://www.w3.org/2000/svg" viewBox="0 0 1024 1024" fill="none"><path d="M819 806Q862 806 898.5 784.5Q935 763 956 727Q977 691 977 648L977 120Q977 77 956 41Q935 5 898.5 -16.5Q862 -38 819 -38L292 -38Q249 -38 212.5 -16.5Q176 5 154.5 41Q133 77 133 120L133 648Q133 691 154.5 727Q176 763 212.5 784.5Q249 806 292 806ZM819 737L292 737Q255 737 228.5 711Q202 685 202 648L202 120Q202 83 228.5 57Q255 31 292 31L819 31Q856 31 882.5 57Q909 83 909 120L909 648Q909 685 882.5 711Q856 737 819 737ZM674 163L674 151L437 151L437 163L452 163Q472 163 484 170Q492 175 497 186Q501 194 501 229L501 527Q501 562 496.5 571.5Q492 581 481.5 586.5Q471 592 452 592L437 592L437 605L674 605L674 592L659 592Q639 592 627 585Q618 580 613 569Q610 562 610 527L610 229Q610 194 613.5 185Q617 176 628.5 169.5Q640 163 659 163Z" transform="translate(0 896) scale(1 -1)" fill="currentColor" /></svg>