<svg xmlns="http://www.w3.org/2000/svg" viewBox="0 0 1024 1024" fill="none"><path d="M806 780Q837 780 866 767.5Q895 755 917.5 733Q940 711 952 682Q964 653 964 621L964 147Q964 104 942.5 67.5Q921 31 885 9.5Q849 -12 806 -12L278 -12Q235 -12 199 9.5Q163 31 141.5 67.5Q120 104 120 147L120 621Q120 664 141.5 700.5Q163 737 199 758.5Q235 780 278 780ZM806 711L278 711Q241 711 215 684.5Q189 658 189 621L189 147Q189 110 215 83.5Q241 57 278 57L806 57Q843 57 869 83.5Q895 110 895 147L895 621Q895 658 869 684.5Q843 711 806 711ZM729 484Q796 484 858 459Q917 435 964 391L964 283Q923 350 852.5 385.5Q782 421 703.5 414Q625 407 562.5 359Q500 311 472 237L440 150L366 206Q330 234 287.5 248.5Q245 263 199 263Q159 263 120 251L120 322Q195 340 271 323.5Q347 307 408 260Q433 327 481.5 377.5Q530 428 594 456Q658 484 729 484ZM376 632Q402 632 424 619Q446 606 458.5 584Q471 562 471 536.5Q471 511 458.5 489Q446 467 424 454.5Q402 442 376 442Q337 442 309 470Q281 498 281 537Q281 576 309 604Q337 632 376 632ZM376 569Q363 569 353.5 559.5Q344 550 344 537Q344 524 353.5 514.5Q363 505 376 505Q389 505 398.5 514.5Q408 524 408 537Q408 550 398.5 559.5Q389 569 376 569Z" transform="translate(0 896) scale(1 -1)" fill="currentColor" /></svg>