<svg xmlns="http://www.w3.org/2000/svg" viewBox="0 0 1024 1024" fill="none"><path d="M534 241L540 241Q551 243 558 251L696 389Q706 399 706 413Q706 427 696 437Q686 447 672 447Q658 447 648 437L569 358L569 734Q569 748 558.5 758.5Q548 769 534 769Q520 769 510 758.5Q500 748 500 734L500 358L420 437Q410 447 396 447Q382 447 372 437Q362 427 362 413Q362 399 372 389L510 251Q520 241 534 241ZM154 -11Q139 -11 129 -1Q119 9 119 23L119 218Q119 228 124 236Q129 244 136.5 248.5Q144 253 153.5 253Q163 253 171 248.5Q179 244 183.5 236Q188 228 188 218L188 58L895 58L895 218Q895 233 905 243Q915 253 929 253Q943 253 953 243Q963 233 963 218L963 23Q963 11 955 1Q947 -9 934 -11L929 -11Z" transform="translate(0 896) scale(1 -1)" fill="currentColor" /></svg>