<svg xmlns="http://www.w3.org/2000/svg" viewBox="0 0 1024 1024" fill="none"><path d="M668 693L668 626L244 626Q214 626 192.5 604.5Q171 583 171 553L171 215Q171 185 192.5 163.5Q214 142 244 142L668 142L668 75L244 75Q206 75 173.5 93.5Q141 112 122 144.5Q103 177 103 215L103 553Q103 591 122 623.5Q141 656 173.5 674.5Q206 693 244 693ZM863 693Q901 693 933.5 674.5Q966 656 984.5 623.5Q1003 591 1003 553L1003 215Q1003 177 984.5 144.5Q966 112 933.5 93.5Q901 75 863 75L863 75L863 142Q893 142 914.5 163.5Q936 185 936 215L936 553Q936 583 914.5 604.5Q893 626 863 626L863 626ZM841 834Q856 834 867 823.5Q878 813 878 797.5Q878 782 867 771.5Q856 761 841 761L805 761L805 7L841 7Q856 7 867 -3.5Q878 -14 878 -29.5Q878 -45 867 -55.5Q856 -66 841 -66L689 -66Q674 -66 663.5 -55.5Q653 -45 653 -29.5Q653 -14 663.5 -3.5Q674 7 689 7L731 7L731 761L689 761Q674 761 663.5 771.5Q653 782 653 797.5Q653 813 663.5 823.5Q674 834 689 834ZM610 553Q634 553 650.5 536.5Q667 520 667 497L667 272Q667 248 650.5 231.5Q634 215 610 215L286 215Q263 215 246.5 231.5Q230 248 230 271L230 497Q230 520 246.5 536.5Q263 553 286 553ZM381 475L342 475L272 293L310 293L325 335L398 335L414 293L454 293ZM545 475L473 475L473 293L535 293Q569 294 579 295Q592 296 602.5 303.5Q613 311 619 322Q625 333 625 346Q625 361 615.5 373.5Q606 386 590 390Q602 395 609 405.5Q616 416 616 428Q616 440 610.5 449.5Q605 459 596.5 465Q588 471 578 473Q562 475 545 475ZM539 372Q564 372 571.5 369.5Q579 367 583 361Q587 355 587 346.5Q587 338 582 332Q577 326 569 325Q563 324 544 324L510 324L510 372ZM361 432L386 365L337 365ZM538 444Q557 444 562 444Q571 443 576 437.5Q581 432 581 424Q581 416 575 410Q569 404 560 403Q547 402 534 403L510 403L510 444Z" transform="translate(0 896) scale(1 -1)" fill="currentColor" /></svg>