<svg xmlns="http://www.w3.org/2000/svg" viewBox="0 0 1024 1024" fill="none"><path d="M776 806Q819 806 855 784.5Q891 763 912.5 727Q934 691 934 648L934 379L865 379L865 648Q865 685 839 711Q813 737 776 737L248 737Q211 737 185 711Q159 685 159 648L159 120Q159 83 185 57Q211 31 248 31L285 31L285 -38L248 -38Q205 -38 169 -16.5Q133 5 111.5 41Q90 77 90 120L90 648Q90 691 111.5 727Q133 763 169 784.5Q205 806 248 806ZM126 553L902 553L902 484L126 484ZM218 678ZM258 678L258 678Q297 678 297 639L297 639Q297 599 258 599L258 599Q218 599 218 639L218 639Q218 678 258 678ZM350 678ZM389 678L389 678Q429 678 429 639L429 639Q429 599 389 599L389 599Q350 599 350 639L350 639Q350 678 389 678ZM481 678ZM521 678L521 678Q560 678 560 639L560 639Q560 599 521 599L521 599Q481 599 481 639L481 639Q481 678 521 678ZM333 295L339 290L339 158Q339 132 329 116Q314 90 274 90Q234 90 220 111Q206 132 206 167L206 172L212 177L249 177L254 172L254 168Q255 147 258 140Q261 133 272 133Q283 133 285.5 138.5Q288 144 288 157L288 290L294 295ZM439 300Q471 300 494 283Q517 266 518 233L513 228L475 228L469 233Q469 247 458.5 252Q448 257 437 257Q423 257 415.5 252Q408 247 408 239.5Q408 232 414 228.5Q420 225 438 221L471 213Q493 208 505 198Q524 183 524 155Q524 127 502.5 108.5Q481 90 442.5 90Q404 90 381 108Q358 126 358 158L363 164L401 164L406 159Q408 148 412 142Q420 133 441 133Q454 133 462 135Q476 140 476 152Q476 159 470 162Q458 168 446 171L425 175Q395 182 383 190Q361 205 361 236Q361 264 381 282Q401 300 439 300ZM632 301Q675 301 698 277Q728 249 728 195.5Q728 142 698 113Q675 89 632 89Q589 89 566 113Q536 142 536 195.5Q536 249 566 277Q589 301 632 301ZM632 257Q612 257 599 241Q586 225 586 195Q586 165 599 149Q612 133 632.5 133Q653 133 665.5 149Q678 165 678 195Q678 225 665.5 241Q653 257 632 257ZM794 295L799 292L865 177L865 290L870 295L907 295L912 290L912 100L907 95L867 95L863 97L795 215L795 100L790 95L753 95L748 100L748 290L753 295Z" transform="translate(0 896) scale(1 -1)" fill="currentColor" /></svg>