<svg xmlns="http://www.w3.org/2000/svg" viewBox="0 0 1024 1024" fill="none"><path d="M543 806Q658 806 756 748Q851 692 907 597Q965 499 965 384Q965 269 907 171Q851 76 756 20Q658 -38 543.5 -38Q429 -38 330 20Q235 76 179 171Q121 269 121 384Q121 499 179 597Q235 692 330 748Q429 806 543 806ZM484 165L473 164L474 161Q488 107 508 69Q527 34 541 30L543 29Q556 29 576 66Q597 104 612 160L613 164L602 165Q543 173 484 165ZM408 148L397 145Q360 132 327 114L319 110L324 105Q372 68 430 48L446 43L443 51Q422 93 410 139ZM679 148L676 139Q664 93 644 51L640 43L656 48Q714 68 762 106L767 110L760 114Q726 132 690 145ZM896 350L705 350L705 332Q702 281 695 231L692 214L706 210Q757 193 804 166L816 158L821 165Q884 244 895 344ZM381 350L191 350L191 344Q203 244 265 165L270 158L283 166Q329 193 380 210L394 214L391 231Q384 281 381 332ZM638 350L448 350L449 331Q451 289 456 249L459 230L472 231Q543 241 614 232L627 230L630 249Q635 291 637 331ZM816 610L804 602Q757 575 706 558L692 554L696 530Q702 485 705 440L705 418L896 418L895 425Q884 524 821 603ZM459 538L456 519Q451 477 449 437L448 418L638 418L638 434Q636 480 629 525L627 538L614 536Q543 527 472 536ZM270 610L265 603Q203 525 191 426L191 418L381 418L382 440Q384 486 390 531L394 554L382 557Q328 575 280 604ZM613 604L612 607Q598 661 578 699Q559 734 546 738L543 739Q530 739 510 702Q489 664 474 608L473 604L484 603Q504 600 523 599L543 599Q582 599 621 606ZM446 725L430 720Q373 700 324 663L320 658L327 654Q361 636 397 623L407 620L410 629Q422 675 443 717ZM640 725L644 717Q663 679 676 629L679 620L690 623Q726 636 760 654L767 658L762 663Q714 700 656 720Z" transform="translate(0 896) scale(1 -1)" fill="currentColor" /></svg>