<svg xmlns="http://www.w3.org/2000/svg" viewBox="0 0 1024 1024" fill="none"><path d="M303 470Q338 505 384 521.5Q430 538 479 533.5Q528 529 570.5 504Q613 479 641 439L592 391Q575 422 545 442Q515 462 479.5 466.5Q444 471 410 459.5Q376 448 350 423L235 307Q205 278 194 238Q183 198 193.5 158Q204 118 233.5 89Q263 60 303 49.5Q343 39 383 49.5Q423 60 452 90L543 182L590 135L499 43Q456 1 399.5 -13.5Q343 -28 287 -13Q231 2 188.5 44Q146 86 131.5 142.5Q117 199 131.5 255.5Q146 312 187 354ZM558 725Q600 768 657.5 784Q715 800 772.5 784.5Q830 769 872 727Q914 685 929 627.5Q944 570 928 512.5Q912 455 870 414L754 298Q719 263 673 246.5Q627 230 578 234.5Q529 239 486.5 264Q444 289 416 329L465 377Q482 346 512 326Q542 306 577.5 301.5Q613 297 647 308.5Q681 320 707 345L823 461Q852 490 862.5 529.5Q873 569 862.5 609Q852 649 822.5 678.5Q793 708 753.5 718Q714 728 674.5 718Q635 708 605 678L514 586L467 633Z" transform="translate(0 896) scale(1 -1)" fill="currentColor" /></svg>