<svg xmlns="http://www.w3.org/2000/svg" viewBox="0 0 1024 1024" fill="none"><path d="M759 705Q799 705 833.5 685Q868 665 888 631Q908 597 908 557L908 211Q908 171 888 137Q868 103 833.5 83Q799 63 759 63L265 63Q225 63 190.5 83Q156 103 136 137Q116 171 116 211L116 557Q116 597 136 631Q156 665 190.5 685Q225 705 265 705ZM759 641L265 641Q230 641 205.5 616.5Q181 592 181 557L181 211Q181 176 205.5 151.5Q230 127 265 127L759 127Q794 127 818.5 151.5Q843 176 843 211L843 557Q843 592 818.5 616.5Q794 641 759 641ZM350 556L357 551L441 361L523 551L530 556L575 556L583 548L583 232L575 224L527 224L520 232L520 396L467 274L460 270L420 270L413 274L360 396L360 232L353 224L305 224L297 232L297 548L305 556ZM687 557Q701 557 710 547.5Q719 538 719 524L719 291L743 291L744 290Q748 287 745 283L691 216Q690 214 687.5 214Q685 214 683 216L629 283Q627 285 628.5 288Q630 291 633 291L655 291L655 524Q655 538 664.5 547.5Q674 557 687 557Z" transform="translate(0 896) scale(1 -1)" fill="currentColor" /></svg>