<svg xmlns="http://www.w3.org/2000/svg" viewBox="0 0 1024 1024" fill="none"><path d="M858 693Q896 693 928.5 674.5Q961 656 980 623.5Q999 591 999 553L999 215Q999 177 980 144.5Q961 112 928.5 93.5Q896 75 858 75L239 75Q201 75 168.5 93.5Q136 112 117.5 144.5Q99 177 99 215L99 553Q99 591 117.5 623.5Q136 656 168.5 674.5Q201 693 239 693ZM858 626L239 626Q209 626 187.5 604.5Q166 583 166 553L166 215Q166 185 187.5 163.5Q209 142 239 142L858 142Q888 142 909.5 163.5Q931 185 931 215L931 553Q931 583 909.5 604.5Q888 626 858 626ZM440 461L478 461L459 358L458 350Q456 339 456 336Q456 325 464 325Q480 325 495 348Q510 371 510 401Q510 503 400 503Q348 503 312 470.5Q276 438 276 383Q276 328 315 296Q354 264 409 264Q456 264 477 280L511 253Q460 226 403 226Q371 226 340.5 237.5Q310 249 287 272Q237 318 237 384Q237 450 286.5 496Q336 542 402 542Q468 542 508.5 503.5Q549 465 549 414Q549 363 517 328.5Q485 294 453 294Q432 294 432 324Q406 299 377 299Q351 299 333 320Q315 341 315 369Q315 405 338 432.5Q361 460 392 460Q423 460 435 436ZM394 420Q379 420 366.5 405.5Q354 391 355 372Q355 329 381 329Q401 329 413 348.5Q425 368 425 385L425 389Q425 403 416 411.5Q407 420 394 420Z" transform="translate(0 896) scale(1 -1)" fill="currentColor" /></svg>