<svg xmlns="http://www.w3.org/2000/svg" viewBox="0 0 1024 1024" fill="none"><path d="M210 727ZM131 727Q131 706 141.5 687.5Q152 669 170.5 658.5Q189 648 210 648Q231 648 249.5 658.5Q268 669 278.5 687.5Q289 706 289 727Q289 748 278.5 766.5Q268 785 249.5 795.5Q231 806 210 806Q189 806 170.5 795.5Q152 785 141.5 766.5Q131 748 131 727ZM553 727ZM474 727Q474 706 484.5 687.5Q495 669 513.5 658.5Q532 648 553 648Q574 648 592.5 658.5Q611 669 621.5 687.5Q632 706 632 727Q632 748 621.5 766.5Q611 785 592.5 795.5Q574 806 553 806Q532 806 513.5 795.5Q495 785 484.5 766.5Q474 748 474 727ZM896 727ZM816 727Q816 706 827 687.5Q838 669 856 658.5Q874 648 895.5 648Q917 648 935 658.5Q953 669 964 687.5Q975 706 975 727Q975 748 964 766.5Q953 785 935 795.5Q917 806 895.5 806Q874 806 856 795.5Q838 785 827 766.5Q816 748 816 727ZM210 384ZM131 384Q131 363 141.5 344.5Q152 326 170.5 315.5Q189 305 210 305Q231 305 249.5 315.5Q268 326 278.5 344.5Q289 363 289 384Q289 405 278.5 423.5Q268 442 249.5 452.5Q231 463 210 463Q189 463 170.5 452.5Q152 442 141.5 423.5Q131 405 131 384ZM553 384ZM474 384Q474 363 484.5 344.5Q495 326 513.5 315.5Q532 305 553 305Q574 305 592.5 315.5Q611 326 621.5 344.5Q632 363 632 384Q632 405 621.5 423.5Q611 442 592.5 452.5Q574 463 553 463Q532 463 513.5 452.5Q495 442 484.5 423.5Q474 405 474 384ZM896 384ZM816 384Q816 363 827 344.5Q838 326 856 315.5Q874 305 895.5 305Q917 305 935 315.5Q953 326 964 344.5Q975 363 975 384Q975 405 964 423.5Q953 442 935 452.5Q917 463 895.5 463Q874 463 856 452.5Q838 442 827 423.5Q816 405 816 384ZM210 41ZM131 41Q131 20 141.5 1.5Q152 -17 170.5 -27.5Q189 -38 210 -38Q231 -38 249.5 -27.5Q268 -17 278.5 1.5Q289 20 289 41Q289 62 278.5 80.5Q268 99 249.5 109.5Q231 120 210 120Q189 120 170.5 109.5Q152 99 141.5 80.5Q131 62 131 41ZM553 41ZM474 41Q474 20 484.5 1.5Q495 -17 513.5 -27.5Q532 -38 553 -38Q574 -38 592.5 -27.5Q611 -17 621.5 1.5Q632 20 632 41Q632 62 621.5 80.5Q611 99 592.5 109.5Q574 120 553 120Q532 120 513.5 109.5Q495 99 484.5 80.5Q474 62 474 41ZM896 41ZM816 41Q816 20 827 1.5Q838 -17 856 -27.5Q874 -38 895.5 -38Q917 -38 935 -27.5Q953 -17 964 1.5Q975 20 975 41Q975 62 964 80.5Q953 99 935 109.5Q917 120 895.5 120Q874 120 856 109.5Q838 99 827 80.5Q816 62 816 41Z" transform="translate(0 896) scale(1 -1)" fill="currentColor" /></svg>