<svg xmlns="http://www.w3.org/2000/svg" viewBox="0 0 1024 1024" fill="none"><path d="M409 780Q429 780 447 772Q465 764 479 750.5Q493 737 500.5 718.5Q508 700 508 681L508 506Q508 486 500.5 468Q493 450 479 436Q465 422 447 414.5Q429 407 409 407L235 407Q215 407 197 414.5Q179 422 165 436Q151 450 143.5 468Q136 486 136 506L136 681Q136 707 149.5 730Q163 753 185.5 766.5Q208 780 235 780L410 780ZM409 715L235 715Q221 715 210.5 705Q200 695 200 681L200 506Q200 492 210.5 482Q221 472 235 472L410 472Q424 472 434 482Q444 492 444 506L444 681Q444 695 434 705Q424 715 410 715ZM828 780Q848 780 866 772Q884 764 898 750.5Q912 737 919.5 718.5Q927 700 927 681L927 506Q927 479 914 456.5Q901 434 878 420.5Q855 407 828 407L654 407Q627 407 604 420.5Q581 434 568 456.5Q555 479 555 506L555 681Q555 707 568 730Q581 753 604 766.5Q627 780 654 780ZM828 715L654 715Q639 715 629 705Q619 695 619 681L619 506Q619 492 629 482Q639 472 654 472L828 472Q843 472 853 482Q863 492 863 506L863 681Q863 695 853 705Q843 715 828 715ZM409 361Q429 361 447 353.5Q465 346 479 332Q493 318 500.5 300Q508 282 508 262L508 87Q508 68 500.5 49.5Q493 31 479 17.5Q465 4 447 -4Q429 -12 409 -12L235 -12Q215 -12 197 -4Q179 4 165 17.5Q151 31 143.5 49.5Q136 68 136 87L136 262Q136 282 143.5 300Q151 318 165 332Q179 346 197 353.5Q215 361 235 361L410 361ZM409 296L235 296Q221 296 210.5 286Q200 276 200 262L200 87Q200 73 210.5 63Q221 53 235 53L410 53Q424 53 434 63Q444 73 444 87L444 262Q444 276 434 286Q424 296 410 296ZM828 361Q855 361 878 347.5Q901 334 914 311.5Q927 289 927 262L927 87Q927 61 914 38Q901 15 878 1.5Q855 -12 828 -12L654 -12Q627 -12 604 1.5Q581 15 568 38Q555 61 555 87L555 262Q555 289 568 311.5Q581 334 604 347.5Q627 361 654 361ZM828 296L654 296Q639 296 629 286Q619 276 619 262L619 87Q619 73 629 63Q639 53 654 53L828 53Q843 53 853 63Q863 73 863 87L863 262Q863 276 853 286Q843 296 828 296Z" transform="translate(0 896) scale(1 -1)" fill="currentColor" /></svg>