<svg xmlns="http://www.w3.org/2000/svg" viewBox="0 0 1024 1024" fill="none"><path d="M211 384ZM132 384Q132 363 142.5 344.5Q153 326 171.5 315.5Q190 305 211 305Q232 305 250.5 315.5Q269 326 279.5 344.5Q290 363 290 384Q290 405 279.5 423.5Q269 442 250.5 452.5Q232 463 211 463Q190 463 171.5 452.5Q153 442 142.5 423.5Q132 405 132 384ZM554 384ZM475 384Q475 363 485.5 344.5Q496 326 514.5 315.5Q533 305 554 305Q575 305 593.5 315.5Q612 326 622.5 344.5Q633 363 633 384Q633 405 622.5 423.5Q612 442 593.5 452.5Q575 463 554 463Q533 463 514.5 452.5Q496 442 485.5 423.5Q475 405 475 384ZM897 384ZM818 384Q818 363 828.5 344.5Q839 326 857.5 315.5Q876 305 897 305Q918 305 936.5 315.5Q955 326 965.5 344.5Q976 363 976 384Q976 405 965.5 423.5Q955 442 936.5 452.5Q918 463 897 463Q876 463 857.5 452.5Q839 442 828.5 423.5Q818 405 818 384Z" transform="translate(0 896) scale(1 -1)" fill="currentColor" /></svg>