<svg xmlns="http://www.w3.org/2000/svg" viewBox="0 0 1024 1024" fill="none"><path d="M548 825Q549 824 550 824L674 674Q679 668 676 662Q673 656 666 656L578 656L578 421L813 421L813 509Q813 516 819.5 519Q826 522 831 517L981 393Q985 389 985 384Q985 379 981 375L831 251Q826 246 819.5 249Q813 252 813 259L813 347L578 347L578 112L666 112Q668 112 671 111L673 110Q677 107 677 102.5Q677 98 674 94L550 -56Q546 -60 541 -60Q536 -60 532 -56L408 94Q403 99 406 105.5Q409 112 417 112L505 112L505 348L270 347L270 259Q270 257 268 254L267 252Q264 249 259.5 248.5Q255 248 251 251L102 375Q97 379 97 384Q97 389 102 393L251 517Q257 522 263.5 519Q270 516 270 509L270 421L504 421L504 656L417 656Q409 656 406 662.5Q403 669 408 674L532 824Q535 827 540 827.5Q545 828 548 825Z" transform="translate(0 896) scale(1 -1)" fill="currentColor" /></svg>