<svg xmlns="http://www.w3.org/2000/svg" viewBox="0 0 1024 1024" fill="none"><path d="M407 806Q416 806 424 801.5Q432 797 436.5 789Q441 781 441 771.5Q441 762 436.5 754.5Q432 747 424 742Q416 737 407 737L186 737L186 516Q186 502 176 492Q166 482 152 482Q138 482 127.5 492Q117 502 117 516L117 772Q117 784 125.5 794Q134 804 147 805L152 806ZM672 -38Q657 -38 647 -28Q637 -18 637 -3.5Q637 11 647 21Q657 31 672 31L893 31L893 252Q893 266 903 276Q913 286 927 286Q941 286 951 276Q961 266 961 252L961 -4Q961 -16 953 -26Q945 -36 932 -38L927 -38ZM152 286Q166 286 176 276Q186 266 186 252L186 79L380 273Q387 280 395.5 282.5Q404 285 413 282.5Q422 280 428.5 273.5Q435 267 437.5 258Q440 249 437.5 240Q435 231 429 225L234 31L407 31Q420 31 429.5 22.5Q439 14 441 1L441 -4Q441 -18 431 -28Q421 -38 407 -38L152 -38L147 -38Q134 -36 125.5 -26Q117 -16 117 -4L117 252Q117 266 127.5 276Q138 286 152 286ZM927 482Q913 482 903 492Q893 502 893 516L893 689L699 495Q692 488 683 485.5Q674 483 665.5 485.5Q657 488 650.5 494.5Q644 501 641.5 510Q639 519 641.5 528Q644 537 650 543L844 737L672 737Q659 737 649.5 745.5Q640 754 638 766L637 772Q637 786 647 796Q657 806 672 806L927 806L932 806Q945 804 953 794Q961 784 961 772L961 516Q961 502 951 492Q941 482 927 482Z" transform="translate(0 896) scale(1 -1)" fill="currentColor" /></svg>