<svg xmlns="http://www.w3.org/2000/svg" viewBox="0 0 1024 1024" fill="none"><path d="M415 770Q455 770 490 752Q525 734 548 703Q572 734 607.5 752Q643 770 682 770L852 770Q887 770 912 744Q937 718 937 682L937 156Q937 120 912 94Q887 68 852 68L675 68Q643 66 617.5 47Q592 28 580 -2L517 -2Q505 28 479.5 47Q454 66 422 68L244 68Q209 68 184 94Q159 120 159 156L159 682Q159 718 184 744Q209 770 244 770ZM415 708L244 708Q234 708 226.5 700.5Q219 693 219 682L219 156Q219 147 225 139.5Q231 132 240 130L244 130L415 130Q472 130 517 95L517 638Q505 668 479.5 687Q454 706 422 708ZM852 708L682 708L675 708Q643 706 617 687Q591 668 580 638L580 95Q621 127 673 130L852 130L857 130Q866 132 872 139.5Q878 147 878 156L878 682Q878 693 870.5 700.5Q863 708 852 708Z" transform="translate(0 896) scale(1 -1)" fill="currentColor" /></svg>