<svg xmlns="http://www.w3.org/2000/svg" viewBox="0 0 1024 1024" fill="none"><path d="M809 681Q835 681 858 667.5Q881 654 894.5 631.5Q908 609 908 582L908 236Q908 209 894.5 186Q881 163 858 150Q835 137 809 137L710 137L710 201L809 201Q823 201 833 211Q843 221 843 236L843 582Q843 596 833 606Q823 616 809 616L710 616L710 681ZM512 616L215 616Q201 616 191 606Q181 596 181 582L181 236Q181 221 191 211Q201 201 215 201L512 201L512 137L215 137Q196 137 177.5 144.5Q159 152 145.5 166Q132 180 124 198Q116 216 116 236L116 582Q116 601 124 619.5Q132 638 145.5 652Q159 666 177.5 673.5Q196 681 215 681L512 681ZM512 53ZM544 53L678 53Q710 53 710 21L710 21Q710 -12 678 -12L544 -12Q512 -12 512 21L512 21Q512 53 544 53ZM512 780ZM544 780L678 780Q710 780 710 747L710 747Q710 715 678 715L544 715Q512 715 512 747L512 747Q512 780 544 780ZM581 730L645 730L645 38L581 38ZM272 341L301 320L320 355L339 320L368 341L340 370L380 377L368 411L332 394L338 433L302 433L307 394L272 411L260 377L300 370ZM409 341L438 320L457 355L476 320L505 341L477 370L517 377L505 411L469 394L475 433L439 433L444 394L409 411L397 377L437 370Z" transform="translate(0 896) scale(1 -1)" fill="currentColor" /></svg>