<svg xmlns="http://www.w3.org/2000/svg" viewBox="0 0 1024 1024" fill="none"><path d="M202 120L202 31L265 31L265 -38L159 -38L159 15L133 15L133 120ZM449 -38L344 -38L344 31L463 31Q576 34 673 89Q769 142 830 233Q892 325 905 437L908 437L908 542L977 542L977 437L974 437L973 423Q956 296 884 190Q812 87 703 27Q589 -35 459 -38ZM202 305L202 199L133 199L133 305ZM202 489L202 384L133 384L133 489ZM202 674L202 569L133 569L133 674ZM977 727L977 621L908 621L908 727ZM238 806L238 737L133 737L133 806ZM423 806L423 737L318 737L318 806ZM608 806L608 737L502 737L502 806ZM792 806L792 737L687 737L687 806ZM977 806L977 737L871 737L871 806Z" transform="translate(0 896) scale(1 -1)" fill="currentColor" /></svg>