<svg xmlns="http://www.w3.org/2000/svg" viewBox="0 0 1024 1024" fill="none"><path d="M530 806Q645 806 743 748Q839 692 895 597Q952 499 952 384Q952 269 895 171Q839 76 743 20Q645 -38 530.5 -38Q416 -38 318 20Q222 76 166 171Q109 269 109 384Q109 499 166 597Q222 692 318 748Q416 806 530 806ZM530 737Q436 737 354 690Q272 643 224.5 561Q177 479 177 384Q177 289 224.5 207Q272 125 354 78Q436 31 531 31Q626 31 709 79Q789 126 836 206Q884 288 884 384Q884 480 836 562Q789 642 709 689Q626 737 530 737ZM530 648Q602 648 662.5 612.5Q723 577 758.5 516.5Q794 456 794 384Q794 312 758.5 251.5Q723 191 662.5 155.5Q602 120 530.5 120Q459 120 398.5 155.5Q338 191 302.5 251.5Q267 312 267 384Q267 456 302.5 516.5Q338 577 398.5 612.5Q459 648 530 648ZM530 579Q478 579 433 553Q388 527 361.5 481.5Q335 436 335 384Q335 332 361.5 286.5Q388 241 433 215Q478 189 530.5 189Q583 189 628 215Q673 241 699.5 286Q726 331 726 384Q726 437 699.5 482Q673 527 628 553Q583 579 530 579Z" transform="translate(0 896) scale(1 -1)" fill="currentColor" /></svg>