<svg xmlns="http://www.w3.org/2000/svg" viewBox="0 0 1024 1024" fill="none"><path d="M595 800Q611 793 619 776L715 583Q720 571 730.5 563.5Q741 556 754 554L968 523Q983 521 994.5 511.5Q1006 502 1010.5 487.5Q1015 473 1011.5 458.5Q1008 444 997 433L842 283Q833 274 829 261.5Q825 249 827 236L864 24Q866 9 860.5 -5Q855 -19 843 -28Q831 -37 816 -38Q801 -39 787 -32L596 68Q585 75 572 75Q559 75 547 68L357 -32Q343 -39 328 -38Q313 -37 301 -28Q289 -19 283.5 -5Q278 9 280 24L317 236Q319 249 315 261.5Q311 274 301 283L147 433Q136 444 132.5 458.5Q129 473 133.5 487.5Q138 502 149.5 511.5Q161 521 176 523L390 554Q402 556 412.5 563.5Q423 571 429 583L525 776Q534 796 555 803Q576 810 595 800ZM572 717L491 553Q477 526 453 508.5Q429 491 399 486L218 460L349 332Q369 313 378.5 287Q388 261 385 234L384 225L353 44L515 129Q540 142 567 143Q594 144 619 133L628 129L791 44L760 225Q755 252 762.5 278.5Q770 305 788 325L795 332L926 460L744 486Q717 490 694 505.5Q671 521 657 545Z" transform="translate(0 896) scale(1 -1)" fill="currentColor" /></svg>