<svg xmlns="http://www.w3.org/2000/svg" viewBox="0 0 1024 1024" fill="none"><path d="M535 806Q650 806 748 748Q844 692 899 597Q957 499 957 384L888 384Q889 465 854 537Q819 609 757 659Q695 709 616.5 728Q538 747 460 729.5Q382 712 318.5 663.5Q255 615 219 542L144 542Q176 621 235.5 681Q295 741 372.5 773.5Q450 806 535 806ZM182 720L182 552L342 552L342 484L166 484Q144 484 129 499Q114 514 114 536L114 720ZM535 -38Q421 -38 323 20Q227 76 171 171Q114 270 114 384L182 384Q182 303 217 231Q252 159 313.5 109Q375 59 454 40.5Q533 22 611 39Q689 56 752 105Q815 154 851 226L927 226Q895 147 835.5 87.5Q776 28 698.5 -5Q621 -38 535 -38ZM888 48L888 216L728 216L728 285L904 285Q926 285 941.5 269.5Q957 254 957 232L957 48Z" transform="translate(0 896) scale(1 -1)" fill="currentColor" /></svg>