<svg xmlns="http://www.w3.org/2000/svg" viewBox="0 0 1024 1024" fill="none"><path d="M760 800Q801 800 835 780Q869 760 889 726Q909 692 909 651L909 155Q909 125 897.5 98Q886 71 865.5 50Q845 29 817.5 17.5Q790 6 760 6L264 6Q234 6 206.5 17.5Q179 29 158.5 50Q138 71 126.5 98Q115 125 115 155L115 651Q115 692 135 726Q155 760 189 780Q223 800 264 800ZM760 736L264 736Q229 736 204 711Q179 686 179 651L179 155Q179 120 204 95.5Q229 71 264 71L760 71Q795 71 820 95.5Q845 120 845 155L845 651Q845 686 820 711Q795 736 760 736ZM394 521Q404 511 404 498Q404 485 394 475L323 403L394 331Q404 322 404 308.5Q404 295 394.5 285.5Q385 276 371.5 276Q358 276 349 286L254 380Q245 390 245 403.5Q245 417 254 426L349 521Q358 530 371.5 530Q385 530 394 521ZM630 521Q620 511 620 498Q620 485 630 475L701 403L630 331Q620 322 620 308.5Q620 295 629.5 285.5Q639 276 652.5 276Q666 276 675 286L770 380Q779 390 779 403.5Q779 417 770 426L675 521Q666 530 652.5 530Q639 530 630 521ZM539 633L544 632Q557 630 565 619.5Q573 609 571 596L517 213Q515 200 504 192Q493 184 480 185.5Q467 187 459 198Q451 209 453 222L507 605Q509 618 520 626Q531 634 544 632Z" transform="translate(0 896) scale(1 -1)" fill="currentColor" /></svg>