<svg xmlns="http://www.w3.org/2000/svg" viewBox="0 0 1024 1024" fill="none"><path d="M802 780Q834 780 863 767.5Q892 755 914.5 733Q937 711 949 682Q961 653 961 621L961 147Q961 104 939.5 67.5Q918 31 881.5 9.5Q845 -12 802 -12L275 -12Q232 -12 195.5 9.5Q159 31 138 67.5Q117 104 117 147L117 621Q117 664 138 700.5Q159 737 195.5 758.5Q232 780 275 780ZM802 711L275 711Q238 711 211.5 684.5Q185 658 185 621L185 147Q185 110 211.5 83.5Q238 57 275 57L802 57Q840 57 866 83.5Q892 110 892 147L892 621Q892 658 866 684.5Q840 711 802 711ZM395 299Q405 309 419.5 309Q434 309 444 299L539 204L634 299Q644 309 658 309Q672 309 682 299Q692 289 692 275Q692 261 682 251L563 132Q553 121 539 121Q525 121 514 131L395 251Q385 261 385 275Q385 289 395 299ZM682 469Q672 459 658 459Q644 459 634 469L539 564L444 469Q434 459 419.5 459Q405 459 395 469Q385 479 385 493Q385 507 395 517L514 636Q524 647 538.5 647Q553 647 563 637L682 517Q692 507 692 493Q692 479 682 469ZM433 418ZM468 418L610 418Q644 418 644 384L644 384Q644 350 610 350L468 350Q433 350 433 384L433 384Q433 418 468 418Z" transform="translate(0 896) scale(1 -1)" fill="currentColor" /></svg>