<svg xmlns="http://www.w3.org/2000/svg" viewBox="0 0 1024 1024" fill="none"><path d="M927 768L927 -12L147 -12L147 768ZM864 705L210 705L210 51L864 51ZM744 215L916 43L882 9L710 181ZM761 372L927 206L893 171L726 338ZM759 547L917 389L883 354L724 513ZM762 718L921 559L886 525L728 684ZM587 199L754 33L720 -2L553 165ZM412 201L571 42L537 8L378 167ZM244 199L411 33L376 -2L210 165ZM771 768L771 144L147 144L147 768ZM708 705L210 705L210 207L708 207Z" transform="translate(0 896) scale(1 -1)" fill="currentColor" /></svg>