<svg xmlns="http://www.w3.org/2000/svg" viewBox="0 0 1024 1024" fill="none"><path d="M759 780Q799 780 833.5 760Q868 740 888 706Q908 672 908 631L908 137Q908 97 888 62.5Q868 28 833.5 8.5Q799 -11 759 -11L265 -11Q225 -11 190.5 8.5Q156 28 136 62.5Q116 97 116 137L116 631Q116 672 136 706Q156 740 190.5 760Q225 780 265 780ZM759 715L265 715Q230 715 205.5 690.5Q181 666 181 631L181 137Q181 102 205.5 77.5Q230 53 265 53L759 53Q794 53 818.5 77.5Q843 102 843 137L843 631Q843 666 818.5 690.5Q794 715 759 715ZM339 586ZM371 586L653 586Q685 586 685 553L685 553Q685 521 653 521L371 521Q339 521 339 553L339 553Q339 586 371 586ZM544 529L544 215Q544 206 540 198.5Q536 191 528.5 187Q521 183 512 183Q503 183 495.5 187Q488 191 484 198.5Q480 206 480 215L480 529Z" transform="translate(0 896) scale(1 -1)" fill="currentColor" /></svg>