<svg xmlns="http://www.w3.org/2000/svg" viewBox="0 0 1024 1024" fill="none"><path d="M240 53ZM272 53L752 53Q784 53 784 21L784 21Q784 -12 752 -12L272 -12Q240 -12 240 21L240 21Q240 53 272 53ZM809 780Q828 780 846.5 772Q865 764 878.5 750.5Q892 737 900 718.5Q908 700 908 681L908 236Q908 209 894.5 186Q881 163 858 150Q835 137 809 137L215 137Q196 137 177.5 144.5Q159 152 145.5 166Q132 180 124 198Q116 216 116 236L116 681Q116 700 124 718.5Q132 737 145.5 750.5Q159 764 177.5 772Q196 780 215 780ZM809 715L215 715Q201 715 191 705Q181 695 181 681L181 236Q181 221 191 211Q201 201 215 201L809 201Q823 201 833 211Q843 221 843 236L843 681Q843 695 833 705Q823 715 809 715ZM255 473Q314 572 385 572.5Q456 573 525 475Q575 403 620.5 403Q666 403 720 476Q724 482 731.5 485.5Q739 489 747 488Q755 487 761.5 482.5Q768 478 771 470.5Q774 463 773 455Q772 447 767 441Q696 344 620 344Q544 344 476 441Q442 490 414 505.5Q386 521 360 506Q334 491 306 443Q299 432 287.5 429Q276 426 265.5 432.5Q255 439 252 451Q249 463 255 473Z" transform="translate(0 896) scale(1 -1)" fill="currentColor" /></svg>