<svg xmlns="http://www.w3.org/2000/svg" viewBox="0 0 1024 1024" fill="none"><path d="M680 631Q747 631 804 598Q861 565 894 508Q927 451 927 384Q927 317 894 260Q861 203 804 170Q747 137 680 137L383 137Q316 137 259.5 170Q203 203 169.5 260Q136 317 136 384Q136 451 169.5 508Q203 565 259.5 598Q316 631 383 631ZM680 567L383 567Q334 567 292 542.5Q250 518 225.5 476Q201 434 201 384Q201 334 225.5 292Q250 250 292 225.5Q334 201 383 201L680 201Q730 201 772 225.5Q814 250 838.5 292Q863 334 863 384Q863 434 838.5 476Q814 518 772 542.5Q730 567 680 567ZM383 631Q451 631 507.5 598Q564 565 597.5 508Q631 451 631 384Q631 317 597.5 260Q564 203 507.5 170Q451 137 383.5 137Q316 137 259.5 170Q203 203 169.5 260Q136 317 136 384Q136 451 169.5 508Q203 565 259.5 598Q316 631 383 631ZM383 567Q334 567 292 542.5Q250 518 225.5 476Q201 434 201 384Q201 334 225.5 292Q250 250 292 225.5Q334 201 383.5 201Q433 201 475 225.5Q517 250 541.5 292Q566 334 566 384Q566 434 541.5 476Q517 518 475 542.5Q433 567 383 567Z" transform="translate(0 896) scale(1 -1)" fill="currentColor" /></svg>