<svg xmlns="http://www.w3.org/2000/svg" viewBox="0 0 1024 1024" fill="none"><path d="M811 806Q843 806 872 794Q901 782 923.5 759.5Q946 737 958 708Q970 679 970 648L970 120Q970 89 958 60Q946 31 923.5 8.5Q901 -14 872 -26Q843 -38 811 -38L284 -38Q253 -38 224 -26Q195 -14 172.5 8.5Q150 31 138 60Q126 89 126 120L126 648Q126 679 138 708Q150 737 172.5 759.5Q195 782 224 794Q253 806 284 806ZM811 737L284 737Q247 737 221 711Q195 685 195 648L195 120Q195 83 221 57Q247 31 284 31L811 31Q849 31 875 57Q901 83 901 120L901 648Q901 685 875 711Q849 737 811 737ZM453 806L453 -38L384 -38L384 806ZM711 806L711 -38L643 -38L643 806ZM970 479L126 479L126 547L970 547ZM970 221L126 221L126 289L970 289Z" transform="translate(0 896) scale(1 -1)" fill="currentColor" /></svg>