<svg xmlns="http://www.w3.org/2000/svg" viewBox="0 0 1024 1024" fill="none"><path d="M908 320L908 87Q908 68 900 49.5Q892 31 878.5 17.5Q865 4 846.5 -4Q828 -12 809 -12L215 -12Q196 -12 177.5 -4Q159 4 145.5 17.5Q132 31 124 49.5Q116 68 116 87L116 320ZM843 320L181 320L181 87Q181 74 189.5 64.5Q198 55 211 53L809 53Q823 53 833 63Q843 73 843 87ZM809 780Q828 780 846.5 772Q865 764 878.5 750.5Q892 737 900 718.5Q908 700 908 681L908 483Q908 456 894.5 433.5Q881 411 858 397.5Q835 384 809 384L215 384Q196 384 177.5 391.5Q159 399 145.5 413Q132 427 124 445Q116 463 116 483L116 681Q116 700 124 718.5Q132 737 145.5 750.5Q159 764 177.5 772Q196 780 215 780ZM809 715L215 715Q201 715 191 705Q181 695 181 681L181 483Q181 469 191 458.5Q201 448 215 448L809 448Q823 448 833 458.5Q843 469 843 483L843 681Q843 695 833 705Q823 715 809 715ZM215 606ZM240 606L586 606Q611 606 611 582L611 582Q611 557 586 557L240 557Q215 557 215 582L215 582Q215 606 240 606ZM660 606ZM685 606L784 606Q809 606 809 582L809 582Q809 557 784 557L685 557Q660 557 660 582L660 582Q660 606 685 606ZM759 656ZM759 631L759 532Q759 508 734 508L734 508Q710 508 710 532L710 631Q710 656 734 656L734 656Q759 656 759 631ZM723 270Q754 270 773 250Q792 230 792 200Q792 170 772.5 149.5Q753 129 723 129Q705 129 680 144Q663 155 648 168L647 169L644 167Q631 155 620 148L613 144Q589 129 571 129Q540 129 521 149Q502 169 502 199.5Q502 230 521 250Q540 270 571 270Q589 270 613 256Q628 247 645 232L651 227L647 231L664 245L677 254Q702 270 723 270ZM723 224Q715 224 701 214Q695 211 688 205L681 200L692 192L701 185Q716 176 724.5 175.5Q733 175 739.5 182.5Q746 190 746 200Q746 210 740 217Q734 224 723 224ZM571 224Q560 224 554 217.5Q548 211 548 200Q548 189 554 182.5Q560 176 571 176Q580 176 595 186L612 199L599 210L592 214Q579 224 571 224ZM240 299ZM265 299L438 299Q462 299 462 274L462 274Q462 249 438 249L265 249Q240 249 240 274L240 274Q240 299 265 299ZM240 224ZM265 224L438 224Q462 224 462 200L462 200Q462 175 438 175L265 175Q240 175 240 200L240 200Q240 224 265 224ZM240 150ZM265 150L438 150Q462 150 462 126L462 126Q462 101 438 101L265 101Q240 101 240 126L240 126Q240 150 265 150Z" transform="translate(0 896) scale(1 -1)" fill="currentColor" /></svg>