<svg xmlns="http://www.w3.org/2000/svg" viewBox="0 0 1024 1024" fill="none"><path d="M809 780Q828 780 846.5 772Q865 764 878.5 750.5Q892 737 900 718.5Q908 700 908 681L908 532Q908 505 894.5 482.5Q881 460 858 446.5Q835 433 809 433L215 433Q196 433 177.5 440.5Q159 448 145.5 462Q132 476 124 494.5Q116 513 116 532L116 681Q116 700 124 718.5Q132 737 145.5 750.5Q159 764 177.5 772Q196 780 215 780ZM809 715L215 715Q201 715 191 705Q181 695 181 681L181 532Q181 518 191 508Q201 498 215 498L809 498Q823 498 833 508Q843 518 843 532L843 681Q843 695 833 705Q823 715 809 715ZM215 631ZM240 631L586 631Q611 631 611 606L611 606Q611 582 586 582L240 582Q215 582 215 606L215 606Q215 631 240 631ZM660 631ZM685 631L784 631Q809 631 809 606L809 606Q809 582 784 582L685 582Q660 582 660 606L660 606Q660 631 685 631ZM759 681ZM759 656L759 557Q759 532 734 532L734 532Q710 532 710 557L710 656Q710 681 734 681L734 681Q759 681 759 656ZM809 335Q835 335 858 321.5Q881 308 894.5 285.5Q908 263 908 236L908 87Q908 68 900 49.5Q892 31 878.5 17.5Q865 4 846.5 -4Q828 -12 809 -12L463 -12Q443 -12 425 -4Q407 4 393 17.5Q379 31 371.5 49.5Q364 68 364 87L364 236Q364 255 371.5 273.5Q379 292 393 306Q407 320 425 327.5Q443 335 463 335ZM809 270L463 270Q448 270 438 260Q428 250 428 236L428 87Q428 73 438 63Q448 53 463 53L809 53Q823 53 833 63Q843 73 843 87L843 236Q843 250 833 260Q823 270 809 270ZM469 181ZM494 181L642 181Q667 181 667 157L667 157Q667 132 642 132L494 132Q469 132 469 157L469 157Q469 181 494 181ZM691 181ZM716 181L785 181Q810 181 810 157L810 157Q810 132 785 132L716 132Q691 132 691 157L691 157Q691 181 716 181ZM770 221ZM770 196L770 127Q770 102 746 102L746 102Q721 102 721 127L721 196Q721 221 746 221L746 221Q770 221 770 196ZM175 477ZM205 477L205 477Q235 477 235 447L235 164Q235 135 205 135L205 135Q175 135 175 164L175 447Q175 477 205 477ZM175 194ZM205 194L389 194Q419 194 419 164L419 164Q419 135 389 135L205 135Q175 135 175 164L175 164Q175 194 205 194Z" transform="translate(0 896) scale(1 -1)" fill="currentColor" /></svg>