<svg xmlns="http://www.w3.org/2000/svg" viewBox="0 0 1024 1024" fill="none"><path d="M940 452L630 762Q585 801 536 801L277 801Q222 801 183.5 762.5Q145 724 145 669L145 410Q145 383 155 359Q165 335 184 316L494 6Q532 -33 587 -33Q614 -33 638 -23Q662 -13 681 6L940 265Q979 303 979 358.5Q979 414 940 452ZM218 669Q218 682 221.5 692Q225 702 234.5 711.5Q244 721 254 724.5Q264 728 277 728L536 728Q550 728 560 724.5Q570 721 579 711L889 401Q899 392 902.5 382Q906 372 906 358.5Q906 345 902.5 335Q899 325 889 316L630 57Q621 47 611 43.5Q601 40 587.5 40Q574 40 564 43.5Q554 47 545 57L235 367Q225 376 221.5 386Q218 396 218 410ZM435 637Q470 637 499 620Q528 603 545 574Q562 545 562 510.5Q562 476 545 447Q528 418 499 401Q470 384 435.5 384Q401 384 372 401Q343 418 326 447Q309 476 309 510.5Q309 545 326 574Q343 603 372 620Q401 637 435 637ZM435 569Q420 569 406.5 561Q393 553 385 539.5Q377 526 377 510.5Q377 495 385 481.5Q393 468 406.5 460.5Q420 453 435 453Q459 453 476 470Q493 487 493 511Q493 535 476 552Q459 569 435 569Z" transform="translate(0 896) scale(1 -1)" fill="currentColor" /></svg>