<svg xmlns="http://www.w3.org/2000/svg" viewBox="0 0 1024 1024" fill="none"><path d="M202 489L202 120Q202 83 230 57Q258 31 298 31L565 31L565 -38L810 -38L302 -38Q256 -38 217 -16.5Q178 5 155.5 41Q133 77 133 120L133 648Q133 691 155.5 727Q178 763 217 784.5Q256 806 302 806L808 806Q854 806 892.5 784.5Q931 763 954 727Q977 691 977 648L977 119L977 489ZM811 737L298 737Q258 737 230 711Q202 685 202 648L202 558L908 558L908 648Q908 685 879.5 711Q851 737 811 737ZM792 331Q806 331 816 321Q826 311 826 297L826 181L942 181Q952 181 960 176.5Q968 172 972.5 164Q977 156 977 147Q977 138 972.5 130Q968 122 960 117Q952 112 942 112L826 112L826 -4Q826 -18 816 -28Q806 -38 792 -38Q778 -38 768 -28Q758 -18 758 -4L758 112L642 112Q633 112 625 117Q617 122 612.5 130Q608 138 608 147Q608 156 612.5 164Q617 172 625 176.5Q633 181 642 181L758 181L758 297Q758 311 768 321Q778 331 792 331Z" transform="translate(0 896) scale(1 -1)" fill="currentColor" /></svg>