<svg xmlns="http://www.w3.org/2000/svg" viewBox="0 0 1024 1024" fill="none"><path d="M759 780Q799 780 833.5 760Q868 740 888 705.5Q908 671 908 631L908 137Q908 97 888 62.5Q868 28 833.5 8Q799 -12 759 -12L265 -12Q225 -12 190.5 8Q156 28 136 62.5Q116 97 116 137L116 631Q116 671 136 705.5Q156 740 190.5 760Q225 780 265 780ZM759 715L265 715Q230 715 205.5 690.5Q181 666 181 631L181 137Q181 102 205.5 77.5Q230 53 265 53L759 53Q794 53 818.5 77.5Q843 102 843 137L843 631Q843 666 818.5 690.5Q794 715 759 715ZM265 458ZM297 458L678 458Q710 458 710 426L710 426Q710 394 678 394L297 394Q265 394 265 426L265 426Q265 458 297 458ZM265 582ZM297 582L480 582Q512 582 512 550L512 550Q512 517 480 517L297 517Q265 517 265 550L265 550Q265 582 297 582ZM784 213L784 132Q784 124 778 118Q772 112 764 112L683 112Q677 112 672 115.5Q667 119 665 124.5Q663 130 664 136Q665 142 669 146L750 227Q754 231 760 232Q766 233 771.5 231Q777 229 780.5 224Q784 219 784 213Z" transform="translate(0 896) scale(1 -1)" fill="currentColor" /></svg>