<svg xmlns="http://www.w3.org/2000/svg" viewBox="0 0 1024 1024" fill="none"><path d="M516 806Q631 806 729 748Q825 692 881 597Q938 499 938 384Q938 269 881 171Q825 76 729 20Q631 -38 516.5 -38Q402 -38 304 20Q208 76 152 171Q95 269 95 384Q95 499 152 597Q208 692 304 748Q402 806 516 806ZM516 737Q422 737 340 690Q258 643 210.5 561Q163 479 163 384Q163 289 210.5 207Q258 125 340 78Q422 31 517 31Q612 31 695 79Q775 126 822 206Q870 288 870 384Q870 480 822 562Q775 642 695 689Q612 737 516 737ZM462 636ZM497 636L497 636Q531 636 531 602L531 354Q531 320 497 320L497 320Q462 320 462 354L462 602Q462 636 497 636ZM694 388ZM694 354L694 354Q694 320 660 320L497 320Q462 320 462 354L462 354Q462 388 497 388L660 388Q694 388 694 354Z" transform="translate(0 896) scale(1 -1)" fill="currentColor" /></svg>