<svg xmlns="http://www.w3.org/2000/svg" viewBox="0 0 1024 1024" fill="none"><path d="M538 806Q652 806 751 748Q846 692 902 597Q960 499 960 384Q960 269 902 171Q846 76 751 20Q652 -38 537.5 -38Q423 -38 325 20Q229 76 173 171Q116 269 116 384Q116 398 126 408Q136 418 150 418L261 418Q275 418 285 408Q295 398 295 384Q295 370 285 360Q275 350 261 350L186 350Q195 256 249 180Q301 106 383 66Q467 25 560.5 31Q654 37 732 89Q808 139 850 219Q894 301 891 395Q888 489 839 568Q792 646 713 691Q632 737 538 737L538 737Q524 737 513.5 747Q503 757 503 771.5Q503 786 513.5 796Q524 806 538 806ZM518 636Q532 636 542 626Q552 616 552 602L552 378L701 324Q714 319 720 306.5Q726 294 721 280.5Q716 267 703 261Q690 255 677 260L509 321Q498 324 491 333.5Q484 343 484 354L484 602Q484 616 494 626Q504 636 518 636Z" transform="translate(0 896) scale(1 -1)" fill="currentColor" /></svg>