<svg xmlns="http://www.w3.org/2000/svg" viewBox="0 0 1024 1024" fill="none"><path d="M759 780Q799 780 833.5 760Q868 740 888 705.5Q908 671 908 631L908 137Q908 97 888 62.5Q868 28 833.5 8Q799 -12 759 -12L265 -12Q225 -12 190.5 8Q156 28 136 62.5Q116 97 116 137L116 631Q116 671 136 705.5Q156 740 190.5 760Q225 780 265 780ZM759 715L265 715Q230 715 205.5 690.5Q181 666 181 631L181 137Q181 102 205.5 77.5Q230 53 265 53L759 53Q794 53 818.5 77.5Q843 102 843 137L843 631Q843 666 818.5 690.5Q794 715 759 715ZM279 582ZM308 582L308 582Q338 582 338 552L338 216Q338 186 308 186L308 186Q279 186 279 216L279 552Q279 582 308 582ZM511 582ZM541 582L541 582Q570 582 570 552L570 216Q570 186 541 186L541 186Q511 186 511 216L511 552Q511 582 541 582ZM674 433ZM703 433L703 433Q733 433 733 404L733 216Q733 186 703 186L703 186Q674 186 674 216L674 404Q674 433 703 433ZM724 425Q732 417 732 404.5Q732 392 724 384L661 320Q653 312 641 312Q629 312 620.5 320.5Q612 329 612 341Q612 353 620 362L683 425Q691 434 703 434Q715 434 724 425ZM338 414L511 414L511 354L338 354Z" transform="translate(0 896) scale(1 -1)" fill="currentColor" /></svg>