<svg xmlns="http://www.w3.org/2000/svg" viewBox="0 0 1024 1024" fill="none"><path d="M809 780Q828 780 846.5 772Q865 764 878.5 750.5Q892 737 900 718.5Q908 700 908 681L908 483Q908 456 894.5 433.5Q881 411 858 397.5Q835 384 809 384L215 384Q196 384 177.5 391.5Q159 399 145.5 413Q132 427 124 445Q116 463 116 483L116 681Q116 700 124 718.5Q132 737 145.5 750.5Q159 764 177.5 772Q196 780 215 780ZM809 715L215 715Q201 715 191 705Q181 695 181 681L181 483Q181 469 191 458.5Q201 448 215 448L809 448Q823 448 833 458.5Q843 469 843 483L843 681Q843 695 833 705Q823 715 809 715ZM659 512L659 512L757 610Q764 617 765 628Q766 639 760 648L757 652Q748 660 735.5 660Q723 660 715 652L638 575L561 652Q555 657 547.5 659.5Q540 662 532 660Q524 658 518.5 652Q513 646 511 638.5Q509 631 511 623Q513 615 519 610L617 512Q624 504 635 503L640 503Q651 504 659 512ZM908 320L908 87Q908 68 900 49.5Q892 31 878.5 17.5Q865 4 846.5 -4Q828 -12 809 -12L215 -12Q196 -12 177.5 -4Q159 4 145.5 17.5Q132 31 124 49.5Q116 68 116 87L116 320ZM843 320L181 320L181 87Q181 74 189.5 64.5Q198 55 211 53L809 53Q823 53 833 63Q843 73 843 87Z" transform="translate(0 896) scale(1 -1)" fill="currentColor" /></svg>