<svg xmlns="http://www.w3.org/2000/svg" viewBox="0 0 1024 1024" fill="none"><path d="M531 760L536 759Q547 757 555 750L693 612Q699 605 701.5 596Q704 587 701.5 578.5Q699 570 692.5 563.5Q686 557 677.5 554.5Q669 552 660 554.5Q651 557 644 563L565 643L565 266Q565 252 555 242Q545 232 531 232Q517 232 506.5 242Q496 252 496 266L496 643L417 563Q407 553 392.5 553Q378 553 368 563Q358 573 358 587.5Q358 602 368 612L506 749Q516 760 531 759ZM150 -6Q136 -6 126 4Q116 14 116 29L116 224Q116 233 120.5 241Q125 249 133 253.5Q141 258 150 258Q159 258 167 253.5Q175 249 179.5 241Q184 233 184 224L184 63L891 63L891 224Q891 233 895.5 241Q900 249 908 253.5Q916 258 925.5 258Q935 258 942.5 253.5Q950 249 955 241Q960 233 960 224L960 29Q960 16 951.5 6Q943 -4 930 -5L925 -6Z" transform="translate(0 896) scale(1 -1)" fill="currentColor" /></svg>