<svg xmlns="http://www.w3.org/2000/svg" viewBox="0 0 1024 1024" fill="none"><path d="M759 780Q799 780 833.5 760Q868 740 888 705.5Q908 671 908 631L908 137Q908 97 888 62.5Q868 28 833.5 8Q799 -12 759 -12L265 -12Q225 -12 190.5 8Q156 28 136 62.5Q116 97 116 137L116 631Q116 671 136 705.5Q156 740 190.5 760Q225 780 265 780ZM759 715L265 715Q230 715 205.5 690.5Q181 666 181 631L181 137Q181 102 205.5 77.5Q230 53 265 53L759 53Q794 53 818.5 77.5Q843 102 843 137L843 631Q843 666 818.5 690.5Q794 715 759 715ZM376 635Q390 635 399 626Q408 617 408 603L408 554L458 554Q466 554 473.5 549.5Q481 545 485.5 537.5Q490 530 490 521.5Q490 513 485.5 505.5Q481 498 473.5 494Q466 490 458 490L408 490L408 440Q408 432 404 424.5Q400 417 392.5 412.5Q385 408 376.5 408Q368 408 360.5 412.5Q353 417 348.5 424.5Q344 432 344 440L344 490L295 490Q281 490 271.5 499Q262 508 262 521.5Q262 535 271.5 544.5Q281 554 295 554L344 554L344 603Q344 617 353.5 626Q363 635 376 635ZM457 328Q466 318 466 304.5Q466 291 457 282L422 247L457 212Q463 206 465 197.5Q467 189 465 181Q463 173 456.5 167Q450 161 442 158.5Q434 156 425.5 158.5Q417 161 411 167L376 202L341 167Q332 157 318.5 157Q305 157 295.5 166.5Q286 176 286 189.5Q286 203 296 212L331 247L296 282Q286 292 286 305Q286 318 295.5 327.5Q305 337 318.5 337Q332 337 341 328L376 293L411 328Q421 337 434 337Q447 337 457 328ZM545 554ZM577 554L740 554Q772 554 772 522L772 522Q772 490 740 490L577 490Q545 490 545 522L545 522Q545 554 577 554ZM545 338ZM577 338L740 338Q772 338 772 306L772 306Q772 274 740 274L577 274Q545 274 545 306L545 306Q545 338 577 338ZM545 220ZM577 220L740 220Q772 220 772 188L772 188Q772 156 740 156L577 156Q545 156 545 188L545 188Q545 220 577 220Z" transform="translate(0 896) scale(1 -1)" fill="currentColor" /></svg>