<svg xmlns="http://www.w3.org/2000/svg" viewBox="0 0 1024 1024" fill="none"><path d="M231 780Q247 795 268.5 795Q290 795 306 780L905 181Q920 165 920 143Q920 121 905 106L803 4Q787 -12 765 -12Q743 -12 728 4L129 603Q113 618 113 640Q113 662 129 677ZM268 720L189 640L765 63L845 143ZM274 522L387 634L435 585L323 473ZM269 332L213 227L108 170L213 113L269 9L320 107L431 170L326 227ZM561 834L527 771L464 737L527 703L561 640L591 699L658 737L595 771ZM833 673L809 629L765 606L809 582L833 538L854 579L901 606L857 630Z" transform="translate(0 896) scale(1 -1)" fill="currentColor" /></svg>