<svg xmlns="http://www.w3.org/2000/svg" viewBox="0 0 1024 1024" fill="none"><path d="M145 625L265 745Q271 751 279.5 753.5Q288 756 296.5 753.5Q305 751 311.5 745Q318 739 320 730.5Q322 722 320 713Q318 704 312 698L192 578Q182 569 168.5 569Q155 569 145 578.5Q135 588 135 601.5Q135 615 145 625ZM706 63L826 183Q836 193 849.5 193Q863 193 873 183.5Q883 174 883 160.5Q883 147 873 137L753 17Q743 7 729.5 7Q716 7 706.5 17Q697 27 697 40.5Q697 54 706 64ZM144 342L548 745Q554 752 562.5 754Q571 756 579.5 754Q588 752 594.5 745.5Q601 739 603 730.5Q605 722 603 713.5Q601 705 594 699L191 295Q185 289 176.5 287Q168 285 159.5 287Q151 289 144.5 295.5Q138 302 136 310.5Q134 319 136 327.5Q138 336 145 342ZM423 63L827 466Q833 473 841.5 475Q850 477 858.5 475Q867 473 873.5 466.5Q880 460 882 451.5Q884 443 882 434.5Q880 426 873 420L470 16Q460 7 446.5 7Q433 7 423.5 16.5Q414 26 414 39.5Q414 53 423 63ZM147 65L433 352Q443 362 456.5 362Q470 362 480 352Q490 342 490 328.5Q490 315 480 305L193 19Q184 9 170 9Q156 9 146.5 18.5Q137 28 137 42Q137 56 147 65ZM541 459L827 746Q834 752 842.5 754.5Q851 757 859.5 754.5Q868 752 874 746Q880 740 882.5 731.5Q885 723 882.5 714.5Q880 706 874 699L588 413Q578 403 564.5 403Q551 403 541 412.5Q531 422 531 436Q531 450 541 459Z" transform="translate(0 896) scale(1 -1)" fill="currentColor" /></svg>