<svg xmlns="http://www.w3.org/2000/svg" viewBox="0 0 1024 1024" fill="none"><path d="M149 726Q141 711 139 684Q138 664 138 600L138 168Q138 104 139 84Q141 57 149 42Q163 14 192 -1Q207 -8 234 -10Q253 -12 317 -12L651 -12Q715 -12 734 -10Q761 -8 776 -1Q805 14 819 42Q827 57 829 84Q830 104 830 168L830 265L670 105Q652 87 627 82L519 50Q486 40 461.5 64.5Q437 89 447 122L479 230Q484 255 502 274L817 589Q823 595 830 600Q830 664 829 684Q827 711 819 725Q805 754 776 769Q761 776 734 778Q715 780 651 780L317 780Q253 780 234 778Q207 776 192 769Q163 754 149 726ZM237 587Q237 591 237.5 595.5Q238 600 240 604Q242 608 244.5 611.5Q247 615 250 618Q253 621 256.5 623.5Q260 626 264 627.5Q268 629 272.5 630Q277 631 281 631L588 631Q592 631 596.5 630Q601 629 605 627.5Q609 626 612.5 623.5Q616 621 619 618Q622 615 624.5 611.5Q627 608 628.5 604Q630 600 631 595.5Q632 591 632 586.5Q632 582 631 578Q630 574 628.5 570Q627 566 624.5 562Q622 558 619 555Q616 552 612.5 549.5Q609 547 605 545.5Q601 544 596.5 543Q592 542 588 542L281 542Q277 542 272.5 543Q268 544 264 545.5Q260 547 256.5 549.5Q253 552 250 555Q247 558 244.5 562Q242 566 240 570Q238 574 237.5 578Q237 582 237 587ZM237 414Q237 418 237.5 422.5Q238 427 240 431Q242 435 244.5 438.5Q247 442 250 445Q253 448 256.5 450.5Q260 453 264 454.5Q268 456 272.5 457Q277 458 281 458L439 458Q444 458 448 457Q452 456 456 454.5Q460 453 464 450.5Q468 448 471 445Q474 442 476.5 438.5Q479 435 480.5 431Q482 427 483 422.5Q484 418 484 413.5Q484 409 483 405Q482 401 480.5 397Q479 393 476.5 389Q474 385 471 382Q468 379 464 376.5Q460 374 456 372.5Q452 371 448 370Q444 369 439 369L281 369Q277 369 272.5 370Q268 371 264 372.5Q260 374 256.5 376.5Q253 379 250 382Q247 385 244.5 389Q242 393 240 397Q238 401 237.5 405Q237 409 237 414ZM830 546L845 561Q866 582 895 582Q924 582 945 561L958 548Q978 528 978 498.5Q978 469 958 448L642 133Q632 123 618 121L507 88Q497 85 489.5 92.5Q482 100 485 111L518 222Q520 236 530 246Z" transform="translate(0 896) scale(1 -1)" fill="currentColor" /></svg>