<svg xmlns="http://www.w3.org/2000/svg" viewBox="0 0 1024 1024" fill="none"><path d="M89 788ZM145 788L707 788Q764 788 764 732L764 732Q764 675 707 675L145 675Q89 675 89 732L89 732Q89 788 145 788ZM219 298ZM270 298L454 298Q504 298 504 248L504 248Q504 197 454 197L270 197Q219 197 219 248L219 248Q219 298 270 298ZM219 788ZM270 788L270 788Q320 788 320 737L320 248Q320 197 270 197L270 197Q219 197 219 248L219 737Q219 788 270 788ZM876 532Q907 532 932.5 516.5Q958 501 973.5 475.5Q989 450 989 419L989 82Q989 51 973.5 25Q958 -1 932.5 -16Q907 -31 876 -31L539 -31Q508 -31 482 -16Q456 -1 441 25Q426 51 426 82L426 419Q426 450 441 475.5Q456 501 482 516.5Q508 532 539 532ZM707 430Q691 430 679.5 418.5Q668 407 668 391L668 287L564 287Q549 287 538 277.5Q527 268 525 253L525 248Q525 231 536.5 219.5Q548 208 564 208L668 208L668 104Q668 89 677.5 78Q687 67 702 65L707 65Q724 65 735.5 76.5Q747 88 747 104L747 208L851 208Q866 208 877 218Q888 228 890 242L890 248Q890 264 878.5 275.5Q867 287 851 287L747 287L747 391Q747 406 737 417Q727 428 713 430Z" transform="translate(0 896) scale(1 -1)" fill="currentColor" /></svg>