<svg xmlns="http://www.w3.org/2000/svg" viewBox="0 0 1024 1024" fill="none"><path d="M157 746ZM189 746L916 746Q948 746 948 714L948 714Q948 682 916 682L189 682Q157 682 157 714L157 714Q157 746 189 746ZM157 87ZM189 87L916 87Q948 87 948 54L948 54Q948 22 916 22L189 22Q157 22 157 54L157 54Q157 87 189 87ZM157 416ZM189 416L521 416Q553 416 553 384L553 384Q553 352 521 352L189 352Q157 352 157 384L157 384Q157 416 189 416ZM621 416ZM653 416L916 416Q948 416 948 384L948 384Q948 352 916 352L653 352Q621 352 621 384L621 384Q621 416 653 416ZM817 548ZM817 516L817 252Q817 220 785 220L785 220Q752 220 752 252L752 516Q752 548 785 548L785 548Q817 548 817 516Z" transform="translate(0 896) scale(1 -1)" fill="currentColor" /></svg>