<svg xmlns="http://www.w3.org/2000/svg" viewBox="0 0 1024 1024" fill="none"><path d="M523 779Q629 779 721.5 725.5Q814 672 867 580Q920 488 920 381.5Q920 275 867 183Q814 91 721.5 38Q629 -15 522 -15Q415 -15 322 39Q233 92 180 181Q126 274 126 382Q126 490 180 582Q233 672 322 725Q415 779 523 779ZM523 575Q509 575 500 565.5Q491 556 491 543L491 414L362 414Q348 414 339 404.5Q330 395 330 381.5Q330 368 339 358.5Q348 349 362 349L490 349L490 221Q490 207 499.5 198Q509 189 522.5 189Q536 189 545.5 198Q555 207 555 221L555 349L684 349Q697 349 706.5 358.5Q716 368 716 381.5Q716 395 706.5 404.5Q697 414 684 414L555 414L555 543Q555 556 545.5 565.5Q536 575 523 575Z" transform="translate(0 896) scale(1 -1)" fill="currentColor" /></svg>