<svg xmlns="http://www.w3.org/2000/svg" viewBox="0 0 1024 1024" fill="none"><path d="M512 780Q618 780 710 727Q802 674 855 582Q908 490 908 384Q908 278 855 186.5Q802 95 710 42Q618 -11 511.5 -11Q405 -11 312 43Q223 95 171 184Q117 277 117 384Q117 491 171 584Q223 673 312 726Q405 780 512 780ZM512 715Q423 715 346.5 671Q270 627 225.5 550Q181 473 181 384Q181 295 225.5 218.5Q270 142 346.5 97.5Q423 53 512.5 53Q602 53 679 98Q754 142 798 217Q843 294 843 384Q843 474 798 551Q754 626 679 670Q602 715 512 715ZM512 555ZM463 555Q463 534 477.5 519.5Q492 505 512 505Q532 505 546.5 519.5Q561 534 561 554.5Q561 575 546.5 589.5Q532 604 512 604Q492 604 477.5 589.5Q463 575 463 555ZM480 461ZM512 461L512 461Q544 461 544 429L544 196Q544 164 512 164L512 164Q480 164 480 196L480 429Q480 461 512 461Z" transform="translate(0 896) scale(1 -1)" fill="currentColor" /></svg>