<svg xmlns="http://www.w3.org/2000/svg" viewBox="0 0 1024 1024" fill="none"><path d="M445 590Q473 590 496.5 576.5Q520 563 534 540.5Q548 518 548 491L548 297L773 297Q810 297 837.5 269Q865 241 868 202L868 65Q868 22 840.5 -8Q813 -38 773 -38L382 -30Q369 -30 355 -17L203 147Q185 166 178.5 191.5Q172 217 178.5 243Q185 269 203 288Q232 317 271 318.5Q310 320 341 293L342 292L342 491Q342 530 369.5 558.5Q397 587 437 590ZM449 521Q438 521 424.5 510Q411 499 411 491L410 179Q404 172 396.5 170.5Q389 169 382 169Q372 169 363 173Q354 177 349 184L293 237Q285 245 272.5 246.5Q260 248 253 241Q246 234 246 217.5Q246 201 253 194L402 35L773 35Q780 35 789.5 47.5Q799 60 799 69L799 198Q799 207 789.5 219.5Q780 232 773 232L518 232Q516 231 513 232L511 232Q483 232 483 272L483 491Q483 500 471 510.5Q459 521 449 521ZM843 425Q858 425 869 436Q880 447 880 462L880 700Q880 716 869 726.5Q858 737 843 737L218 737Q203 737 192 726.5Q181 716 181 700L181 462Q181 447 192 436Q203 425 218 425L252 425L252 357L218 357Q189 357 165 371Q141 385 126.5 409Q112 433 112 462L112 700Q112 729 126.5 753.5Q141 778 165 792Q189 806 218 806L843 806Q872 806 896 792Q920 778 934 753.5Q948 729 948 700L948 462Q948 441 940 421.5Q932 402 917.5 387.5Q903 373 883.5 365Q864 357 843 357L621 357L621 425Z" transform="translate(0 896) scale(1 -1)" fill="currentColor" /></svg>