<svg xmlns="http://www.w3.org/2000/svg" viewBox="0 0 1024 1024" fill="none"><path d="M538 806Q652 806 751 748Q846 692 902 597Q960 499 960 384Q960 269 902 171Q846 76 751 20Q652 -38 537.5 -38Q423 -38 325 20Q229 76 174 171Q116 269 116 384Q116 499 174 597Q229 692 325 748Q423 806 538 806ZM538 737Q443 737 361 690Q279 643 231.5 561Q184 479 184 384Q184 289 231.5 207Q279 125 361 78Q443 31 538.5 31Q634 31 716 79Q796 126 843 206Q891 288 891 384Q891 480 843 562Q796 642 716 689Q634 737 538 737ZM320 405Q330 415 344 415Q358 415 368 405L482 291L707 517Q717 527 731.5 527Q746 527 756 517Q766 507 766 492.5Q766 478 756 468L506 219Q496 209 482 209Q468 209 458 219L320 357Q310 367 310 381Q310 395 320 405Z" transform="translate(0 896) scale(1 -1)" fill="currentColor" /></svg>