<svg xmlns="http://www.w3.org/2000/svg" viewBox="0 0 1024 1024" fill="none"><path d="M512 483L512 419L215 419Q202 419 192.5 410.5Q183 402 181 389L181 87Q181 73 191 63Q201 53 215 53L512 53L512 -12L215 -12Q196 -12 177.5 -4Q159 4 145.5 17.5Q132 31 124 49.5Q116 68 116 87L116 384Q116 404 124 422Q132 440 145.5 454Q159 468 177.5 475.5Q196 483 215 483ZM809 780Q828 780 846.5 772Q865 764 878.5 750.5Q892 737 900 718.5Q908 700 908 681L908 87Q908 68 900 49.5Q892 31 878.5 17.5Q865 4 846.5 -4Q828 -12 809 -12L463 -12L463 780ZM809 715L527 715L527 53L809 53Q823 53 833 63Q843 73 843 87L843 681Q843 695 833 705Q823 715 809 715ZM601 572ZM633 572L737 572Q769 572 769 540L769 540Q769 508 737 508L633 508Q601 508 601 540L601 540Q601 572 633 572ZM601 416ZM633 416L737 416Q769 416 769 384L769 384Q769 352 737 352L633 352Q601 352 601 384L601 384Q601 416 633 416ZM601 260ZM633 260L737 260Q769 260 769 228L769 228Q769 196 737 196L633 196Q601 196 601 228L601 228Q601 260 633 260Z" transform="translate(0 896) scale(1 -1)" fill="currentColor" /></svg>