<svg xmlns="http://www.w3.org/2000/svg" viewBox="0 0 1024 1024" fill="none"><path d="M788 806Q819 806 848 794Q877 782 899.5 759.5Q922 737 934 708Q946 679 946 648L946 120Q946 89 934 60Q922 31 899.5 8.5Q877 -14 848 -26Q819 -38 788 -38L313 -38Q282 -38 253 -26Q224 -14 201.5 8.5Q179 31 167 60Q155 89 155 120L155 648Q155 679 167 708Q179 737 201.5 759.5Q224 782 253 794Q282 806 313 806ZM788 737L313 737Q276 737 250 711Q224 685 224 648L224 120Q224 83 250 57Q276 31 313 31L788 31Q825 31 851 57Q877 83 877 120L877 648Q877 685 851 711Q825 737 788 737ZM946 479L155 479L155 547L946 547ZM946 221L155 221L155 289L946 289ZM393 600L393 600L453 661Q458 665 458.5 671.5Q459 678 456 683L453 687Q448 692 440.5 692Q433 692 427 687L380 639L332 687Q327 692 319 692Q311 692 306 686.5Q301 681 301 673.5Q301 666 306 661L366 600Q371 596 378 595L382 595Q388 595 393 600ZM393 342L393 342L453 403Q458 407 458.5 413.5Q459 420 456 425L453 429Q448 434 440.5 434Q433 434 427 429L380 381L332 429Q327 434 319 434Q311 434 306 428.5Q301 423 301 415.5Q301 408 306 403L366 342Q371 337 378 337L382 337Q388 337 393 342ZM393 84L393 84L453 144Q458 149 458.5 155Q459 161 456 167L453 170Q448 176 440.5 176Q433 176 427 170L380 123L332 170Q327 176 319 176Q311 176 306 170.5Q301 165 301 157.5Q301 150 306 144L366 84Q371 79 378 78L382 78Q388 79 393 84Z" transform="translate(0 896) scale(1 -1)" fill="currentColor" /></svg>