<svg xmlns="http://www.w3.org/2000/svg" viewBox="0 0 1024 1024" fill="none"><path d="M141 709ZM188 709L419 709Q466 709 466 662L466 245Q466 199 419 199L188 199Q141 199 141 245L141 662Q141 709 188 709ZM558 709ZM605 709L836 709Q883 709 883 662L883 245Q883 199 836 199L605 199Q558 199 558 245L558 662Q558 709 605 709ZM141 129ZM176 129L431 129Q466 129 466 94L466 94Q466 59 431 59L176 59Q141 59 141 94L141 94Q141 129 176 129ZM558 129ZM593 129L848 129Q883 129 883 94L883 94Q883 59 848 59L593 59Q558 59 558 94L558 94Q558 129 593 129Z" transform="translate(0 896) scale(1 -1)" fill="currentColor" /></svg>