<svg xmlns="http://www.w3.org/2000/svg" viewBox="0 0 1024 1024" fill="none"><path d="M141 709ZM188 709L234 709Q280 709 280 662L280 245Q280 199 234 199L188 199Q141 199 141 245L141 662Q141 709 188 709ZM141 129ZM176 129L245 129Q280 129 280 94L280 94Q280 59 245 59L176 59Q141 59 141 94L141 94Q141 129 176 129ZM342 709ZM388 709L435 709Q481 709 481 662L481 245Q481 199 435 199L388 199Q342 199 342 245L342 662Q342 709 388 709ZM342 129ZM377 129L446 129Q481 129 481 94L481 94Q481 59 446 59L377 59Q342 59 342 94L342 94Q342 129 377 129ZM543 709ZM589 709L636 709Q682 709 682 662L682 245Q682 199 636 199L589 199Q543 199 543 245L543 662Q543 709 589 709ZM543 129ZM578 129L647 129Q682 129 682 94L682 94Q682 59 647 59L578 59Q543 59 543 94L543 94Q543 129 578 129ZM744 709ZM790 709L836 709Q883 709 883 662L883 245Q883 199 836 199L790 199Q744 199 744 245L744 662Q744 709 790 709ZM744 129ZM779 129L848 129Q883 129 883 94L883 94Q883 59 848 59L779 59Q744 59 744 94L744 94Q744 129 779 129Z" transform="translate(0 896) scale(1 -1)" fill="currentColor" /></svg>