<svg xmlns="http://www.w3.org/2000/svg" viewBox="0 0 1024 1024" fill="none"><path d="M555 806Q670 806 768 780Q864 755 920.5 711.5Q977 668 977 616Q977 564 920.5 520.5Q864 477 768 452Q670 426 555.5 426Q441 426 342 452Q247 477 190 520.5Q133 564 133 616Q133 668 190 711.5Q247 755 342 780Q441 806 555 806ZM555 737Q478 737 408 724Q338 711 285 688Q245 670 222 649Q202 631 202 616Q202 601 222 583Q245 562 285 544Q338 521 408 508Q478 495 555.5 495Q633 495 703 508Q773 521 826 544Q866 562 888 583Q909 601 909 616Q909 631 888 649Q866 670 826 688Q773 711 703 724Q633 737 555 737ZM943 418Q957 418 967 408Q977 398 977 384Q977 332 920.5 288.5Q864 245 768 220Q670 194 555.5 194Q441 194 342 220Q247 245 190 288.5Q133 332 133 384L134 389Q136 402 146.5 410.5Q157 419 170.5 418Q184 417 193 407Q202 397 202 383Q202 369 222 351Q245 330 285 312Q338 289 408 276Q478 263 555.5 263Q633 263 703 276Q773 289 826 312Q866 330 888 351Q909 369 909 383.5Q909 398 919 408Q929 418 943 418ZM943 186Q957 186 967 176Q977 166 977 152Q977 100 920.5 56.5Q864 13 768 -12Q670 -38 555.5 -38Q441 -38 342 -12Q247 13 190 56.5Q133 100 133 152L134 157Q136 170 146.5 178.5Q157 187 170.5 186Q184 185 193 175Q202 165 202 151Q202 137 222 119Q245 98 285 80Q338 57 408 44Q478 31 555.5 31Q633 31 703 44Q773 57 826 80Q866 98 888 119Q909 137 909 151.5Q909 166 919 176Q929 186 943 186Z" transform="translate(0 896) scale(1 -1)" fill="currentColor" /></svg>