<svg xmlns="http://www.w3.org/2000/svg" viewBox="0 0 1024 1024" fill="none"><path d="M759 780Q799 780 833.5 760Q868 740 888 705.5Q908 671 908 631L908 137Q908 97 888 62.5Q868 28 833.5 8Q799 -12 759 -12L265 -12Q225 -12 190.5 8Q156 28 136 62.5Q116 97 116 137L116 631Q116 671 136 705.5Q156 740 190.5 760Q225 780 265 780ZM759 715L265 715Q230 715 205.5 690.5Q181 666 181 631L181 137Q181 102 205.5 77.5Q230 53 265 53L759 53Q794 53 818.5 77.5Q843 102 843 137L843 631Q843 666 818.5 690.5Q794 715 759 715ZM116 465L908 465L908 401L116 401ZM116 275L908 275L908 211L116 211ZM669 433L669 -12L604 -12L604 433ZM420 433L420 -12L355 -12L355 433Z" transform="translate(0 896) scale(1 -1)" fill="currentColor" /></svg>