<svg xmlns="http://www.w3.org/2000/svg" viewBox="0 0 1024 1024" fill="none"><path d="M354 806ZM389 806L673 806Q708 806 708 772L708 772Q708 737 673 737L389 737Q354 737 354 772L354 772Q354 806 389 806ZM109 664ZM144 664L919 664Q953 664 953 630L953 630Q953 596 919 596L144 596Q109 596 109 630L109 630Q109 664 144 664ZM848 665L848 120Q848 77 826.5 41Q805 5 768.5 -16.5Q732 -38 689 -38L373 -38Q330 -38 293.5 -16.5Q257 5 236 41Q215 77 215 120L215 665ZM461 490Q446 490 436 480Q426 470 426 456L426 171Q426 157 436 147Q446 137 460.5 137Q475 137 485 147Q495 157 495 171L495 456Q495 470 485 480Q475 490 461 490ZM602 490Q587 490 577 480Q567 470 567 456L567 171Q567 162 572 154Q577 146 584.5 141.5Q592 137 601.5 137Q611 137 619 141.5Q627 146 631.5 154Q636 162 636 171L636 456Q636 470 626 480Q616 490 602 490Z" transform="translate(0 896) scale(1 -1)" fill="currentColor" /></svg>