<svg xmlns="http://www.w3.org/2000/svg" viewBox="0 0 1024 1024" fill="none"><path d="M800 806Q832 806 861 794Q890 782 912 759.5Q934 737 946 708Q958 679 958 648L958 120Q958 89 946 60Q934 31 912 8.5Q890 -14 861 -26Q832 -38 800 -38L273 -38Q241 -38 212 -26Q183 -14 161 8.5Q139 31 127 60Q115 89 115 120L115 648Q115 679 127 708Q139 737 161 759.5Q183 782 212 794Q241 806 273 806ZM800 737L273 737Q236 737 209.5 711Q183 685 183 648L183 120Q183 83 209.5 57Q236 31 273 31L800 31Q837 31 863.5 57Q890 83 890 120L890 648Q890 685 863.5 711Q837 737 800 737ZM439 573ZM473 573L747 573Q782 573 782 538L782 538Q782 504 747 504L473 504Q439 504 439 538L439 538Q439 573 473 573ZM439 414ZM473 414L747 414Q782 414 782 380L782 380Q782 346 747 346L473 346Q439 346 439 380L439 380Q439 414 473 414ZM439 256ZM473 256L747 256Q782 256 782 222L782 222Q782 188 747 188L473 188Q439 188 439 222L439 222Q439 256 473 256ZM334 538ZM281 538Q281 524 288 512Q295 500 307 493Q319 486 333.5 486Q348 486 360 493Q372 500 379 512Q386 524 386 538Q386 552 379 564.5Q372 577 360 584Q348 591 333.5 591Q319 591 307 584Q295 577 288 564.5Q281 552 281 538ZM334 380ZM281 380Q281 366 288 353.5Q295 341 307 334Q319 327 333.5 327Q348 327 360 334Q372 341 379 353.5Q386 366 386 380Q386 394 379 406.5Q372 419 360 426Q348 433 333.5 433Q319 433 307 426Q295 419 288 406.5Q281 394 281 380ZM334 222ZM281 222Q281 208 288 195.5Q295 183 307 176Q319 169 333.5 169Q348 169 360 176Q372 183 379 195.5Q386 208 386 222Q386 236 379 248.5Q372 261 360 268Q348 275 333.5 275Q319 275 307 268Q295 261 288 248.5Q281 236 281 222Z" transform="translate(0 896) scale(1 -1)" fill="currentColor" /></svg>