<svg xmlns="http://www.w3.org/2000/svg" viewBox="0 0 1024 1024" fill="none"><path d="M116 116ZM177 116L542 116Q603 116 603 55L603 55Q603 -5 542 -5L177 -5Q116 -5 116 55L116 55Q116 116 177 116ZM1029 725L1029 646L317 646L317 55L299 55Q274 55 256 73Q238 91 238 116L238 664Q238 689 256 707Q274 725 299 725ZM1029 542Q1054 542 1072 524.5Q1090 507 1090 481L1090 55Q1090 30 1072 12.5Q1054 -5 1029 -5L786 -5Q761 -5 743 12.5Q725 30 725 55L725 481Q725 507 743 524.5Q761 542 786 542ZM1011 463L804 463L804 74L1011 74ZM786 116L1029 116L1029 -5L786 -5Z" transform="translate(0 896) scale(1 -1)" fill="currentColor" /></svg>