<svg xmlns="http://www.w3.org/2000/svg" viewBox="0 0 1024 1024" fill="none"><path d="M269 296L157 296L136 234L70 234L178 536L250 536L357 234L288 234ZM251 348L213 467L174 348ZM533 234L396 234L396 536L543 536Q598 536 622 504Q636 485 636 458Q636 431 622 414Q612 403 599 396Q622 388 633.5 369.5Q645 351 645 325Q645 299 632 277Q623 262 608 252Q593 242 576 238Q555 234 533 234ZM532 367L456 367L456 287L531 287Q550 287 562 292Q582 302 582 330Q582 353 562 362Q551 367 532 367ZM563 425Q575 432 575 452.5Q575 473 558 478.5Q541 484 523 484L456 484L456 417L531 417Q550 417 563 425ZM912 257Q878 226 825 226Q760 226 722.5 268Q685 310 685 383Q685 462 728 505Q764 542 822 542Q898 542 933 492Q953 464 954 436L891 436Q885 457 875 469Q858 488 824 488Q790 488 770 460.5Q750 433 750 382Q750 331 771 305.5Q792 280 824.5 280Q857 280 875 302Q884 314 891 337L953 337Q945 288 912 257Z" transform="translate(0 896) scale(1 -1)" fill="currentColor" /></svg>