<svg xmlns="http://www.w3.org/2000/svg" viewBox="0 0 1024 1024" fill="none"><path d="M799 700Q842 700 878.5 679Q915 658 936.5 621.5Q958 585 958 542L958 226Q958 183 936.5 146.5Q915 110 878.5 89Q842 68 799 68L272 68Q229 68 192.5 89Q156 110 135 146.5Q114 183 114 226L114 542Q114 585 135 621.5Q156 658 192.5 679Q229 700 272 700ZM799 632L272 632Q235 632 208.5 605.5Q182 579 182 542L182 226Q182 189 208.5 162.5Q235 136 272 136L799 136Q837 136 863 162.5Q889 189 889 226L889 542Q889 579 863 605.5Q837 632 799 632ZM246 569ZM298 569L773 569Q826 569 826 516L826 252Q826 199 773 199L298 199Q246 199 246 252L246 516Q246 569 298 569Z" transform="translate(0 896) scale(1 -1)" fill="currentColor" /></svg>