<svg xmlns="http://www.w3.org/2000/svg" viewBox="0 0 1024 1024" fill="none"><path d="M799 700Q842 700 878.5 679Q915 658 936.5 621.5Q958 585 958 542L958 226Q958 183 936.5 146.5Q915 110 878.5 89Q842 68 799 68L272 68Q229 68 192.5 89Q156 110 135 146.5Q114 183 114 226L114 542Q114 585 135 621.5Q156 658 192.5 679Q229 700 272 700ZM799 632L272 632Q235 632 208.5 605.5Q182 579 182 542L182 226Q182 189 208.5 162.5Q235 136 272 136L799 136Q837 136 863 162.5Q889 189 889 226L889 542Q889 579 863 605.5Q837 632 799 632ZM350 325L267 325L251 279L201 279L282 506L336 506L417 279L365 279ZM337 365L309 454L279 365ZM550 279L446 279L446 506L557 506Q599 506 616 482Q627 467 627 446.5Q627 426 616 414Q610 407 599 401Q616 394 625 380.5Q634 367 634 347Q634 327 624 311Q609 287 582 282Q567 279 550 279ZM549 379L492 379L492 318L548 318Q563 318 571 322Q586 330 586 351Q586 368 571 375Q560 379 548 379ZM572 422Q581 428 581 443Q581 458 568.5 462.5Q556 467 542 467L492 467L492 416L548 416Q563 416 572 422ZM835 296Q809 272 770 272Q720 272 692 303.5Q664 335 664 391Q664 450 696 482Q724 511 767 511Q824 511 851 473Q866 452 867 430L819 430Q816 444 807 455Q794 470 769 470Q757 470 746 464.5Q735 459 728 449Q713 428 713 389.5Q713 351 729 332Q745 313 769.5 313Q794 313 807 330Q814 338 819 356L866 356Q860 319 835 296Z" transform="translate(0 896) scale(1 -1)" fill="currentColor" /></svg>