<svg xmlns="http://www.w3.org/2000/svg" viewBox="0 0 1024 1024" fill="none"><path d="M351 705ZM277 705Q277 675 299 653Q321 631 351.5 631Q382 631 403.5 653Q425 675 425 705.5Q425 736 403.5 758Q382 780 351.5 780Q321 780 299 758Q277 736 277 705ZM673 705ZM599 705Q599 675 620.5 653Q642 631 672.5 631Q703 631 725 653Q747 675 747 705.5Q747 736 725 758Q703 780 672.5 780Q642 780 620.5 758Q599 736 599 705ZM351 384ZM277 384Q277 353 299 331.5Q321 310 351.5 310Q382 310 403.5 331.5Q425 353 425 384Q425 415 403.5 436.5Q382 458 351.5 458Q321 458 299 436.5Q277 415 277 384ZM673 384ZM599 384Q599 353 620.5 331.5Q642 310 672.5 310Q703 310 725 331.5Q747 353 747 384Q747 415 725 436.5Q703 458 672.5 458Q642 458 620.5 436.5Q599 415 599 384ZM351 63ZM277 63Q277 32 299 10Q321 -12 351.5 -12Q382 -12 403.5 10Q425 32 425 62.5Q425 93 403.5 115Q382 137 351.5 137Q321 137 299 115Q277 93 277 63ZM673 63ZM599 63Q599 32 620.5 10Q642 -12 672.5 -12Q703 -12 725 10Q747 32 747 62.5Q747 93 725 115Q703 137 672.5 137Q642 137 620.5 115Q599 93 599 63Z" transform="translate(0 896) scale(1 -1)" fill="currentColor" /></svg>