<svg xmlns="http://www.w3.org/2000/svg" viewBox="0 0 1024 1024" fill="none"><path d="M562 752L903 411Q914 400 914 384Q914 368 903 357L562 16Q550 4 534 4Q518 4 507 15.5Q496 27 496 43Q496 59 507 70L821 384L507 698Q500 705 497 715Q494 725 497 735Q500 745 507 752.5Q514 760 524 762.5Q534 765 544 762.5Q554 760 562 752ZM176 752L517 411Q528 400 528 384Q528 368 517 357L176 16Q165 4 149 4Q133 4 121.5 15.5Q110 27 110 43Q110 59 121 70L435 384L121 698Q110 709 110 725Q110 741 121.5 752.5Q133 764 149 764Q165 764 176 752Z" transform="translate(0 896) scale(1 -1)" fill="currentColor" /></svg>