<svg xmlns="http://www.w3.org/2000/svg" viewBox="0 0 1024 1024" fill="none"><path d="M564 736Q647 736 728 700Q801 668 862 612Q919 559 952.5 497.5Q986 436 986 384.5Q986 333 952 272Q918 211 861 157Q799 101 726 68Q646 33 564 33Q482 33 402 68Q329 101 267 157Q210 211 176 272Q142 333 142 384.5Q142 436 175.5 497.5Q209 559 266 612Q327 668 400 700Q481 736 564 736ZM564 667Q501 667 435 640Q374 614 322.5 571Q271 528 241 478Q211 428 211 385Q211 342 241.5 292Q272 242 324 198.5Q376 155 436 129Q502 101 564 101Q626 101 691 129Q752 155 804 198.5Q856 242 886.5 292Q917 342 917 385Q917 428 887 478Q857 528 805.5 571Q754 614 693 640Q627 667 564 667ZM564 553Q610 553 648.5 530Q687 507 710 468.5Q733 430 733 384Q733 338 710 299.5Q687 261 648.5 238Q610 215 564 215Q518 215 479.5 238Q441 261 418 299.5Q395 338 395 384Q395 430 417.5 468.5Q440 507 479 530Q518 553 564 553ZM564 484Q537 484 514 470.5Q491 457 477.5 434Q464 411 464 384Q464 357 477.5 334Q491 311 514 297.5Q537 284 564 284Q591 284 614 297.5Q637 311 650.5 334Q664 357 664 384Q664 411 650.5 434Q637 457 614 470.5Q591 484 564 484Z" transform="translate(0 896) scale(1 -1)" fill="currentColor" /></svg>