<svg xmlns="http://www.w3.org/2000/svg" viewBox="0 0 1024 1024" fill="none"><path d="M141 358ZM188 358L285 358Q331 358 331 311L331 80Q331 33 285 33L188 33Q141 33 141 80L141 311Q141 358 188 358ZM561 358Q580 358 593.5 344Q607 330 607 311L607 79Q607 60 593.5 46.5Q580 33 561 33L463 33Q444 33 430.5 46.5Q417 60 417 79L417 311Q417 330 430.5 344Q444 358 463 358ZM547 297L477 297L477 93L547 93ZM693 358ZM739 358L836 358Q883 358 883 311L883 80Q883 33 836 33L739 33Q693 33 693 80L693 311Q693 358 739 358ZM417 735ZM463 735L561 735Q607 735 607 688L607 457Q607 410 561 410L463 410Q417 410 417 457L417 688Q417 735 463 735ZM285 735Q304 735 317.5 721.5Q331 708 331 689L331 457Q331 438 317.5 424Q304 410 285 410L188 410Q168 410 154.5 424Q141 438 141 457L141 689Q141 708 154.5 721.5Q168 735 188 735ZM271 675L201 675L201 471L271 471ZM836 735Q856 735 869.5 721.5Q883 708 883 689L883 457Q883 438 869.5 424Q856 410 836 410L739 410Q720 410 706.5 424Q693 438 693 457L693 689Q693 708 706.5 721.5Q720 735 739 735ZM823 675L753 675L753 471L823 471Z" transform="translate(0 896) scale(1 -1)" fill="currentColor" /></svg>