<svg xmlns="http://www.w3.org/2000/svg" viewBox="0 0 1024 1024" fill="none"><path d="M411 557ZM460 557L564 557Q613 557 613 508L613 260Q613 211 564 211L460 211Q411 211 411 260L411 508Q411 557 460 557ZM270 557Q290 557 304.5 542.5Q319 528 319 508L319 260Q319 240 304.5 225.5Q290 211 270 211L166 211Q145 211 130.5 225.5Q116 240 116 260L116 508Q116 528 130.5 542.5Q145 557 166 557ZM255 493L181 493L181 275L255 275ZM858 557Q879 557 893.5 542.5Q908 528 908 508L908 260Q908 240 893.5 225.5Q879 211 858 211L754 211Q734 211 719.5 225.5Q705 240 705 260L705 508Q705 528 719.5 542.5Q734 557 754 557ZM843 493L769 493L769 275L843 275Z" transform="translate(0 896) scale(1 -1)" fill="currentColor" /></svg>