<svg xmlns="http://www.w3.org/2000/svg" viewBox="0 0 1024 1024" fill="none"><path d="M737 780Q778 780 812 760Q846 740 866 705.5Q886 671 886 631L886 137Q886 97 866 62.5Q846 28 812 8Q778 -12 737 -12L287 -12Q247 -12 213 8Q179 28 159 62.5Q139 97 139 137L139 631Q139 671 159 705.5Q179 740 213 760Q247 780 287 780ZM737 715L287 715Q252 715 227.5 690.5Q203 666 203 631L203 137Q203 102 227.5 77.5Q252 53 287 53L737 53Q772 53 797 77.5Q822 102 822 137L822 631Q822 666 797 690.5Q772 715 737 715ZM315 604ZM347 604L678 604Q710 604 710 572L710 572Q710 539 678 539L347 539Q315 539 315 572L315 572Q315 604 347 604ZM315 427ZM347 427L549 427Q582 427 582 395L582 395Q582 363 549 363L347 363Q315 363 315 395L315 395Q315 427 347 427ZM315 251ZM347 251L628 251Q661 251 661 219L661 219Q661 186 628 186L347 186Q315 186 315 219L315 219Q315 251 347 251Z" transform="translate(0 896) scale(1 -1)" fill="currentColor" /></svg>