<svg xmlns="http://www.w3.org/2000/svg" viewBox="0 0 1024 1024" fill="none"><path d="M660 631Q687 631 710 618Q733 605 746 582Q759 559 759 532L759 87Q759 61 746 38Q733 15 710 1.5Q687 -12 660 -12L215 -12Q196 -12 177.5 -4Q159 4 145.5 17.5Q132 31 124 49.5Q116 68 116 87L116 532Q116 552 124 570Q132 588 145.5 602Q159 616 177.5 623.5Q196 631 215 631ZM660 567L215 567Q201 567 191 557Q181 547 181 532L181 87Q181 73 191 63Q201 53 215 53L660 53Q675 53 685 63Q695 73 695 87L695 532Q695 547 685 557Q675 567 660 567ZM809 780Q828 780 846.5 772Q865 764 878.5 750.5Q892 737 900 718.5Q908 700 908 681L908 236L843 236L843 681Q843 695 833 705Q823 715 809 715L364 715L364 780Z" transform="translate(0 896) scale(1 -1)" fill="currentColor" /></svg>