<svg xmlns="http://www.w3.org/2000/svg" viewBox="0 0 1024 1024" fill="none"><path d="M759 780Q799 780 833.5 760Q868 740 888 705.5Q908 671 908 631L908 137Q908 97 888 62.5Q868 28 833.5 8Q799 -12 759 -12L265 -12Q225 -12 190.5 8Q156 28 136 62.5Q116 97 116 137L116 631Q116 671 136 705.5Q156 740 190.5 760Q225 780 265 780ZM759 715L265 715Q230 715 205.5 690.5Q181 666 181 631L181 137Q181 102 205.5 77.5Q230 53 265 53L759 53Q794 53 818.5 77.5Q843 102 843 137L843 631Q843 666 818.5 690.5Q794 715 759 715ZM148 541L876 541L876 477L148 477ZM238 661ZM275 661L275 661Q312 661 312 624L312 624Q312 587 275 587L275 587Q238 587 238 624L238 624Q238 661 275 661ZM361 661ZM398 661L398 661Q435 661 435 624L435 624Q435 587 398 587L398 587Q361 587 361 624L361 624Q361 661 398 661ZM485 661ZM522 661L522 661Q559 661 559 624L559 624Q559 587 522 587L522 587Q485 587 485 624L485 624Q485 661 522 661Z" transform="translate(0 896) scale(1 -1)" fill="currentColor" /></svg>