<svg xmlns="http://www.w3.org/2000/svg" viewBox="0 0 1024 1024" fill="none"><path d="M776 753Q819 753 855 732Q891 711 912.5 674.5Q934 638 934 595L934 173Q934 130 912.5 93.5Q891 57 855 36Q819 15 776 15L248 15Q205 15 169 36Q133 57 111.5 93.5Q90 130 90 173L90 595Q90 638 111.5 674.5Q133 711 169 732Q205 753 248 753ZM776 685L248 685Q211 685 185 658.5Q159 632 159 595L159 173Q159 136 185 109.5Q211 83 248 83L776 83Q813 83 839 109.5Q865 136 865 173L865 595Q865 632 839 658.5Q813 685 776 685ZM445 630Q467 630 482 614.5Q497 599 497 577L497 471Q497 450 482 434.5Q467 419 445 419L260 419Q238 419 222.5 434.5Q207 450 207 471L207 577Q207 599 222.5 614.5Q238 630 260 630ZM439 572L265 572L265 477L439 477ZM439 366Q461 366 476.5 350.5Q492 335 492 313L492 208Q492 186 476.5 170.5Q461 155 439 155L260 155Q238 155 222.5 170.5Q207 186 207 208L207 313Q207 335 222.5 350.5Q238 366 260 366ZM434 308L265 308L265 213L434 213ZM766 366Q788 366 803.5 350.5Q819 335 819 313L819 208Q819 186 803.5 170.5Q788 155 766 155L587 155Q565 155 549.5 170.5Q534 186 534 208L534 313Q534 335 549.5 350.5Q565 366 587 366ZM761 308L592 308L592 213L761 213ZM613 524ZM561 524Q561 502 576 486.5Q591 471 613 471Q635 471 650.5 486.5Q666 502 666 524Q666 546 650.5 561.5Q635 577 613 577Q591 577 576 561.5Q561 546 561 524ZM740 524ZM687 524Q687 502 702.5 486.5Q718 471 740 471Q762 471 777.5 486.5Q793 502 793 524Q793 546 777.5 561.5Q762 577 740 577Q718 577 702.5 561.5Q687 546 687 524Z" transform="translate(0 896) scale(1 -1)" fill="currentColor" /></svg>