<svg xmlns="http://www.w3.org/2000/svg" viewBox="0 0 1024 1024" fill="none"><path d="M759 780Q799 780 833.5 760Q868 740 888 705.5Q908 671 908 631L908 137Q908 97 888 62.5Q868 28 833.5 8Q799 -12 759 -12L265 -12Q225 -12 190.5 8Q156 28 136 62.5Q116 97 116 137L116 631Q116 671 136 705.5Q156 740 190.5 760Q225 780 265 780ZM759 715L265 715Q230 715 205.5 690.5Q181 666 181 631L181 137Q181 102 205.5 77.5Q230 53 265 53L759 53Q794 53 818.5 77.5Q843 102 843 137L843 631Q843 666 818.5 690.5Q794 715 759 715ZM279 582ZM309 582L309 582Q339 582 339 552L339 216Q339 186 309 186L309 186Q279 186 279 216L279 552Q279 582 309 582ZM547 582Q601 582 646 555.5Q691 529 718 483.5Q745 438 745 384Q745 330 718 284.5Q691 239 646 212.5Q601 186 547 186L403 186L403 582ZM547 522L462 522L462 246L547 246Q584 246 616 264.5Q648 283 666.5 314.5Q685 346 685 384Q685 422 666.5 453.5Q648 485 616 503.5Q584 522 547 522Z" transform="translate(0 896) scale(1 -1)" fill="currentColor" /></svg>