<svg xmlns="http://www.w3.org/2000/svg" viewBox="0 0 1024 1024" fill="none"><path d="M143 730ZM192 730L291 730Q341 730 341 681L341 458Q341 409 291 409L192 409Q143 409 143 458L143 681Q143 730 192 730ZM143 359ZM192 359L291 359Q341 359 341 310L341 87Q341 38 291 38L192 38Q143 38 143 87L143 310Q143 359 192 359ZM413 730ZM463 730L561 730Q611 730 611 681L611 458Q611 409 561 409L463 409Q413 409 413 458L413 681Q413 730 463 730ZM413 359ZM463 359L561 359Q611 359 611 310L611 87Q611 38 561 38L463 38Q413 38 413 87L413 310Q413 359 463 359ZM683 730ZM733 730L832 730Q881 730 881 681L881 458Q881 409 832 409L733 409Q683 409 683 458L683 681Q683 730 733 730ZM683 359ZM733 359L832 359Q881 359 881 310L881 87Q881 38 832 38L733 38Q683 38 683 87L683 310Q683 359 733 359Z" transform="translate(0 896) scale(1 -1)" fill="currentColor" /></svg>