<svg xmlns="http://www.w3.org/2000/svg" viewBox="0 0 1024 1024" fill="none"><path d="M636 656Q709 656 771.5 619.5Q834 583 871 520.5Q908 458 908 384Q908 310 871 247.5Q834 185 771.5 148.5Q709 112 636 112L561 112L561 176L636 176Q692 176 739.5 204Q787 232 815 280Q843 328 843 384Q843 440 815 488Q787 536 739.5 564Q692 592 636 592L561 592L561 656ZM463 592L388 592Q333 592 284.5 564Q236 536 208.5 488Q181 440 181 384Q181 328 208.5 280Q236 232 284.5 204Q333 176 388 176L463 176L463 112L388 112Q315 112 252.5 148.5Q190 185 153 247.5Q116 310 116 384Q116 458 153 520.5Q190 583 252.5 619.5Q315 656 388 656L463 656ZM314 416ZM346 416L678 416Q710 416 710 384L710 384Q710 352 678 352L346 352Q314 352 314 384L314 384Q314 416 346 416Z" transform="translate(0 896) scale(1 -1)" fill="currentColor" /></svg>