<svg xmlns="http://www.w3.org/2000/svg" viewBox="0 0 1024 1024" fill="none"><path d="M541 622Q498 622 461.5 600.5Q425 579 403.5 543Q382 507 382 463.5Q382 420 403.5 383.5Q425 347 461.5 326Q498 305 541 305Q584 305 620.5 326Q657 347 678.5 383.5Q700 420 700 463.5Q700 507 678.5 543Q657 579 620.5 600.5Q584 622 541 622ZM541 379Q506 379 481.5 404Q457 429 457 463.5Q457 498 481.5 523Q506 548 541 548Q576 548 600.5 523Q625 498 625 463.5Q625 429 600.5 404Q576 379 541 379ZM541 808Q472 808 409 781.5Q346 755 297.5 707Q249 659 223 595.5Q197 532 197 463Q197 327 286 196Q350 103 452 23Q503 -18 541 -40L556 -31Q574 -19 595 -4Q623 16 650 39Q683 67 713 97Q748 132 776 169Q808 212 831 255Q857 304 870 354Q885 408 885 463Q885 532 859 595Q833 658 784.5 706.5Q736 755 672.5 781.5Q609 808 541 808ZM541 47Q489 82 440 128Q369 196 327 269Q274 364 274 460Q274 535 309.5 598Q345 661 406.5 698Q468 735 541 735Q614 735 675 698Q736 661 772 598Q808 535 808 460Q808 364 754 269Q713 196 641 128Q593 82 541 47Z" transform="translate(0 896) scale(1 -1)" fill="currentColor" /></svg>