<svg xmlns="http://www.w3.org/2000/svg" viewBox="0 0 1024 1024" fill="none"><path d="M783 864Q808 864 825.5 846.5Q843 829 843 804L843 -36Q843 -61 825.5 -78.5Q808 -96 783 -96L303 -96Q278 -96 260.5 -78.5Q243 -61 243 -36L243 804Q243 829 260.5 846.5Q278 864 303 864ZM783 804L303 804L303 -36L783 -36ZM243 864ZM297 864L789 864Q843 864 843 810L843 810Q843 756 789 756L297 756Q243 756 243 810L243 810Q243 864 297 864ZM243 12ZM297 12L789 12Q843 12 843 -42L843 -42Q843 -96 789 -96L297 -96Q243 -96 243 -42L243 -42Q243 12 297 12Z" transform="translate(0 896) scale(1 -1)" fill="currentColor" /></svg>