<svg xmlns="http://www.w3.org/2000/svg" viewBox="0 0 1024 1024" fill="none"><path d="M823 806Q846 806 862.5 789.5Q879 773 879 750L879 18Q879 -5 862.5 -21.5Q846 -38 823 -38L288 -38Q265 -38 248.5 -21.5Q232 -5 232 18L232 750Q232 773 248.5 789.5Q265 806 288 806ZM823 750L288 750L288 18L823 18ZM232 806ZM283 806L828 806Q879 806 879 755L879 755Q879 705 828 705L283 705Q232 705 232 755L232 755Q232 806 283 806ZM232 63ZM283 63L828 63Q879 63 879 13L879 13Q879 -38 828 -38L283 -38Q232 -38 232 13L232 13Q232 63 283 63Z" transform="translate(0 896) scale(1 -1)" fill="currentColor" /></svg>