<svg xmlns="http://www.w3.org/2000/svg" viewBox="0 0 1024 1024" fill="none"><path d="M485 806Q499 805 508 794.5Q517 784 517 770.5Q517 757 507 747.5Q497 738 484 737L485 737L274 737Q237 737 210.5 711Q184 685 184 648L184 120Q184 83 210.5 57Q237 31 274 31L801 31Q839 31 865 57Q891 83 891 120L891 331Q891 341 896 348.5Q901 356 909 360.5Q917 365 926.5 364.5Q936 364 943.5 359.5Q951 355 955.5 346.5Q960 338 960 329L959 331L960 120Q960 77 938.5 41Q917 5 880.5 -16.5Q844 -38 801 -38L274 -38Q231 -38 194.5 -16.5Q158 5 137 41Q116 77 116 120L116 648Q116 679 128 708Q140 737 162 759.5Q184 782 213.5 794Q243 806 274 806ZM951 796Q961 786 961 771.5Q961 757 951 747L559 355L732 355Q745 355 754.5 347Q764 339 766 326L766 321Q766 307 756 297Q746 287 732 287L477 287L472 287Q459 289 450.5 298.5Q442 308 442 321L442 576Q442 586 447 594Q452 602 459.5 606.5Q467 611 476.5 611Q486 611 494 606.5Q502 602 506.5 594Q511 586 511 576L511 404L903 796Q913 806 927 806Q941 806 951 796Z" transform="translate(0 896) scale(1 -1)" fill="currentColor" /></svg>