<svg xmlns="http://www.w3.org/2000/svg" viewBox="0 0 1024 1024" fill="none"><path d="M802 737Q845 737 881.5 716Q918 695 939 658.5Q960 622 960 579L960 147Q960 104 939 67.5Q918 31 881.5 9.5Q845 -12 802 -12L275 -12Q232 -12 195.5 9.5Q159 31 137.5 67.5Q116 104 116 147L116 579Q116 622 137.5 658.5Q159 695 195.5 716Q232 737 275 737ZM802 669L275 669Q238 669 211.5 642.5Q185 616 185 579L185 147Q185 110 211.5 83.5Q238 57 275 57L802 57Q839 57 865.5 83.5Q892 110 892 147L892 579Q892 616 865.5 642.5Q839 669 802 669ZM275 590ZM306 590L401 590Q433 590 433 558L433 168Q433 136 401 136L306 136Q275 136 275 168L275 558Q275 590 306 590Z" transform="translate(0 896) scale(1 -1)" fill="currentColor" /></svg>