<svg xmlns="http://www.w3.org/2000/svg" viewBox="0 0 1024 1024" fill="none"><path d="M308 748Q315 756 325.5 758.5Q336 761 346 758.5Q356 756 364 748.5Q372 741 374.5 730.5Q377 720 374 709.5Q371 699 363 692L252 581L630 581Q716 581 790 537Q861 495 903 424Q947 350 947 264L947 38Q947 21 935 9.5Q923 -2 907 -2Q891 -2 879 9.5Q867 21 867 38L867 264Q867 329 835.5 383.5Q804 438 749.5 469.5Q695 501 630 501L256 501L364 394Q374 384 375 369Q376 354 367 343L364 338Q352 327 335.5 327Q319 327 308 338L134 511Q121 524 123 543Q121 562 134 575Z" transform="translate(0 896) scale(1 -1)" fill="currentColor" /></svg>