<svg xmlns="http://www.w3.org/2000/svg" viewBox="0 0 1024 1024" fill="none"><path d="M533 736Q616 736 697 700Q770 668 831 612Q888 559 921.5 497.5Q955 436 955 384.5Q955 333 921 272Q887 211 829 157Q768 101 695 68Q615 33 533 33Q451 33 370 68Q298 101 236 157Q179 211 145 272Q111 333 111 384.5Q111 436 144 497.5Q177 559 235 612Q295 668 369 700Q449 736 533 736ZM533 553Q499 553 468 540Q437 527 413.5 503.5Q390 480 377 449Q364 418 364 384Q364 338 387 299.5Q410 261 448.5 238Q487 215 533 215Q579 215 617.5 238Q656 261 679 299.5Q702 338 702 384Q702 430 679 468.5Q656 507 617 530Q578 553 533 553ZM533 484Q560 484 583 470.5Q606 457 619.5 434Q633 411 633 384Q633 357 619.5 334Q606 311 583 297.5Q560 284 533 284Q506 284 483 297.5Q460 311 446.5 334Q433 357 433 384Q433 411 446 434Q459 457 482 470.5Q505 484 533 484Z" transform="translate(0 896) scale(1 -1)" fill="currentColor" /></svg>