<svg xmlns="http://www.w3.org/2000/svg" viewBox="0 0 1024 1024" fill="none"><path d="M800 605Q829 605 853.5 591Q878 577 892 552.5Q906 528 906 500L906 268Q906 240 892 215.5Q878 191 853.5 177Q829 163 800 163L765 163L765 231L800 231Q816 231 826.5 242Q837 253 837 268L837 500Q837 515 826.5 526Q816 537 800 537L224 537Q208 537 197.5 526Q187 515 187 500L187 268Q187 253 197.5 242Q208 231 224 231L259 231L259 163L224 163Q195 163 170.5 177Q146 191 132 215.5Q118 240 118 268L118 500Q118 528 132 552.5Q146 577 170.5 591Q195 605 224 605ZM327 542L259 542L259 753Q259 775 274.5 790.5Q290 806 312 806L712 806Q734 806 749.5 790.5Q765 775 765 753L765 542L697 542L697 737L327 737ZM749 463ZM697 463Q697 441 712 425.5Q727 410 749 410Q771 410 786.5 425.5Q802 441 802 463Q802 485 786.5 500.5Q771 516 749 516Q727 516 712 500.5Q697 485 697 463ZM712 384Q734 384 749.5 368.5Q765 353 765 331L765 15Q765 -7 749.5 -22.5Q734 -38 712 -38L312 -38Q290 -38 274.5 -22.5Q259 -7 259 15L259 331Q259 353 274.5 368.5Q290 384 312 384ZM697 315L327 315L327 31L697 31ZM380 247ZM404 247L620 247Q644 247 644 223L644 218Q644 194 620 194L404 194Q380 194 380 218L380 223Q380 247 404 247ZM380 147ZM404 147L620 147Q644 147 644 123L644 118Q644 94 620 94L404 94Q380 94 380 118L380 123Q380 147 404 147Z" transform="translate(0 896) scale(1 -1)" fill="currentColor" /></svg>