<svg xmlns="http://www.w3.org/2000/svg" viewBox="0 0 1024 1024" fill="none"><path d="M426 780Q446 780 460.5 765.5Q475 751 475 730L475 470Q475 450 460.5 435.5Q446 421 426 421L166 421Q145 421 130.5 435.5Q116 450 116 470L116 730Q116 751 130.5 765.5Q145 780 166 780ZM411 715L181 715L181 485L411 485ZM261 635ZM271 635L323 635Q333 635 333 625L333 573Q333 563 323 563L271 563Q261 563 261 573L261 625Q261 635 271 635ZM858 780Q879 780 893.5 765.5Q908 751 908 730L908 470Q908 450 893.5 435.5Q879 421 858 421L598 421Q578 421 563.5 435.5Q549 450 549 470L549 730Q549 751 563.5 765.5Q578 780 598 780ZM843 715L613 715L613 485L843 485ZM694 635ZM704 635L755 635Q765 635 765 625L765 573Q765 563 755 563L704 563Q694 563 694 573L694 625Q694 635 704 635ZM426 347Q446 347 460.5 332.5Q475 318 475 298L475 38Q475 17 460.5 2.5Q446 -12 426 -12L166 -12Q145 -12 130.5 2.5Q116 17 116 38L116 298Q116 318 130.5 332.5Q145 347 166 347ZM411 283L181 283L181 53L411 53ZM261 202ZM271 202L323 202Q333 202 333 192L333 141Q333 131 323 131L271 131Q261 131 261 141L261 192Q261 202 271 202ZM549 347ZM559 347L603 347Q613 347 613 337L613 -2Q613 -12 603 -12L559 -12Q549 -12 549 -2L549 337Q549 347 559 347ZM696 347ZM706 347L750 347Q760 347 760 337L760 146Q760 136 750 136L706 136Q696 136 696 146L696 337Q696 347 706 347ZM843 347ZM853 347L898 347Q908 347 908 337L908 146Q908 136 898 136L853 136Q843 136 843 146L843 337Q843 347 853 347ZM696 201ZM706 201L898 201Q908 201 908 191L908 146Q908 136 898 136L706 136Q696 136 696 146L696 191Q696 201 706 201ZM549 347ZM559 347L750 347Q760 347 760 337L760 293Q760 283 750 283L559 283Q549 283 549 293L549 337Q549 347 559 347ZM696 63ZM706 63L750 63Q760 63 760 53L760 -2Q760 -12 750 -12L706 -12Q696 -12 696 -2L696 53Q696 63 706 63ZM843 63ZM853 63L898 63Q908 63 908 53L908 -2Q908 -12 898 -12L853 -12Q843 -12 843 -2L843 53Q843 63 853 63Z" transform="translate(0 896) scale(1 -1)" fill="currentColor" /></svg>