<svg xmlns="http://www.w3.org/2000/svg" viewBox="0 0 1024 1024" fill="none"><path d="M532 806Q647 806 745 748Q841 692 897 597Q954 499 954 384Q954 269 897 171Q841 76 745 20Q647 -38 532.5 -38Q418 -38 319 20Q224 76 168 171Q111 269 111 384Q111 499 168 597Q224 692 319 748Q418 806 532 806ZM528 216Q511 217 499 205.5Q487 194 487 176Q487 158 499 146Q511 134 528 134Q545 134 557.5 146Q570 158 570 175Q570 192 558 204.5Q546 217 528 216ZM538 634Q464 634 423 588Q383 546 383 473L437 473Q437 523 459 552Q484 586 536 586Q580 586 603 562Q626 538 626 498Q626 469 605 444Q601 438 582 419Q527 370 513 339Q500 311 501 280L501 264L555 264L555 280Q555 308 568 330Q579 349 601 368Q645 407 656 420Q682 455 682 501Q682 562 643 598Q604 634 538 634Z" transform="translate(0 896) scale(1 -1)" fill="currentColor" /></svg>