<svg xmlns="http://www.w3.org/2000/svg" viewBox="0 0 1024 1024" fill="none"><path d="M864 806Q878 806 888 796Q898 786 898 772L898 550Q898 536 888 526Q878 516 864 516L642 516Q628 516 618 526Q608 536 608 550Q608 564 618 574Q628 584 642 584L780 584Q729 642 658 670.5Q587 699 510.5 693.5Q434 688 367 649.5Q300 611 258 547Q216 483 205.5 407.5Q195 332 219 258.5Q243 185 297 130.5Q351 76 422.5 50Q494 24 571 33Q648 42 712.5 83Q777 124 817 189Q857 254 864 331L864 334Q864 346 872.5 356Q881 366 894 367L899 368Q913 368 923.5 357Q934 346 933 331Q925 238 878 159Q831 80 754 29Q677 -22 584 -34Q491 -46 404 -16Q317 14 251.5 79Q186 144 155.5 232.5Q125 321 137 412.5Q149 504 199 581.5Q249 659 329.5 707Q410 755 502 762Q594 769 680 735.5Q766 702 829 632L829 772Q829 786 839.5 796Q850 806 864 806Z" transform="translate(0 896) scale(1 -1)" fill="currentColor" /></svg>