<svg xmlns="http://www.w3.org/2000/svg" viewBox="0 0 1024 1024" fill="none"><path d="M759 780Q799 780 833.5 760Q868 740 887.5 705.5Q907 671 907 631L907 137Q907 97 887.5 62.5Q868 28 833.5 8.5Q799 -11 759 -11L265 -11Q235 -11 208 0Q181 11 160 32Q139 53 127.5 80Q116 107 116 137L116 631Q116 671 136 705.5Q156 740 190.5 760Q225 780 265 780ZM759 715L265 715Q230 715 205.5 690.5Q181 666 181 631L181 137Q181 102 205.5 77.5Q230 53 265 53L759 53Q794 53 818.5 77.5Q843 102 843 137L843 631Q843 666 818.5 690.5Q794 715 759 715ZM423 779L423 -11L359 -11L359 779ZM665 780L665 -11L601 -11L601 780Z" transform="translate(0 896) scale(1 -1)" fill="currentColor" /></svg>