<svg xmlns="http://www.w3.org/2000/svg" viewBox="0 0 1024 1024" fill="none"><path d="M516 721Q578 721 633.5 695.5Q689 670 729 624Q769 578 786 518Q844 512 890.5 479.5Q937 447 963 396.5Q989 346 987 288Q985 230 956.5 181Q928 132 879.5 102.5Q831 73 773 70L290 70Q240 70 196 93Q152 116 123.5 156Q95 196 88.5 246Q82 296 99 342.5Q116 389 152 422.5Q188 456 237 469Q244 540 283 597.5Q322 655 383.5 688Q445 721 516 721ZM516 648Q464 648 418.5 623.5Q373 599 344 556.5Q315 514 309 462L304 412L256 399Q209 386 182 345Q155 304 161.5 255.5Q168 207 204.5 175Q241 143 290 143L769 143Q808 145 841 165Q874 185 893 218Q912 251 913.5 290Q915 329 897.5 363Q880 397 848.5 419Q817 441 779 446L730 451L716 498Q697 565 641.5 606.5Q586 648 516 648ZM392 329Q402 340 417.5 340Q433 340 443 329L485 287L606 408Q617 419 632 419Q647 419 658 408.5Q669 398 669 382.5Q669 367 658 357L511 210Q501 199 485.5 199Q470 199 459 210L392 277Q381 288 381 303Q381 318 392 329Z" transform="translate(0 896) scale(1 -1)" fill="currentColor" /></svg>