<svg xmlns="http://www.w3.org/2000/svg" viewBox="0 0 1024 1024" fill="none"><path d="M516 721Q578 721 633.5 695.5Q689 670 729 624Q769 578 786 518Q844 512 890.5 479.5Q937 447 963 396.5Q989 346 987 288Q985 230 956.5 181Q928 132 879.5 102.5Q831 73 773 70L290 70Q240 70 196 93Q152 116 123.5 156Q95 196 88.5 246Q82 296 99 342.5Q116 389 152 422.5Q188 456 237 469Q244 540 283 597.5Q322 655 383.5 688Q445 721 516 721ZM658 408Q647 419 632 419Q617 419 606 408L485 287L443 329Q433 340 417.5 340Q402 340 391.5 329Q381 318 381 303Q381 288 392 277L459 210Q470 199 485.5 199Q501 199 511 210L658 357Q669 367 669 382.5Q669 398 658 409Z" transform="translate(0 896) scale(1 -1)" fill="currentColor" /></svg>