<svg xmlns="http://www.w3.org/2000/svg" viewBox="0 0 1024 1024" fill="none"><path d="M447 798Q535 798 611 754Q687 710 731 633.5Q775 557 775 469Q775 381 731 305Q687 229 611 185Q535 141 446.5 141Q358 141 281 186Q207 229 163 304Q118 380 118 469.5Q118 559 163 635Q207 709 281 753Q358 798 447 798ZM447 729Q376 729 316.5 694Q257 659 222 599.5Q187 540 187 469.5Q187 399 222 339Q257 279 316.5 244.5Q376 210 446.5 210Q517 210 577 244.5Q637 279 672 339Q707 399 707 469.5Q707 540 672 599.5Q637 659 577 694Q517 729 447 729ZM608 260ZM633 285L633 285Q657 309 681 285L931 35Q955 11 931 -14L931 -14Q907 -38 882 -14L633 236Q608 260 633 285Z" transform="translate(0 896) scale(1 -1)" fill="currentColor" /></svg>