<svg xmlns="http://www.w3.org/2000/svg" viewBox="0 0 1024 1024" fill="none"><path d="M853 693Q891 693 923.5 674.5Q956 656 975 623.5Q994 591 994 553L994 215Q994 177 975 144.5Q956 112 923.5 93.5Q891 75 853 75L234 75Q196 75 163.5 93.5Q131 112 112.5 144.5Q94 177 94 215L94 553Q94 591 112.5 623.5Q131 656 163.5 674.5Q196 693 234 693ZM853 626L234 626Q204 626 182.5 604.5Q161 583 161 553L161 215Q161 185 182.5 163.5Q204 142 234 142L853 142Q883 142 904.5 163.5Q926 185 926 215L926 553Q926 583 904.5 604.5Q883 626 853 626ZM347 525Q331 509 312 497.5Q293 486 271 480L271 435Q310 446 336 469L336 243L382 243L382 525ZM812 581Q836 581 852.5 564.5Q869 548 869 525L869 243Q869 220 852.5 203.5Q836 187 812 187L587 187Q564 187 547.5 203.5Q531 220 531 243L531 525Q531 548 547.5 564.5Q564 581 587 581ZM704 507Q665 507 641.5 481.5Q618 456 617 415L657 415Q658 444 669 458.5Q680 473 701.5 473Q723 473 733.5 463.5Q744 454 744 434Q744 414 728 396Q717 385 695 369Q653 341 640 325Q615 298 616 261L784 261L784 296L665 296Q673 314 710 338.5Q747 363 760 377Q784 403 784 434.5Q784 466 761.5 486.5Q739 507 704 507Z" transform="translate(0 896) scale(1 -1)" fill="currentColor" /></svg>