<svg xmlns="http://www.w3.org/2000/svg" viewBox="0 0 1024 1024" fill="none"><path d="M800 806Q843 806 879 784.5Q915 763 936.5 727Q958 691 958 648L958 120Q958 77 936.5 41Q915 5 879 -16.5Q843 -38 800 -38L272 -38Q229 -38 193 -16.5Q157 5 135.5 41Q114 77 114 120L114 648Q114 691 135.5 727Q157 763 193 784.5Q229 806 272 806ZM800 737L272 737Q235 737 209 711Q183 685 183 648L183 120Q183 83 209 57Q235 31 272 31L800 31Q837 31 863 57Q889 83 889 120L889 648Q889 685 863 711Q837 737 800 737ZM299 510Q309 520 323.5 520Q338 520 348 510L536 321L724 510Q731 516 740 518.5Q749 521 757.5 518.5Q766 516 772.5 509.5Q779 503 781.5 494Q784 485 781.5 476.5Q779 468 773 461L561 249Q551 239 536.5 239Q522 239 512 249L299 461Q289 471 289 485.5Q289 500 299 510Z" transform="translate(0 896) scale(1 -1)" fill="currentColor" /></svg>