<svg xmlns="http://www.w3.org/2000/svg" viewBox="0 0 1024 1024" fill="none"><path d="M417 806Q446 806 470.5 791.5Q495 777 509 753Q523 729 523 700L523 514Q523 486 509 461.5Q495 437 470.5 423Q446 409 417 409L231 409Q203 409 178.5 423Q154 437 140 461.5Q126 486 126 514L126 700Q126 729 140 753Q154 777 178.5 791.5Q203 806 231 806ZM417 737L231 737Q216 737 205 726.5Q194 716 194 700L194 514Q194 499 205 488Q216 477 231 477L417 477Q433 477 443.5 488Q454 499 454 514L454 700Q454 716 443.5 726.5Q433 737 417 737ZM573 642ZM607 642L935 642Q970 642 970 607L970 607Q970 573 935 573L607 573Q573 573 573 607L573 607Q573 642 607 642ZM805 806ZM805 772L805 443Q805 409 771 409L771 409Q737 409 737 443L737 772Q737 806 771 806L771 806Q805 806 805 772ZM417 359Q446 359 470.5 345Q495 331 509 306.5Q523 282 523 254L523 68Q523 39 509 15Q495 -9 470.5 -23.5Q446 -38 417 -38L231 -38Q203 -38 178.5 -23.5Q154 -9 140 15Q126 39 126 68L126 254Q126 282 140 306.5Q154 331 178.5 345Q203 359 231 359ZM417 291L231 291Q216 291 205 280Q194 269 194 254L194 68Q194 52 205 41.5Q216 31 231 31L417 31Q433 31 443.5 41.5Q454 52 454 68L454 254Q454 269 443.5 280Q433 291 417 291ZM864 359Q893 359 917 345Q941 331 955.5 306.5Q970 282 970 254L970 68Q970 39 955.5 15Q941 -9 917 -23.5Q893 -38 864 -38L678 -38Q649 -38 625 -23.5Q601 -9 586.5 15Q572 39 572 68L572 254Q572 282 586.5 306.5Q601 331 625 345Q649 359 678 359ZM864 291L678 291Q663 291 652 280Q641 269 641 254L641 68Q641 52 652 41.5Q663 31 678 31L864 31Q879 31 890 41.5Q901 52 901 68L901 254Q901 269 890 280Q879 291 864 291Z" transform="translate(0 896) scale(1 -1)" fill="currentColor" /></svg>