<svg xmlns="http://www.w3.org/2000/svg" viewBox="0 0 1024 1024" fill="none"><path d="M113 73ZM145 73L876 73Q908 73 908 41L908 41Q908 9 876 9L145 9Q113 9 113 41L113 41Q113 73 145 73ZM620 792Q632 804 649.5 804Q667 804 680 792L813 658Q825 645 825 627.5Q825 610 813 598L425 211Q416 203 404 200L244 167Q234 165 224 168Q214 171 206.5 178Q199 185 196 194.5Q193 204 194 215L219 383Q221 397 231 406ZM650 730L282 366L263 237L384 262L751 628Z" transform="translate(0 896) scale(1 -1)" fill="currentColor" /></svg>