<svg xmlns="http://www.w3.org/2000/svg" viewBox="0 0 1024 1024" fill="none"><path d="M776 806Q819 806 855 784.5Q891 763 912.5 727Q934 691 934 648L934 119L934 384L865 384L865 648Q865 685 839 711Q813 737 776 737L248 737Q211 737 185 711Q159 685 159 648L159 120Q159 83 185 57Q211 31 248 31L285 31L285 -38L248 -38Q205 -38 169 -16.5Q133 5 111.5 41Q90 77 90 120L90 648Q90 691 111.5 727Q133 763 169 784.5Q205 806 248 806ZM126 558L902 558L902 489L126 489ZM218 684ZM258 684L258 684Q297 684 297 644L297 644Q297 604 258 604L258 604Q218 604 218 644L218 644Q218 684 258 684ZM350 684ZM389 684L389 684Q429 684 429 644L429 644Q429 604 389 604L389 604Q350 604 350 644L350 644Q350 684 389 684ZM481 684ZM521 684L521 684Q560 684 560 644L560 644Q560 604 521 604L521 604Q481 604 481 644L481 644Q481 684 521 684ZM336 293Q372 293 395 278.5Q418 264 421 228L417 224L369 224L365 228Q364 234 361 240Q354 248 337 248Q323 248 318 244Q313 240 313 235Q313 230 318.5 227Q324 224 366 215Q396 208 411 193.5Q426 179 426 156Q426 127 404.5 109Q383 91 339 91Q295 91 273 110Q262 119 256.5 132Q251 145 251 159L255 164L304 164L308 160Q309 149 313 144Q321 136 343 136Q354 135 363 140Q369 143 369.5 148.5Q370 154 364.5 157.5Q359 161 316 171Q284 179 270.5 191.5Q257 204 257 227Q257 254 278 273.5Q299 293 336 293ZM512 352L516 348L516 101L512 97L464 97L460 101L460 348L464 352ZM646 294Q695 294 719 263.5Q743 233 743 191.5Q743 150 719 120.5Q695 91 646 91Q597 91 572.5 120.5Q548 150 548 191.5Q548 233 572.5 263.5Q597 294 646 294ZM646 245Q627 245 616.5 231.5Q606 218 606 192Q606 166 616.5 152.5Q627 139 645.5 139Q664 139 674.5 152.5Q685 166 685 192Q685 218 674.5 231.5Q664 245 646 245ZM833 337L837 333L837 286L862 286L867 282L867 248L862 244L837 244L837 152Q837 145 838 141L839 141Q840 139 853 139L862 139L867 135L867 99L863 95L840 94Q804 93 791 107Q781 117 781 136L781 244L760 244L756 248L756 282L760 286L781 286L781 333L786 337Z" transform="translate(0 896) scale(1 -1)" fill="currentColor" /></svg>