<svg xmlns="http://www.w3.org/2000/svg" viewBox="0 0 1024 1024" fill="none"><path d="M780 780Q821 780 855 760Q889 740 909 705.5Q929 671 929 631L929 137Q929 97 909 62.5Q889 28 855 8.5Q821 -11 780 -11L286 -11Q257 -11 229.5 0Q202 11 181 32Q160 53 149 80Q138 107 138 137L138 631Q138 671 158 705.5Q178 740 212 760Q246 780 286 780ZM780 715L286 715Q251 715 226.5 690.5Q202 666 202 631L202 137Q202 102 226.5 77.5Q251 53 286 53L780 53Q815 53 839.5 77.5Q864 102 864 137L864 631Q864 666 839.5 690.5Q815 715 780 715ZM169 62L863 755L908 709L215 16ZM138 347L570 780L616 734L183 302ZM451 34L883 466L929 421L497 -11Z" transform="translate(0 896) scale(1 -1)" fill="currentColor" /></svg>