<svg xmlns="http://www.w3.org/2000/svg" viewBox="0 0 1024 1024" fill="none"><path d="M861 238Q873 244 885.5 240Q898 236 904 224Q910 212 905.5 199Q901 186 889 181L526 1Q512 -6 497 1L135 181Q123 186 118.5 199Q114 212 120 224Q126 236 138.5 240Q151 244 163 238L512 66ZM861 413Q873 419 885.5 414.5Q898 410 904 398Q910 386 905.5 373.5Q901 361 889 355L526 175Q512 168 497 175L135 355Q127 359 122 366Q117 373 116.5 382Q116 391 119.5 398.5Q123 406 130.5 411Q138 416 147 416.5Q156 417 163 413L512 240ZM861 587Q873 593 885 588.5Q897 584 903 572.5Q909 561 905 548.5Q901 536 889 530L526 350Q512 343 497 350L135 530Q127 534 122 541Q117 548 116.5 556.5Q116 565 120 573Q124 581 131 585.5Q138 590 147 590.5Q156 591 163 588L512 415ZM861 530Q873 524 885.5 528Q898 532 904 544Q910 556 905.5 569Q901 582 889 587L526 767Q512 774 497 767L135 587Q123 582 118.5 569Q114 556 120 544Q126 532 138.5 528Q151 524 163 530L512 703Z" transform="translate(0 896) scale(1 -1)" fill="currentColor" /></svg>