<svg xmlns="http://www.w3.org/2000/svg" viewBox="0 0 1024 1024" fill="none"><path d="M759 780Q799 780 833.5 760Q868 740 888 705.5Q908 671 908 631L908 137Q908 97 888 62.5Q868 28 833.5 8Q799 -12 759 -12L265 -12Q225 -12 190.5 8Q156 28 136 62.5Q116 97 116 137L116 631Q116 671 136 705.5Q156 740 190.5 760Q225 780 265 780ZM759 715L265 715Q230 715 205.5 690.5Q181 666 181 631L181 137Q181 102 205.5 77.5Q230 53 265 53L759 53Q794 53 818.5 77.5Q843 102 843 137L843 631Q843 666 818.5 690.5Q794 715 759 715ZM396 509Q387 494 371.5 488Q356 482 340 486Q324 490 313.5 503.5Q303 517 303 534Q303 551 313.5 564Q324 577 340 581.5Q356 586 371.5 579.5Q387 573 396 558L468 558Q475 570 486.5 576.5Q498 583 511 583Q524 583 535.5 576.5Q547 570 554 558L626 558Q635 573 650.5 579.5Q666 586 682 581.5Q698 577 708.5 564Q719 551 719 534Q719 517 708.5 503.5Q698 490 682 486Q666 482 650.5 488Q635 494 626 509L554 509Q547 498 535.5 491Q524 484 511 484Q498 484 486.5 491Q475 498 468 509ZM304 399ZM336 399L688 399Q720 399 720 367L720 367Q720 335 688 335L336 335Q304 335 304 367L304 367Q304 399 336 399ZM304 261ZM336 261L688 261Q720 261 720 229L720 229Q720 197 688 197L336 197Q304 197 304 229L304 229Q304 261 336 261Z" transform="translate(0 896) scale(1 -1)" fill="currentColor" /></svg>