<svg xmlns="http://www.w3.org/2000/svg" viewBox="0 0 1024 1024" fill="none"><path d="M413 715L215 715Q201 715 191 705Q181 695 181 681L181 87Q181 73 191 63Q201 53 215 53L809 53Q823 53 833 63Q843 73 843 87L843 681Q843 695 833 705Q823 715 809 715L576 715L576 780L809 780Q828 780 846.5 772Q865 764 878.5 750.5Q892 737 900 718.5Q908 700 908 681L908 87Q908 68 900 49.5Q892 31 878.5 17.5Q865 4 846.5 -4Q828 -12 809 -12L215 -12Q196 -12 177.5 -4Q159 4 145.5 17.5Q132 31 124 49.5Q116 68 116 87L116 681Q116 700 124 718.5Q132 737 145.5 750.5Q159 764 177.5 772Q196 780 215 780L413 780ZM544 780L576 780L576 169Q576 160 572 152.5Q568 145 560.5 141Q553 137 544.5 137Q536 137 528.5 141Q521 145 516.5 152.5Q512 160 512 169L512 747Q512 761 521.5 770.5Q531 780 544 780ZM621 650ZM653 650L762 650Q794 650 794 618L794 618Q794 586 762 586L653 586Q621 586 621 618L621 618Q621 650 653 650ZM621 518ZM653 518L762 518Q794 518 794 486L794 486Q794 454 762 454L653 454Q621 454 621 486L621 486Q621 518 653 518ZM621 386ZM653 386L762 386Q794 386 794 354L794 354Q794 322 762 322L653 322Q621 322 621 354L621 354Q621 386 653 386ZM621 255ZM653 255L762 255Q794 255 794 222L794 222Q794 190 762 190L653 190Q621 190 621 222L621 222Q621 255 653 255ZM272 582L561 582L561 518L272 518Q259 518 249.5 527.5Q240 537 240 550.5Q240 564 249.5 573Q259 582 272 582ZM272 451L561 451L561 386L272 386Q264 386 256.5 390.5Q249 395 244.5 402.5Q240 410 240 418.5Q240 427 244.5 434.5Q249 442 256.5 446.5Q264 451 272 451ZM272 322L561 322L561 258L272 258Q264 258 256.5 262Q249 266 244.5 273.5Q240 281 240 290Q240 299 244.5 306Q249 313 256.5 317.5Q264 322 272 322Z" transform="translate(0 896) scale(1 -1)" fill="currentColor" /></svg>