<svg xmlns="http://www.w3.org/2000/svg" viewBox="0 0 1024 1024" fill="none"><path d="M423 787Q442 787 457 773Q472 759 475 738L475 603Q475 592 483.5 582.5Q492 573 504 571L811 571Q853 571 881.5 542.5Q910 514 910 472L910 80Q910 60 902.5 42Q895 24 881 10Q867 -4 849 -11.5Q831 -19 811 -18L207 -18Q187 -19 169 -11.5Q151 -4 137 10Q123 24 115.5 42Q108 60 108 80L108 688Q108 729 137 758Q166 787 207 787ZM413 721L207 721Q195 721 186 712.5Q177 704 174 692L174 80Q174 69 182.5 59.5Q191 50 203 47L815 47Q826 48 835.5 56Q845 64 847 76L847 473Q847 484 839 493.5Q831 503 819 505L499 505Q465 508 440.5 533Q416 558 413 593ZM381 398L386 393L386 355L381 350L321 350L321 177L316 172L271 172L266 177L266 350L206 350L201 355L201 393L206 398ZM520 398L524 395L601 179L596 172L547 172L543 176L530 217L457 217L444 176L439 172L392 172L387 179L464 395L469 398ZM729 398Q772 398 790 373Q800 358 800 337Q800 316 789 302Q786 298 782 295L780 294L784 291Q790 287 794 282L798 277Q807 263 807 242.5Q807 222 797 205Q782 181 754 175Q739 172 722 172L624 172L619 177L619 393L624 398ZM721 267L672 267L672 220L720 220Q731 219 740 223Q752 229 752 246Q752 259 741.5 263.5Q731 268 721 267ZM494 328L473 264L514 264ZM715 351L672 351L672 313L720 313Q731 313 741 318Q747 322 747 333Q747 344 739 348Q727 351 715 351ZM867 784Q884 784 895.5 772.5Q907 761 907 744L907 649Q907 633 895.5 621Q884 609 867 609L569 609Q552 609 540.5 621Q529 633 529 649L529 744Q529 761 540.5 772.5Q552 784 569 784ZM852 729L584 729L584 664L852 664Z" transform="translate(0 896) scale(1 -1)" fill="currentColor" /></svg>