<svg xmlns="http://www.w3.org/2000/svg" viewBox="0 0 1024 1024" fill="none"><path d="M853 781Q886 781 913.5 764.5Q941 748 957.5 720Q974 692 974 659L974 187Q974 154 957.5 126Q941 98 913.5 81.5Q886 65 853 65L652 66L589 4Q574 -11 552.5 -12.5Q531 -14 515 0L449 65L251 65Q219 65 192 80.5Q165 96 148.5 122Q132 148 130 180L130 659Q130 692 146 720Q162 748 190 764.5Q218 781 251 781ZM853 711L251 711Q229 711 214.5 695.5Q200 680 200 659L200 187Q200 166 215 150.5Q230 135 251 135L458 135Q476 135 490 122L548 61L610 122Q621 133 636 135L642 135L853 135Q874 135 889 150.5Q904 166 904 187L904 659Q904 681 889 696Q874 711 853 711ZM370 453ZM404 453L705 453Q739 453 739 418L739 418Q739 384 705 384L404 384Q370 384 370 418L370 418Q370 453 404 453Z" transform="translate(0 896) scale(1 -1)" fill="currentColor" /></svg>