<svg xmlns="http://www.w3.org/2000/svg" viewBox="0 0 1024 1024" fill="none"><path d="M288 780Q308 780 322.5 765.5Q337 751 337 730L337 631Q337 611 322.5 596.5Q308 582 288 582L189 582Q168 582 153.5 596.5Q139 611 139 631L139 730Q139 751 153.5 765.5Q168 780 189 780ZM278 720L199 720L199 641L278 641ZM881 780Q901 780 915.5 765.5Q930 751 930 730L930 631Q930 611 915.5 596.5Q901 582 881 582L485 582Q465 582 450.5 596.5Q436 611 436 631L436 730Q436 751 450.5 765.5Q465 780 485 780ZM871 720L495 720L495 641L871 641ZM881 483Q901 483 915.5 468.5Q930 454 930 433L930 335Q930 314 915.5 299.5Q901 285 881 285L584 285Q564 285 549.5 299.5Q535 314 535 335L535 433Q535 454 549.5 468.5Q564 483 584 483ZM871 424L594 424L594 344L871 344ZM881 186Q901 186 915.5 171.5Q930 157 930 137L930 38Q930 17 915.5 2.5Q901 -12 881 -12L584 -12Q564 -12 549.5 2.5Q535 17 535 38L535 137Q535 157 549.5 171.5Q564 186 584 186ZM871 127L594 127L594 48L871 48ZM208 624ZM238 624L238 624Q268 624 268 594L268 87Q268 58 238 58L238 58Q208 58 208 87L208 594Q208 624 238 624ZM208 117ZM238 117L555 117Q585 117 585 87L585 87Q585 58 555 58L238 58Q208 58 208 87L208 87Q208 117 238 117ZM208 414ZM238 414L555 414Q585 414 585 384L585 384Q585 354 555 354L238 354Q208 354 208 384L208 384Q208 414 238 414Z" transform="translate(0 896) scale(1 -1)" fill="currentColor" /></svg>