<svg xmlns="http://www.w3.org/2000/svg" viewBox="0 0 1024 1024" fill="none"><path d="M759 780Q799 780 833.5 760Q868 740 888 706Q908 672 908 631L908 379L843 379L843 631Q843 666 818.5 690.5Q794 715 759 715L265 715Q230 715 205.5 690.5Q181 666 181 631L181 137Q181 102 205.5 77.5Q230 53 265 53L299 53L299 -11L265 -11Q225 -11 190.5 8.5Q156 28 136 62.5Q116 97 116 137L116 631Q116 672 136 706Q156 740 190.5 760Q225 780 265 780ZM150 542L878 542L878 478L150 478ZM236 660ZM274 660L274 660Q311 660 311 623L311 623Q311 586 274 586L274 586Q236 586 236 623L236 623Q236 660 274 660ZM360 660ZM397 660L397 660Q434 660 434 623L434 623Q434 586 397 586L397 586Q360 586 360 623L360 623Q360 660 397 660ZM483 660ZM520 660L520 660Q557 660 557 623L557 623Q557 586 520 586L520 586Q483 586 483 623L483 623Q483 660 520 660ZM394 308L399 304L434 180L470 304L475 308L515 308L519 301L456 116L452 113L415 113L410 116L348 301L353 308ZM577 308L582 303L582 189Q582 171 586 163Q592 150 612 150Q632 150 638 163Q642 171 642 189L642 303L647 308L686 308L691 303L691 189Q691 158 682 141Q663 108 612 108Q561 108 543 141Q533 158 533 189L533 303L538 308ZM860 308L865 303L865 270L860 265L767 265L767 236L852 236L857 231L857 198L852 194L767 194L767 156L865 156L870 151L870 118L865 113L724 113L719 118L719 303L724 308Z" transform="translate(0 896) scale(1 -1)" fill="currentColor" /></svg>